<svg width="100" height="19" viewBox="0 0 100 19" fill="none" xmlns="http://www.w3.org/2000/svg">
<g clip-path="url(#clip0_248_560)">
<path fill-rule="evenodd" clip-rule="evenodd" d="M36.2841 6.56669C36.2841 6.40203 36.3961 6.31402 36.5368 6.31402C36.7748 6.31402 37.1341 6.56669 37.3368 7.07203C37.2641 7.07203 37.1548 7.09403 37.0815 7.09403C36.6481 7.09403 36.2841 6.88803 36.2841 6.56669V6.56669ZM10.0667 6.56669C10.0667 6.40203 10.174 6.31402 10.3207 6.31402C10.5527 6.31402 10.8974 6.56669 11.0974 7.07203C10.428 7.07203 10.0667 6.92736 10.0667 6.56669ZM15.1234 3.95535C15.1234 1.252 15.6501 0.83667 15.8134 0.83667C16.1041 0.83667 16.1387 1.018 16.1387 2.05467C16.1387 3.12001 15.6847 4.51402 15.1234 5.27935V3.95535ZM33.5308 6.62069C33.2188 7.05536 32.9661 7.6727 32.9661 8.46803C32.9661 9.99137 33.8348 11.4454 35.5228 11.4454C37.1548 11.4454 38.2982 10.156 38.2982 8.35803C38.2982 7.83603 38.2782 7.76403 38.2441 7.54736C38.6235 7.38203 38.9508 7.12936 39.2055 6.92736C39.4222 6.76403 39.5842 6.67269 39.7135 6.67269C39.8762 6.67269 39.9475 6.80003 39.9475 7.03536V10.5927C39.9475 11.172 40.1308 11.4454 40.5822 11.4454C40.9982 11.4454 41.2908 11.1534 41.4528 10.8094C42.0528 9.55804 42.9215 7.89003 43.3008 7.2567C43.3922 7.11136 43.4662 7.00003 43.5182 7.00003C43.5908 7.00003 43.6282 7.05536 43.6282 7.29003V10.122C43.6282 10.9187 43.9922 11.4454 44.7868 11.4454C45.6228 11.4454 46.0375 10.6447 46.7682 9.41204C46.8029 9.33804 46.8182 9.28537 46.8182 9.2327C46.8182 9.06937 46.6768 8.9767 46.5308 8.9767C46.3662 8.9767 46.2755 9.14137 45.7328 9.73804C45.6228 9.85137 45.5162 10.0087 45.3148 10.0087C45.2428 10.0087 45.1875 9.92137 45.1875 9.81071V6.63603C45.1875 5.78336 44.8062 5.43935 44.3168 5.43935C43.9188 5.43935 43.5908 5.60269 43.2468 6.11069C42.6302 7.01936 41.9955 8.30803 41.6522 8.95737C41.6135 9.03337 41.5615 9.14137 41.5262 9.14137C41.4882 9.14137 41.4722 9.08536 41.4722 8.95737V6.63603C41.4722 5.96669 41.2908 5.43935 40.5822 5.43935C39.8382 5.43935 39.4582 5.94802 38.9142 6.32802C38.5695 6.58469 38.2621 6.76403 38.0275 6.87269C37.6628 5.94802 36.9928 5.47935 36.4308 5.49335C35.8668 5.51269 35.4681 5.85936 35.4681 6.44003C35.4681 7.03536 35.8328 7.45003 36.3201 7.6347C36.5908 7.74336 36.8455 7.76403 37.2101 7.76403C37.3195 7.76403 37.4275 7.76403 37.4975 7.74337C37.5361 7.92404 37.5188 8.18137 37.5188 8.38004C37.5188 9.27004 36.9928 10.156 36.0148 10.156C34.9968 10.156 34.4008 9.17671 34.4008 8.05337C34.4008 7.20003 34.6535 6.49403 35.0675 6.00603C35.2348 5.82336 35.3595 5.71269 35.3595 5.54536C35.3595 5.46069 35.2348 5.43936 35.1248 5.43936C34.4341 5.43936 33.6748 5.74869 33.1501 6.01936C32.4575 6.3827 31.6435 6.98337 30.9715 7.58137C30.6455 6.85403 30.2468 6.21936 30.0461 5.72803C29.9741 5.52869 29.9214 5.29736 29.7761 5.29736C29.6474 5.29736 29.5914 5.42403 29.5028 5.67403C29.1774 6.63603 27.4354 9.44937 27.0548 9.83004C27.0188 9.88205 26.9661 9.93938 26.9488 9.93938C26.9094 9.93938 26.8888 9.92137 26.8888 9.81071V6.63603C26.8888 5.78336 26.5448 5.43936 26.0768 5.43936C25.6761 5.43936 25.3328 5.60269 25.0068 6.11069C24.4094 7.01937 23.6808 8.34337 23.3374 8.99471C23.2821 9.10671 23.2274 9.14137 23.2088 9.14137C23.1908 9.14137 23.1761 9.06937 23.1761 8.95737V6.63603C23.1761 5.78336 22.8301 5.43936 22.3581 5.43936C21.9581 5.43936 21.5794 5.58803 21.2694 6.11069C20.5094 7.40003 19.2407 9.37671 19.0047 9.70071C18.9681 9.75671 18.9314 9.79338 18.8954 9.81071C18.8594 9.81071 18.8387 9.77538 18.8387 9.68538V6.63603C18.8387 5.78336 18.4947 5.43936 18.0261 5.43936C17.3721 5.43936 17.0114 6.04069 16.7734 6.41936C16.4454 6.94536 16.0121 7.65403 15.6687 8.30804C15.4321 8.74537 15.2314 9.14137 15.1581 9.14137C15.1234 9.14137 15.1234 8.97671 15.1234 8.66937V6.24003C16.2641 4.96802 16.9721 3.41002 16.9721 1.70534C16.9721 0.724007 16.5387 0.182672 15.8694 0.182672C14.6154 0.182672 13.6567 2.14201 13.6567 4.46136V6.34736C13.0754 6.7107 12.5307 6.88803 11.8587 7.01936C11.5154 6.00603 10.7887 5.47936 10.2107 5.49336C9.65004 5.51269 9.24937 5.85936 9.24937 6.44003C9.24937 7.40003 10.1927 7.7987 11.0247 7.7987H11.2607C11.296 7.98137 11.296 8.18137 11.296 8.38004C11.296 9.27004 10.7707 10.156 9.79404 10.156C8.77937 10.156 8.17937 9.17671 8.17937 8.05337C8.17937 7.20003 8.43071 6.49403 8.84804 6.00603C9.01271 5.82336 9.14071 5.66003 9.14071 5.54536C9.14071 5.46069 9.01271 5.43936 8.90271 5.43936C8.21404 5.43936 6.6927 6.36803 4.87802 8.18137C4.71735 6.73003 4.53468 5.31402 4.53468 3.93535C4.53468 2.39468 4.83935 1.086 4.91202 0.708669C4.94869 0.474668 4.97135 0.327335 4.97135 0.220668C4.97135 0.074667 4.89402 0 4.69868 0C3.22801 0 0 2.34068 0 5.84069C0 8.3227 0.90867 9.5207 2.48334 11.062C1.52734 12.604 0.76067 14.4347 0.76067 16.0674C0.76067 17.2441 1.03534 18.1354 1.90334 18.1354C3.71735 18.1354 5.07602 14.3654 5.07602 11.5707C5.07602 10.7374 5.04269 9.90204 4.97135 9.06937C5.64002 8.35803 6.67403 7.40003 6.92603 7.30936C6.81803 7.6907 6.74536 8.0907 6.74536 8.46803C6.74536 9.99137 7.61736 11.4454 9.30204 11.4454C10.882 11.4454 12.0767 10.156 12.0767 8.35803C12.0767 8.12603 12.058 7.92403 12.042 7.70736C12.6194 7.5987 13.1507 7.45003 13.6567 7.14669V10.7914C13.6567 11.2607 13.9807 11.4454 14.2894 11.4454C14.7087 11.4454 14.9261 11.1534 15.2314 10.486C15.4881 9.93937 16.1747 8.68937 16.5914 7.94336C16.9201 7.36136 17.1014 6.98336 17.2474 6.98336C17.2814 6.98336 17.3201 7.07203 17.3201 7.29003V10.392C17.3201 11.2267 17.7554 11.4454 18.1321 11.4454C18.4947 11.4454 18.7321 11.246 18.9681 10.9187C19.9121 9.57537 20.9107 7.98136 21.3067 7.29003C21.3801 7.16603 21.4701 7.07203 21.5434 7.07203C21.6141 7.07203 21.6507 7.11136 21.6507 7.34403V10.5927C21.6507 11.172 21.8321 11.4454 22.2874 11.4454C22.7021 11.4454 22.9734 11.1534 23.1354 10.8094C23.7381 9.55804 24.6241 7.9067 25.0068 7.2567C25.0954 7.11136 25.1868 6.98336 25.2408 6.98336C25.3161 6.98336 25.3328 7.07203 25.3328 7.30936V10.392C25.3328 11.2267 25.7681 11.4454 26.1514 11.4454C26.6548 11.4454 26.9848 11.0807 27.3108 10.6654C27.9054 9.88204 28.7768 8.49137 29.3034 7.5987C29.4861 7.89003 29.6834 8.23537 29.8494 8.61537C29.4134 9.14137 28.9774 9.73804 28.9774 10.372C28.9774 11.044 29.4488 11.4454 29.9388 11.4454C30.7715 11.4454 31.5321 10.6447 31.5321 9.5407C31.5321 9.1067 31.4075 8.65203 31.2454 8.21803C31.9848 7.4907 32.8748 6.78336 33.5308 6.62069H33.5308ZM3.66135 10.574C3.80802 11.534 3.93535 12.4794 3.93535 13.2214C3.93535 14.9594 3.35668 16.9914 2.35868 16.9747C1.97334 16.9747 1.64934 16.5894 1.63334 15.9221C1.59667 13.7481 2.63001 11.8974 3.66135 10.574ZM30.1368 9.33804C30.2468 9.65004 30.3021 9.90204 30.3021 10.156C30.3021 10.4467 30.1928 10.7374 29.9921 10.7374C29.8495 10.7374 29.7041 10.574 29.7041 10.3194C29.7041 10.0467 29.9388 9.61137 30.1368 9.33804V9.33804ZM4.31602 0.689336C4.31602 0.800003 4.06202 1.30601 3.73668 2.21401C3.39201 3.15535 3.06335 4.49602 3.06335 6.11069C3.06335 7.07203 3.30135 8.34337 3.50201 9.63004L2.92135 10.4127C1.99534 9.28537 1.41601 8.01803 1.41601 5.84069C1.41601 2.75868 3.28335 0.620669 4.24268 0.620669C4.30002 0.620669 4.31602 0.636669 4.31602 0.689336L4.31602 0.689336Z" fill="white"/>
<path fill-rule="evenodd" clip-rule="evenodd" d="M89.4672 6.56669C89.4672 6.40203 89.5732 6.31402 89.7199 6.31402C89.9539 6.31402 90.3172 6.56669 90.5159 7.07203C90.4453 7.07203 90.3366 7.09403 90.2606 7.09403C89.8292 7.09403 89.4672 6.88803 89.4672 6.56669V6.56669ZM63.2445 6.56669C63.2445 6.40203 63.3551 6.31402 63.4985 6.31402C63.7345 6.31402 64.0825 6.56669 64.2778 7.07203C63.6071 7.07203 63.2445 6.92736 63.2445 6.56669ZM68.3045 3.95535C68.3045 1.252 68.8278 0.83667 68.9931 0.83667C69.2825 0.83667 69.3191 1.018 69.3191 2.05467C69.3191 3.12001 68.8645 4.51402 68.3045 5.27935V3.95535ZM56.8458 10.574C56.9864 11.534 57.1184 12.4794 57.1184 13.2214C57.1184 14.9594 56.5391 16.9914 55.5391 16.9747C55.1591 16.9747 54.8324 16.5894 54.8144 15.9221C54.7771 13.7481 55.8124 11.8974 56.8458 10.574V10.574ZM83.3205 9.33804C83.4305 9.65004 83.4825 9.90204 83.4825 10.156C83.4825 10.4467 83.3739 10.7374 83.1745 10.7374C83.0312 10.7374 82.8819 10.574 82.8819 10.3194C82.8819 10.0467 83.1199 9.61137 83.3205 9.33804ZM57.4951 0.689336C57.4951 0.800003 57.2438 1.30601 56.9151 2.21401C56.5731 3.15535 56.2444 4.49602 56.2444 6.11069C56.2444 7.07203 56.4864 8.34337 56.6844 9.63004L56.1024 10.4127C55.1791 9.28537 54.5958 8.01803 54.5958 5.84069C54.5958 2.75868 56.4671 0.620669 57.4264 0.620669C57.4791 0.620669 57.4951 0.636669 57.4951 0.689336L57.4951 0.689336ZM54.4718 9.7567C54.7958 10.192 55.1958 10.6087 55.6671 11.062C54.7051 12.604 53.9444 14.4347 53.9444 16.0674C53.9444 17.2441 54.2184 18.1354 55.0891 18.1354C56.9004 18.1354 58.2591 14.3654 58.2591 11.5707C58.2591 10.7374 58.2238 9.90204 58.1511 9.06937C58.8231 8.35803 59.8531 7.40003 60.1104 7.30936C60.0011 7.6907 59.9258 8.0907 59.9258 8.46803C59.9258 9.99137 60.7971 11.4454 62.4851 11.4454C64.0611 11.4454 65.2578 10.156 65.2578 8.35803C65.2578 8.12603 65.2411 7.92403 65.2211 7.70736C65.8025 7.5987 66.3318 7.45003 66.8365 7.14669V10.7914C66.8365 11.2607 67.1611 11.4454 67.4671 11.4454C67.8898 11.4454 68.1071 11.1534 68.4138 10.486C68.6665 9.93937 69.3571 8.68937 69.7751 7.94336C70.1005 7.36136 70.2818 6.98336 70.4305 6.98336C70.4645 6.98336 70.4985 7.07203 70.4985 7.29003V10.392C70.4985 11.2267 70.9325 11.4454 71.3138 11.4454C71.6778 11.4454 71.9112 11.246 72.1518 10.9187C73.0918 9.57537 74.0905 7.98136 74.4885 7.29003C74.5612 7.16603 74.6532 7.07203 74.7232 7.07203C74.7938 7.07203 74.8338 7.11136 74.8338 7.34403V10.5927C74.8338 11.172 75.0132 11.4454 75.4658 11.4454C75.8832 11.4454 76.1552 11.1534 76.3198 10.8094C76.9185 9.55804 77.8065 7.9067 78.1858 7.2567C78.2785 7.11136 78.3685 6.98336 78.4252 6.98336C78.4959 6.98336 78.5159 7.07203 78.5159 7.30936V10.392C78.5159 11.2267 78.9472 11.4454 79.3272 11.4454C79.8385 11.4454 80.1652 11.0807 80.4892 10.6654C81.0872 9.88204 81.9599 8.49137 82.4852 7.5987C82.6645 7.89003 82.8665 8.23537 83.0312 8.61537C82.5912 9.14137 82.1605 9.73804 82.1605 10.372C82.1605 11.044 82.6265 11.4454 83.1199 11.4454C83.9525 11.4454 84.7132 10.6447 84.7132 9.5407C84.7132 9.1067 84.5872 8.65203 84.4239 8.21803C85.1665 7.4907 86.0559 6.78336 86.7086 6.62069C86.4005 7.05536 86.1465 7.6727 86.1465 8.46803C86.1465 9.99137 87.0179 11.4454 88.7046 11.4454C90.3366 11.4454 91.4759 10.156 91.4759 8.35803C91.4759 7.83603 91.4592 7.76403 91.4252 7.54736C91.8019 7.38203 92.1306 7.12936 92.3872 6.92736C92.5999 6.76403 92.7666 6.67269 92.8912 6.67269C93.0552 6.67269 93.1319 6.80003 93.1319 7.03536V10.5927C93.1319 11.172 93.3106 11.4454 93.7639 11.4454C94.1793 11.4454 94.4713 11.1534 94.6352 10.8094C95.2299 9.55804 96.1019 7.89003 96.4813 7.2567C96.5719 7.11136 96.6459 7.00003 96.7006 7.00003C96.7746 7.00003 96.8099 7.05536 96.8099 7.29003V10.122C96.8099 10.9187 97.1693 11.4454 97.9693 11.4454C98.8059 11.4454 99.2219 10.6447 99.9486 9.41204C99.9826 9.33804 99.9999 9.28537 99.9999 9.2327C99.9999 9.06937 99.8546 8.9767 99.7106 8.9767C99.5486 8.9767 99.4559 9.14137 98.9133 9.73804C98.8059 9.85137 98.6953 10.0087 98.4966 10.0087C98.4219 10.0087 98.3706 9.92137 98.3706 9.81071V6.63603C98.3706 5.78336 97.9853 5.43935 97.4959 5.43935C97.0993 5.43935 96.7746 5.60269 96.4286 6.11069C95.8106 7.01936 95.1779 8.30803 94.8359 8.95737C94.7966 9.03337 94.7439 9.14137 94.7053 9.14137C94.6666 9.14137 94.6526 9.08536 94.6526 8.95737V6.63603C94.6526 5.96669 94.4713 5.43935 93.7639 5.43935C93.0186 5.43935 92.6399 5.94802 92.0966 6.32802C91.7486 6.58469 91.4426 6.76403 91.2046 6.87269C90.8452 5.94802 90.1719 5.47935 89.6126 5.49335C89.0472 5.51269 88.6519 5.85936 88.6519 6.44003C88.6519 7.03536 89.0146 7.45003 89.4999 7.6347C89.7726 7.74336 90.0266 7.76403 90.3939 7.76403C90.4999 7.76403 90.6052 7.76403 90.6826 7.74337C90.7179 7.92404 90.6993 8.18137 90.6993 8.38004C90.6993 9.27004 90.1719 10.156 89.1919 10.156C88.1773 10.156 87.5813 9.17671 87.5813 8.05337C87.5813 7.20003 87.8333 6.49403 88.2486 6.00603C88.4139 5.82336 88.5419 5.71269 88.5419 5.54536C88.5419 5.46069 88.4139 5.43936 88.3053 5.43936C87.6193 5.43936 86.8553 5.74869 86.3293 6.01936C85.6392 6.3827 84.8232 6.98337 84.1546 7.58137C83.8272 6.85403 83.4305 6.21936 83.2285 5.72802C83.1539 5.52869 83.1045 5.29735 82.9539 5.29735C82.8285 5.29735 82.7732 5.42402 82.6839 5.67402C82.3565 6.63603 80.6172 9.44937 80.2365 9.83004C80.1999 9.88204 80.1459 9.93937 80.1265 9.93937C80.0925 9.93937 80.0725 9.92137 80.0725 9.81071V6.63603C80.0725 5.78336 79.7305 5.43935 79.2545 5.43935C78.8552 5.43935 78.5158 5.60269 78.1858 6.11069C77.5865 7.01936 76.8632 8.34337 76.5185 8.9947C76.4652 9.1067 76.4118 9.14137 76.3945 9.14137C76.3738 9.14137 76.3552 9.06937 76.3552 8.95737V6.63603C76.3552 5.78336 76.0132 5.43935 75.5412 5.43935C75.1412 5.43935 74.7578 5.58802 74.4525 6.11069C73.6885 7.40003 72.4212 9.3767 72.1838 9.70071C72.1518 9.75671 72.1132 9.79337 72.0745 9.81071C72.0425 9.81071 72.0212 9.77537 72.0212 9.68537V6.63603C72.0212 5.78336 71.6778 5.43935 71.2045 5.43935C70.5498 5.43935 70.1898 6.04069 69.9525 6.41936C69.6265 6.94536 69.1938 7.65403 68.8478 8.30803C68.6138 8.74537 68.4138 9.14137 68.3411 9.14137C68.3045 9.14137 68.3045 8.9767 68.3045 8.66937V6.24002C69.4485 4.96802 70.1531 3.41001 70.1531 1.70534C70.1531 0.724003 69.7191 0.182667 69.0458 0.182667C67.7965 0.182667 66.8365 2.14201 66.8365 4.46135V6.34736C66.2545 6.71069 65.7105 6.88803 65.0385 7.01936C64.6965 6.00602 63.9705 5.47935 63.3938 5.49335C62.8278 5.51269 62.4304 5.85936 62.4304 6.44003C62.4304 7.40003 63.3705 7.7987 64.2065 7.7987H64.4438C64.4771 7.98136 64.4771 8.18137 64.4771 8.38003C64.4771 9.27004 63.9531 10.156 62.9731 10.156C61.9571 10.156 61.3618 9.1767 61.3618 8.05337C61.3618 7.20003 61.6151 6.49403 62.0291 6.00602C62.1918 5.82336 62.3198 5.66002 62.3198 5.54535C62.3198 5.46069 62.1918 5.43935 62.0844 5.43935C61.3944 5.43935 59.8724 6.36802 58.0571 8.18137C57.8978 6.73003 57.7144 5.31402 57.7144 3.93535C57.7144 2.39468 58.0224 1.086 58.0951 0.708669C58.1311 0.474668 58.1511 0.327335 58.1511 0.220668C58.1511 0.074667 58.0771 0 57.8811 0C56.4118 0 53.1837 2.34068 53.1837 5.84069C53.1837 7.27136 53.4917 8.28937 54.0357 9.1767C53.8331 9.14137 53.6737 9.14137 53.5251 9.14137C52.9471 9.14137 52.4011 9.28537 52.0624 9.35937V8.9947C52.0624 8.21803 51.8784 7.14669 51.5511 6.78336C51.5124 6.74603 51.4584 6.73003 51.4077 6.73003C51.2584 6.73003 51.0797 6.80003 50.8811 6.91003C50.6611 7.01936 50.4437 7.12936 50.4437 7.20003C50.4437 7.23469 50.4437 7.27136 50.4984 7.36136C50.6264 7.54736 50.9717 7.9067 51.0964 8.76137C50.4784 8.14403 49.7744 7.87003 48.8531 7.87003C47.7631 7.87003 47.4351 8.35803 47.4351 8.8507C47.4351 9.79337 48.6864 10.2647 50.2664 10.2647C50.5557 10.2647 50.8811 10.21 51.2057 10.136C51.2057 10.4267 51.2424 10.684 51.2424 10.9C51.2424 11.2087 51.2951 11.4454 51.4971 11.4454C51.8044 11.4454 51.9871 10.826 52.0217 9.93937C52.5837 9.79337 53.1651 9.66804 53.6564 9.66804C53.8911 9.66804 54.1844 9.7007 54.4718 9.7567V9.7567ZM50.8997 9.57537C50.5944 9.61137 50.4084 9.61137 50.0851 9.61137C49.3757 9.61137 48.8531 9.33803 48.8531 8.9427C48.8531 8.68936 48.9784 8.54203 49.3411 8.54203C49.9224 8.54203 50.3911 8.9427 50.8997 9.57537V9.57537Z" fill="white"/>
</g>
<defs>
<clipPath id="clip0_248_560">
<rect width="100" height="18.1354" fill="white"/>
</clipPath>
</defs>
</svg>
