<svg width="100" height="11" viewBox="0 0 100 11" fill="none" xmlns="http://www.w3.org/2000/svg">
<g clip-path="url(#clip0_248_597)">
<path d="M1.49485 0.00537109L4.10309 5.42805L6.73196 0.00537109H8.2268V6.45898H7.19588V1.09815H7.17526L4.58763 6.45898H3.63918L1.05155 1.08785H1.03093V6.45898H0V0.00537109H1.49485Z" fill="white"/>
<path d="M16.4227 0.788876H16.4433L17.8248 3.79919H15.0206L16.4227 0.788876M12.6083 6.45898H13.7423L14.6701 4.51053H18.1753L19.0825 6.45898H20.299L17.0619 0.00537109H15.8454L12.6083 6.45898V6.45898Z" fill="white"/>
<path d="M27.1031 6.45898H26.0103V3.8198L22.8145 0.00537109H24.1237L26.598 3.07754L29.0206 0.00537109H30.2784L27.1031 3.8198V6.45898Z" fill="white"/>
<path d="M35.6083 3.50022H38.1238C39.0516 3.50022 39.9176 3.73733 39.9176 4.58269C39.9176 5.29403 39.3093 5.74764 38.3609 5.74764H35.598L35.6083 3.50022M34.5155 6.45898H38.5155C40.1547 6.45898 41.0207 5.56207 41.0207 4.60331C41.0207 3.79919 40.4743 3.21156 39.4537 3.04661V3.02599C40.2268 2.77857 40.6805 2.2631 40.6805 1.57238C40.6805 0.933206 40.2578 0.469289 39.7114 0.221866C39.2165 0.00537109 38.2475 0.00537109 37.5155 0.00537109H34.5155V6.45898M35.6083 0.716711H37.8145C38.7629 0.716711 39.5774 0.840423 39.5774 1.74764C39.5774 2.42805 39.0722 2.78888 37.8145 2.78888H35.6083V0.716711V0.716711Z" fill="white"/>
<path d="M47.0825 3.50022V5.74764H51.7216V6.45898H45.9794V0.00537109H51.6804V0.716711H47.0825V2.78888H51.3711V3.50022H47.0825Z" fill="white"/>
<path d="M57.6804 0.00537109V5.74764H62.0619V6.45898H56.5876V0.00537109H57.6804Z" fill="white"/>
<path d="M67.4226 0.00537109V5.74764H71.7938V6.45898H66.3298V0.00537109H67.4226Z" fill="white"/>
<path d="M76.3298 0.00537109H77.4226V6.45898H76.3298V0.00537109Z" fill="white"/>
<path d="M87.9691 6.45898L83.6186 1.28372H83.5979V6.45898H82.567V0.00537109H83.732L88.1134 5.24248H88.134V0.00537109H89.165V6.45898H87.9691Z" fill="white"/>
<path d="M95.3402 3.50022V5.74764H99.9897V6.45898H94.2474V0.00537109H99.9588V0.716711H95.3402V2.78888H99.6392V3.50022H95.3402Z" fill="white"/>
<path d="M68.598 10.2322L66.9382 8.14971H66.9279V10.2322H66.3608V7.45898H67.0309L68.6907 9.54146H68.701V7.45898H69.2577V10.2322H68.598Z" fill="white"/>
<path d="M71.8866 9.02599V9.79919H73.7526V10.2322H71.3093V7.45898H73.7217V7.89197H71.8866V8.593H73.6392V9.02599H71.8866Z" fill="white"/>
<path d="M78.3093 10.2322L77.6186 8.10847H77.6083L76.9175 10.2322H76.2784L75.3608 7.45898H75.9897L76.6186 9.61362H76.6289L77.3196 7.45898H77.9279L78.6186 9.61362H78.6289L79.2681 7.45898H79.8763L78.9382 10.2322H78.3093Z" fill="white"/>
<path d="M82.701 7.45898H83.4124L84.2062 8.6961L85 7.45898H85.7114L84.5052 9.18063V10.2322H83.9175V9.18063L82.701 7.45898Z" fill="white"/>
<path d="M88.9278 9.88169C88.2783 9.88169 87.8969 9.45901 87.8969 8.85076C87.8969 8.24251 88.268 7.81983 88.9278 7.81983C89.5773 7.81983 89.9587 8.24251 89.9587 8.85076C89.9587 9.45901 89.5876 9.88169 88.9278 9.88169ZM88.9278 10.3147C90.1031 10.3147 90.567 9.63426 90.567 8.85076C90.567 8.06725 90.1031 7.38684 88.9278 7.38684C87.7526 7.38684 87.299 8.06725 87.299 8.85076C87.299 9.63426 87.7526 10.3147 88.9278 10.3147Z" fill="white"/>
<path d="M93.0412 8.70641V7.89197H94.0516C94.3608 7.89197 94.5464 8.00538 94.5464 8.29404C94.5464 8.60331 94.3711 8.70641 94.0516 8.70641H93.0412ZM92.4536 10.2322H93.0412V9.1394H94.0309C94.4639 9.1394 94.5155 9.41775 94.5155 9.81981C94.5155 10.026 94.5464 10.16 94.5876 10.2425H95.2165C95.1031 10.0879 95.1031 9.77857 95.1031 9.64455C95.1031 9.2528 95.0309 8.96414 94.701 8.89197V8.88166C94.9588 8.79919 95.165 8.57239 95.165 8.21156C95.165 7.77857 94.9382 7.45898 94.2268 7.45898H92.4639L92.4536 10.2322V10.2322Z" fill="white"/>
<path d="M99.2062 10.2322L98.165 8.95383L97.6908 9.37651V10.2322H97.1031V7.45898H97.6908V8.74764L99.1135 7.45898H99.9176L98.6186 8.58269L100 10.2322H99.2062Z" fill="white"/>
</g>
<defs>
<clipPath id="clip0_248_597">
<rect width="100" height="10.32" fill="white"/>
</clipPath>
</defs>
</svg>
