<svg width="100" height="18" viewBox="0 0 100 18" fill="none" xmlns="http://www.w3.org/2000/svg">
<path d="M18.2664 0.849087H20.4404V11.5147H18.2664V0.849087ZM41.351 0.852291L35.2577 7.55361L28.8287 0.852291H28.0477V11.5243H28.5619V3.18886L34.3036 9.5049L40.0461 3.18886V11.5243H42.0968V0.852291H41.351ZM62.4547 0.852291L56.3597 7.55361L49.9323 0.852291H49.1505V11.5243H49.664V3.18886L55.4065 9.5049L61.1482 3.18886V11.5243H63.1988V0.852291H62.4547ZM69.7471 0.852291V11.5243H81.5974V11.002H71.9251V6.09336H77.7197V5.60153H71.9251V1.27122H81.007V0.852291H69.7471ZM87.6074 0.852291V11.5243H99.199V11.002H89.7542V0.852291H87.6074ZM7.32452 6.40816C9.15966 6.40816 9.59061 4.96632 9.59061 3.82647C9.59061 2.71386 9.16046 1.20874 7.40543 1.20874H3.00543V6.40816H7.32452ZM0.801025 0.801025H7.43266C10.2923 0.801025 11.6949 1.91524 11.6949 3.78802C11.6949 5.29955 10.6672 6.53232 8.89132 6.81107L12.5319 11.5267H10.185L6.54433 6.8319H3.00543V11.5267H0.801025V0.801025Z" fill="white"/>
<path d="M96.2681 13.3898L96.244 13.4139V16.7021L96.2681 16.7261H96.6966L96.7206 16.7021V14.1524L98.6743 16.7021L98.7224 16.7261H99.175L99.199 16.7021V13.4139L99.175 13.3898H98.7456L98.7216 13.4139V15.9635L96.7679 13.4139L96.7198 13.3898H96.2681ZM92.0835 13.8184C92.3295 13.8136 92.5714 13.8822 92.7783 14.0153C92.9851 14.1485 93.1477 14.3402 93.2452 14.5661C93.3428 14.792 93.3708 15.0418 93.3259 15.2837C93.281 15.5256 93.1651 15.7486 92.9929 15.9244C92.8208 16.1001 92.6002 16.2207 92.3593 16.2707C92.1184 16.3207 91.8681 16.2978 91.6402 16.205C91.4123 16.1122 91.2173 15.9537 91.0798 15.7496C90.9424 15.5456 90.8688 15.3052 90.8684 15.0592C90.8666 14.898 90.8966 14.738 90.9568 14.5884C91.0169 14.4388 91.106 14.3025 91.2188 14.1874C91.3317 14.0723 91.4662 13.9806 91.6146 13.9176C91.763 13.8545 91.9223 13.8214 92.0835 13.82M92.0835 13.3194C91.7404 13.3238 91.4062 13.4296 91.1231 13.6235C90.8399 13.8173 90.6204 14.0906 90.4922 14.4089C90.364 14.7273 90.3327 15.0764 90.4024 15.4124C90.4721 15.7484 90.6397 16.0563 90.8839 16.2974C91.1282 16.5384 91.4383 16.7019 91.7752 16.7671C92.1121 16.8323 92.4608 16.7965 92.7774 16.6641C93.094 16.5316 93.3643 16.3085 93.5545 16.0228C93.7446 15.7371 93.8459 15.4015 93.8458 15.0584C93.8418 14.5944 93.6541 14.1509 93.3238 13.8249C92.9935 13.499 92.5476 13.3172 92.0835 13.3194M85.6754 13.8673H86.3427C87.0572 13.8673 87.5578 14.3911 87.5578 15.0584C87.5578 15.7256 87.0572 16.2495 86.3427 16.2495H85.6754V13.8673ZM85.2228 13.3906L85.1988 13.4147V16.7029L85.2228 16.7269H86.3443C87.3688 16.7269 88.1065 15.9883 88.1065 15.0592C88.1065 14.13 87.368 13.3914 86.3443 13.3914L85.2228 13.3906ZM79.6958 13.3906L79.6718 13.4147V16.7029L79.6958 16.7269H80.1251L80.1492 16.7029V14.1524L82.1045 16.7021L82.1517 16.7261H82.6043L82.6283 16.7021V13.4139L82.6043 13.3898H82.1758L82.1517 13.4139V15.9635L80.198 13.4139L80.15 13.3898L79.6958 13.3906ZM75.5113 13.8192C75.7573 13.8144 75.9992 13.883 76.2061 14.0162C76.413 14.1494 76.5755 14.3412 76.673 14.5671C76.7705 14.793 76.7986 15.0428 76.7536 15.2848C76.7086 15.5267 76.5926 15.7497 76.4203 15.9255C76.2481 16.1012 76.0275 16.2217 75.7865 16.2716C75.5456 16.3215 75.2952 16.2985 75.0674 16.2056C74.8395 16.1126 74.6445 15.954 74.5071 15.7498C74.3698 15.5457 74.2963 15.3052 74.2961 15.0592C74.2943 14.898 74.3244 14.738 74.3845 14.5884C74.4446 14.4388 74.5337 14.3025 74.6466 14.1874C74.7594 14.0723 74.8939 13.9806 75.0423 13.9176C75.1907 13.8545 75.3501 13.8214 75.5113 13.82M75.5113 13.3194C75.1681 13.3238 74.834 13.4296 74.5508 13.6235C74.2676 13.8173 74.0481 14.0906 73.9199 14.4089C73.7917 14.7273 73.7605 15.0764 73.8302 15.4124C73.8999 15.7484 74.0674 16.0563 74.3117 16.2974C74.5559 16.5384 74.866 16.7019 75.2029 16.7671C75.5399 16.8323 75.8885 16.7965 76.2051 16.6641C76.5217 16.5316 76.7921 16.3085 76.9822 16.0228C77.1723 15.7371 77.2736 15.4015 77.2735 15.0584C77.2695 14.5944 77.0818 14.1509 76.7515 13.8249C76.4212 13.499 75.9753 13.3172 75.5113 13.3194M69.7656 13.3906L69.7463 13.4099V16.7077L69.7656 16.7269H71.7769L71.7961 16.7077V16.2743L71.7769 16.2503H70.2229V13.4091L70.2037 13.3898L69.7656 13.3906Z" fill="white"/>
</svg>
