<svg width="100" height="22" viewBox="0 0 100 22" fill="none" xmlns="http://www.w3.org/2000/svg">
<path d="M12.8782 8.02867C12.7146 7.50713 12.2367 6.33482 12.1065 5.4693C11.8193 3.55233 12.8215 2.28984 13.7418 2.00071C14.7747 1.71251 15.1782 2.23127 15.5779 3.43704C16.0948 5.27313 16.1525 7.67912 15.9786 11.1235C15.7527 15.8286 13.3988 21.5107 7.54747 21.3926C2.49659 21.282 0.26167 18.0105 0.029253 13.0191C-0.0804476 10.6661 0.0878221 8.31407 1.06211 4.98773C1.57901 3.20649 2.04012 2.57246 3.6438 2.23127C4.90442 2.00071 4.791 3.31898 4.5056 4.87338C3.87714 8.31408 3.58523 9.97539 3.81764 13.8791C4.04262 18.0105 5.94007 19.6179 8.00579 19.6179C11.1044 19.6774 12.4803 17.0957 13.0567 13.3622C13.5113 10.3798 13.1682 8.94532 12.8782 8.02867ZM78.944 12.1034C80.1507 12.1034 80.4965 13.5304 80.2083 14.395C79.9201 15.254 78.8891 16.2339 77.2836 16.5193C76.9378 15.6566 76.7648 12.1034 78.944 12.1034ZM56.5149 14.0483C56.5149 13.0768 55.9952 12.2726 55.3695 12.2726C54.847 12.2726 53.6468 12.8443 53.6468 14.6814C53.6468 16.1205 54.1581 16.8029 54.3924 17.0957C56.0519 16.5769 56.5149 15.1964 56.5149 14.0483ZM38.6671 2.34562C38.5862 1.42525 37.8648 0.798653 36.8887 0.798653C35.8 0.798653 34.7746 1.94122 34.8834 3.37662C34.9531 4.32302 35.5109 5.10115 36.607 5.10115C37.8648 5.10208 38.7824 3.6676 38.6671 2.34562ZM47.9982 5.71566C47.8987 4.11106 47.5101 3.38684 46.6483 3.44634C45.5057 3.51514 44.9777 7.11015 45.211 10.8892C45.3598 13.3547 45.727 13.735 46.0691 13.7108C46.7013 13.6727 48.2176 9.26791 47.9982 5.71566ZM86.0597 11.7557C85.3485 14.7055 83.1926 19.0452 79.9759 19.0452C79.2313 19.0452 77.9111 18.7561 77.9111 18.0105C77.9111 17.2063 82.9639 17.0957 82.9639 13.2487C82.9639 11.8161 81.6447 9.80526 79.6924 9.80526C77.1107 9.80526 74.5922 12.6194 74.5922 16.5202C74.5922 20.0176 76.7648 21.1658 78.9449 21.1658C82.7333 21.1658 85.0287 18.0653 86.2326 15.4855C86.809 17.2073 87.1474 21.1658 88.5874 21.1658C89.1592 21.1658 89.5636 20.8785 90.2524 19.3315C91.9695 15.4846 93.6355 11.0668 95.9318 11.0668C96.7899 11.0668 96.2758 12.6194 98.3405 12.6194C99.3139 12.6194 100 11.8161 100 10.8939C100 9.57285 98.797 8.54371 96.9628 8.54371C91.5679 8.54371 90.4244 16.6346 89.5626 16.6346C88.1272 16.6346 88.5865 10.1502 87.5518 10.1502C86.6333 10.1492 86.1824 11.2435 86.0597 11.7557ZM40.1602 18.6399C41.0201 18.6399 42.4992 18.361 43.6631 16.497C42.9975 15.0188 42.5224 12.0318 42.4564 10.9441C42.1143 5.38191 44.2572 0.149742 46.6028 0.00471453C48.3226 -0.0994081 49.6985 1.52844 49.8566 4.16591C50.2796 11.0966 47.9712 13.9897 46.8156 16.4858C47.0109 17.4536 48.6527 19.101 50.2015 19.101C50.7732 19.101 51.4649 18.8137 51.6388 18.5813C51.5235 18.1825 51.4063 17.6665 51.4063 16.9181C51.4063 12.902 53.989 9.5152 56.2276 9.5152C58.006 9.5152 59.0389 11.8673 59.0389 13.4198C59.0389 15.2531 57.4882 16.748 55.1947 18.1825C55.5982 18.5813 56.3401 18.8714 56.9741 18.8714C60.2475 18.8714 61.9599 14.911 63.228 11.2946C63.4567 10.6048 63.8611 9.63141 64.6625 9.63141C66.0393 9.63141 66.6157 18.6975 68.9045 18.6975C69.8835 18.6975 70.6848 16.6876 70.6848 15.1425C70.6848 13.9934 70.2832 13.8781 70.2832 12.214C70.2832 10.3798 71.2594 8.8319 72.5823 8.8319C73.3846 8.8319 73.6746 9.63141 73.6746 10.6048C73.6746 14.2779 71.0316 21.1072 67.1354 21.1072C64.2041 21.1072 64.4328 16.0573 63.4009 16.0573C62.2481 16.0573 60.6416 21.1639 54.967 21.1639C54.0447 21.1639 53.0714 20.7056 52.27 19.7852C50.895 20.7056 49.7441 21.1072 48.424 21.1072C46.3034 21.1072 45.383 18.9262 44.5249 18.9262C43.4902 18.9262 42.3458 21.1639 38.8995 21.1639C36.1459 21.1639 35.6866 17.4955 34.7132 17.4955C33.8505 17.4955 32.5313 21.1639 31.0978 21.1639C28.6844 21.1639 28.173 14.7966 26.046 14.7966C24.3828 14.7966 19.1255 21.2634 17.6985 21.1156C17.1249 21.0561 16.8832 20.6275 16.9436 20.053C17.0245 19.259 17.7078 17.1338 17.9848 16.1288C18.4487 14.3839 18.8745 12.4715 19.1125 11.8617C19.3487 11.2462 19.9855 10.8074 20.4968 10.8549C20.7543 10.879 20.8315 11.3597 20.9114 11.7566C21.2015 13.1753 21.6059 14.6219 22.0623 14.6219C22.8684 14.6219 25.53 9.51428 27.0788 9.51428C28.9753 9.51428 29.2022 17.5494 31.7829 17.5494C32.6457 17.5494 33.2788 16.5184 33.8505 15.2522C33.9091 13.126 34.4827 10.0916 36.2035 10.0916C37.4093 10.0916 37.9838 12.7858 37.1202 15.1415C37.1183 17.951 38.9525 18.6399 40.1602 18.6399Z" fill="white"/>
</svg>
