<svg width="48" height="48" viewBox="0 0 48 48" fill="none" xmlns="http://www.w3.org/2000/svg">
<path d="M17.65 24L26.2 32.6L28.25 30.5L21.75 24L28.25 17.5L26.2 15.45L17.65 24ZM4.25 24C4.25 21.3 4.775 18.75 5.825 16.35C6.875 13.95 8.29167 11.8583 10.075 10.075C11.8583 8.29167 13.95 6.875 16.35 5.825C18.75 4.775 21.3 4.25 24 4.25C26.7333 4.25 29.3 4.775 31.7 5.825C34.1 6.875 36.1917 8.29167 37.975 10.075C39.7583 11.8583 41.1667 13.95 42.2 16.35C43.2333 18.75 43.75 21.3 43.75 24C43.75 26.7333 43.2333 29.3 42.2 31.7C41.1667 34.1 39.7583 36.1917 37.975 37.975C36.1917 39.7583 34.1 41.1667 31.7 42.2C29.3 43.2333 26.7333 43.75 24 43.75C21.3 43.75 18.75 43.2333 16.35 42.2C13.95 41.1667 11.8583 39.7583 10.075 37.975C8.29167 36.1917 6.875 34.1 5.825 31.7C4.775 29.3 4.25 26.7333 4.25 24Z" fill="black" fill-opacity="0.45"/>
<path fill-rule="evenodd" clip-rule="evenodd" d="M26.2 32.5999L17.65 24L26.2 15.45L28.25 17.5L21.75 24L28.25 30.5L26.2 32.5999Z" fill="#FDFCFC"/>
</svg>
