<svg width="48" height="48" viewBox="0 0 48 48" fill="none" xmlns="http://www.w3.org/2000/svg">
<path d="M30.35 24L21.8 15.4L19.75 17.5L26.25 24L19.75 30.5L21.8 32.55L30.35 24ZM43.75 24C43.75 26.7 43.225 29.25 42.175 31.65C41.125 34.05 39.7083 36.1417 37.925 37.925C36.1417 39.7083 34.05 41.125 31.65 42.175C29.25 43.225 26.7 43.75 24 43.75C21.2667 43.75 18.7 43.225 16.3 42.175C13.9 41.125 11.8083 39.7083 10.025 37.925C8.24167 36.1417 6.83333 34.05 5.8 31.65C4.76667 29.25 4.25 26.7 4.25 24C4.25 21.2667 4.76667 18.7 5.8 16.3C6.83333 13.9 8.24167 11.8083 10.025 10.025C11.8083 8.24167 13.9 6.83333 16.3 5.8C18.7 4.76667 21.2667 4.25 24 4.25C26.7 4.25 29.25 4.76667 31.65 5.8C34.05 6.83333 36.1417 8.24167 37.925 10.025C39.7083 11.8083 41.125 13.9 42.175 16.3C43.225 18.7 43.75 21.2667 43.75 24Z" fill="black" fill-opacity="0.45"/>
<path fillRule="evenodd" clipRule="evenodd" d="M21.8 15.4001L30.35 24L21.8 32.55L19.75 30.5L26.25 24L19.75 17.5L21.8 15.4001Z" fill="#FDFCFC"/>
</svg>
