<svg width="132" height="163" viewBox="0 0 132 163" fill="none" xmlns="http://www.w3.org/2000/svg">
<g clipPath="url(#clip0_6_665)">
<path d="M36.4067 154.096H33.5083L33.4927 152.666H36.0239C36.451 152.666 36.813 152.604 37.1099 152.479C37.4119 152.349 37.6411 152.164 37.7974 151.924C37.9536 151.679 38.0317 151.385 38.0317 151.041C38.0317 150.661 37.9588 150.351 37.813 150.112C37.6672 149.872 37.4432 149.698 37.1411 149.588C36.8442 149.479 36.464 149.424 36.0005 149.424H34.1021V159.237H32.1411V147.862H36.0005C36.6255 147.862 37.1828 147.921 37.6724 148.041C38.1672 148.161 38.5864 148.349 38.9302 148.604C39.2791 148.854 39.5422 149.171 39.7192 149.557C39.9015 149.942 39.9927 150.401 39.9927 150.932C39.9927 151.401 39.8807 151.83 39.6567 152.221C39.4328 152.606 39.1021 152.921 38.6646 153.166C38.2271 153.411 37.6828 153.557 37.0317 153.604L36.4067 154.096ZM36.3208 159.237H32.8911L33.7739 157.682H36.3208C36.7635 157.682 37.1333 157.609 37.4302 157.463C37.7271 157.312 37.9484 157.106 38.0942 156.846C38.2453 156.58 38.3208 156.27 38.3208 155.916C38.3208 155.546 38.2557 155.226 38.1255 154.955C37.9953 154.679 37.7896 154.468 37.5083 154.323C37.2271 154.171 36.8599 154.096 36.4067 154.096H34.2036L34.2192 152.666H37.0864L37.5317 153.205C38.1567 153.226 38.6698 153.364 39.0708 153.619C39.4771 153.875 39.7791 154.205 39.9771 154.612C40.175 155.018 40.2739 155.455 40.2739 155.924C40.2739 156.648 40.1151 157.255 39.7974 157.744C39.4849 158.234 39.0343 158.606 38.4458 158.862C37.8573 159.112 37.1489 159.237 36.3208 159.237ZM41.7036 155.104V154.924C41.7036 154.315 41.7922 153.75 41.9692 153.229C42.1463 152.703 42.4015 152.247 42.7349 151.862C43.0734 151.471 43.4849 151.169 43.9692 150.955C44.4588 150.737 45.0109 150.627 45.6255 150.627C46.2453 150.627 46.7974 150.737 47.2817 150.955C47.7713 151.169 48.1854 151.471 48.5239 151.862C48.8625 152.247 49.1203 152.703 49.2974 153.229C49.4744 153.75 49.563 154.315 49.563 154.924V155.104C49.563 155.713 49.4744 156.278 49.2974 156.799C49.1203 157.32 48.8625 157.776 48.5239 158.166C48.1854 158.552 47.7739 158.854 47.2896 159.073C46.8052 159.286 46.2557 159.393 45.6411 159.393C45.0213 159.393 44.4666 159.286 43.9771 159.073C43.4927 158.854 43.0812 158.552 42.7427 158.166C42.4041 157.776 42.1463 157.32 41.9692 156.799C41.7922 156.278 41.7036 155.713 41.7036 155.104ZM43.5864 154.924V155.104C43.5864 155.484 43.6255 155.843 43.7036 156.182C43.7817 156.52 43.9041 156.817 44.0708 157.073C44.2375 157.328 44.451 157.528 44.7114 157.674C44.9718 157.82 45.2817 157.893 45.6411 157.893C45.9901 157.893 46.2922 157.82 46.5474 157.674C46.8078 157.528 47.0213 157.328 47.188 157.073C47.3547 156.817 47.4771 156.52 47.5552 156.182C47.6385 155.843 47.6802 155.484 47.6802 155.104V154.924C47.6802 154.549 47.6385 154.195 47.5552 153.862C47.4771 153.523 47.3521 153.224 47.1802 152.963C47.0135 152.703 46.8 152.5 46.5396 152.354C46.2843 152.203 45.9797 152.127 45.6255 152.127C45.2713 152.127 44.964 152.203 44.7036 152.354C44.4484 152.5 44.2375 152.703 44.0708 152.963C43.9041 153.224 43.7817 153.523 43.7036 153.862C43.6255 154.195 43.5864 154.549 43.5864 154.924ZM50.7817 155.104V154.924C50.7817 154.315 50.8703 153.75 51.0474 153.229C51.2244 152.703 51.4797 152.247 51.813 151.862C52.1515 151.471 52.563 151.169 53.0474 150.955C53.5369 150.737 54.089 150.627 54.7036 150.627C55.3234 150.627 55.8755 150.737 56.3599 150.955C56.8494 151.169 57.2635 151.471 57.6021 151.862C57.9406 152.247 58.1984 152.703 58.3755 153.229C58.5526 153.75 58.6411 154.315 58.6411 154.924V155.104C58.6411 155.713 58.5526 156.278 58.3755 156.799C58.1984 157.32 57.9406 157.776 57.6021 158.166C57.2635 158.552 56.8521 158.854 56.3677 159.073C55.8833 159.286 55.3338 159.393 54.7192 159.393C54.0994 159.393 53.5448 159.286 53.0552 159.073C52.5708 158.854 52.1593 158.552 51.8208 158.166C51.4823 157.776 51.2244 157.32 51.0474 156.799C50.8703 156.278 50.7817 155.713 50.7817 155.104ZM52.6646 154.924V155.104C52.6646 155.484 52.7036 155.843 52.7817 156.182C52.8599 156.52 52.9823 156.817 53.1489 157.073C53.3156 157.328 53.5291 157.528 53.7896 157.674C54.05 157.82 54.3599 157.893 54.7192 157.893C55.0682 157.893 55.3703 157.82 55.6255 157.674C55.8859 157.528 56.0994 157.328 56.2661 157.073C56.4328 156.817 56.5552 156.52 56.6333 156.182C56.7166 155.843 56.7583 155.484 56.7583 155.104V154.924C56.7583 154.549 56.7166 154.195 56.6333 153.862C56.5552 153.523 56.4302 153.224 56.2583 152.963C56.0916 152.703 55.8781 152.5 55.6177 152.354C55.3625 152.203 55.0578 152.127 54.7036 152.127C54.3494 152.127 54.0422 152.203 53.7817 152.354C53.5265 152.5 53.3156 152.703 53.1489 152.963C52.9823 153.224 52.8599 153.523 52.7817 153.862C52.7036 154.195 52.6646 154.549 52.6646 154.924ZM64.0942 150.783V152.158H59.3286V150.783H64.0942ZM60.7036 148.713H62.5864V156.901C62.5864 157.161 62.6229 157.362 62.6958 157.502C62.7739 157.638 62.8807 157.729 63.0161 157.776C63.1515 157.823 63.3104 157.846 63.4927 157.846C63.6229 157.846 63.7479 157.838 63.8677 157.823C63.9875 157.807 64.0838 157.791 64.1567 157.776L64.1646 159.213C64.0083 159.26 63.826 159.302 63.6177 159.338C63.4146 159.375 63.1802 159.393 62.9146 159.393C62.4823 159.393 62.0994 159.317 61.7661 159.166C61.4328 159.01 61.1724 158.757 60.9849 158.408C60.7974 158.059 60.7036 157.596 60.7036 157.018V148.713ZM70.2896 156.948C70.2896 156.76 70.2427 156.591 70.1489 156.44C70.0552 156.283 69.8755 156.143 69.6099 156.018C69.3494 155.893 68.964 155.778 68.4536 155.674C68.0057 155.575 67.5942 155.458 67.2192 155.323C66.8494 155.182 66.5317 155.013 66.2661 154.815C66.0005 154.617 65.7948 154.382 65.6489 154.112C65.5031 153.841 65.4302 153.528 65.4302 153.174C65.4302 152.83 65.5057 152.505 65.6567 152.198C65.8078 151.89 66.0239 151.619 66.3052 151.385C66.5864 151.151 66.9276 150.966 67.3286 150.83C67.7349 150.695 68.188 150.627 68.688 150.627C69.3963 150.627 70.0031 150.747 70.5083 150.987C71.0187 151.221 71.4093 151.541 71.6802 151.948C71.951 152.349 72.0864 152.802 72.0864 153.307H70.2036C70.2036 153.083 70.1463 152.875 70.0317 152.682C69.9224 152.484 69.7557 152.325 69.5317 152.205C69.3078 152.08 69.0265 152.018 68.688 152.018C68.3651 152.018 68.0968 152.07 67.8833 152.174C67.675 152.273 67.5187 152.403 67.4146 152.565C67.3156 152.726 67.2661 152.903 67.2661 153.096C67.2661 153.237 67.2922 153.364 67.3442 153.479C67.4015 153.588 67.4953 153.69 67.6255 153.783C67.7557 153.872 67.9328 153.955 68.1567 154.033C68.3859 154.112 68.6724 154.187 69.0161 154.26C69.6619 154.395 70.2166 154.57 70.6802 154.783C71.1489 154.992 71.5083 155.263 71.7583 155.596C72.0083 155.924 72.1333 156.341 72.1333 156.846C72.1333 157.221 72.0526 157.565 71.8911 157.877C71.7349 158.184 71.5057 158.453 71.2036 158.682C70.9015 158.906 70.5396 159.08 70.1177 159.205C69.701 159.33 69.2323 159.393 68.7114 159.393C67.9458 159.393 67.2974 159.257 66.7661 158.987C66.2349 158.711 65.8312 158.359 65.5552 157.932C65.2843 157.5 65.1489 157.052 65.1489 156.588H66.9692C66.9901 156.937 67.0864 157.216 67.2583 157.424C67.4354 157.627 67.6541 157.776 67.9146 157.869C68.1802 157.958 68.4536 158.002 68.7349 158.002C69.0734 158.002 69.3573 157.958 69.5864 157.869C69.8156 157.776 69.9901 157.651 70.1099 157.494C70.2297 157.333 70.2896 157.151 70.2896 156.948ZM77.6567 150.783V152.158H72.8911V150.783H77.6567ZM74.2661 148.713H76.1489V156.901C76.1489 157.161 76.1854 157.362 76.2583 157.502C76.3364 157.638 76.4432 157.729 76.5786 157.776C76.714 157.823 76.8729 157.846 77.0552 157.846C77.1854 157.846 77.3104 157.838 77.4302 157.823C77.55 157.807 77.6463 157.791 77.7192 157.776L77.7271 159.213C77.5708 159.26 77.3885 159.302 77.1802 159.338C76.9771 159.375 76.7427 159.393 76.4771 159.393C76.0448 159.393 75.6619 159.317 75.3286 159.166C74.9953 159.01 74.7349 158.757 74.5474 158.408C74.3599 158.059 74.2661 157.596 74.2661 157.018V148.713ZM81.0005 152.393V159.237H79.1177V150.783H80.9146L81.0005 152.393ZM83.5864 150.729L83.5708 152.479C83.4562 152.458 83.3312 152.442 83.1958 152.432C83.0656 152.421 82.9354 152.416 82.8052 152.416C82.4823 152.416 82.1984 152.463 81.9536 152.557C81.7088 152.645 81.5031 152.776 81.3364 152.948C81.175 153.114 81.05 153.317 80.9614 153.557C80.8729 153.796 80.8208 154.065 80.8052 154.362L80.3755 154.393C80.3755 153.862 80.4276 153.369 80.5317 152.916C80.6359 152.463 80.7922 152.065 81.0005 151.721C81.214 151.377 81.4797 151.109 81.7974 150.916C82.1203 150.724 82.4927 150.627 82.9146 150.627C83.0291 150.627 83.1515 150.638 83.2817 150.658C83.4172 150.679 83.5187 150.703 83.5864 150.729ZM89.2505 157.541V153.51C89.2505 153.208 89.1958 152.948 89.0864 152.729C88.9771 152.51 88.8104 152.341 88.5864 152.221C88.3677 152.101 88.0916 152.041 87.7583 152.041C87.451 152.041 87.1854 152.093 86.9614 152.198C86.7375 152.302 86.563 152.442 86.438 152.619C86.313 152.796 86.2505 152.997 86.2505 153.221H84.3755C84.3755 152.888 84.4562 152.565 84.6177 152.252C84.7791 151.94 85.0135 151.661 85.3208 151.416C85.6281 151.171 85.9953 150.979 86.4224 150.838C86.8494 150.698 87.3286 150.627 87.8599 150.627C88.4953 150.627 89.0578 150.734 89.5474 150.948C90.0422 151.161 90.4302 151.484 90.7114 151.916C90.9979 152.343 91.1411 152.88 91.1411 153.526V157.283C91.1411 157.669 91.1672 158.015 91.2192 158.323C91.2765 158.625 91.3573 158.888 91.4614 159.112V159.237H89.5317C89.4432 159.033 89.3729 158.776 89.3208 158.463C89.2739 158.145 89.2505 157.838 89.2505 157.541ZM89.5239 154.096L89.5396 155.26H88.188C87.839 155.26 87.5317 155.294 87.2661 155.362C87.0005 155.424 86.7791 155.518 86.6021 155.643C86.425 155.768 86.2922 155.919 86.2036 156.096C86.1151 156.273 86.0708 156.474 86.0708 156.698C86.0708 156.921 86.1229 157.127 86.2271 157.315C86.3312 157.497 86.4823 157.64 86.6802 157.744C86.8833 157.849 87.1281 157.901 87.4146 157.901C87.8 157.901 88.1359 157.823 88.4224 157.666C88.714 157.505 88.9432 157.309 89.1099 157.08C89.2765 156.846 89.3651 156.625 89.3755 156.416L89.9849 157.252C89.9224 157.466 89.8156 157.695 89.6646 157.94C89.5135 158.184 89.3156 158.419 89.0708 158.643C88.8312 158.862 88.5422 159.041 88.2036 159.182C87.8703 159.323 87.4849 159.393 87.0474 159.393C86.4953 159.393 86.0031 159.283 85.5708 159.065C85.1385 158.841 84.8 158.541 84.5552 158.166C84.3104 157.786 84.188 157.356 84.188 156.877C84.188 156.429 84.2713 156.033 84.438 155.69C84.6099 155.341 84.8599 155.049 85.188 154.815C85.5213 154.58 85.9276 154.403 86.4067 154.283C86.8859 154.158 87.4328 154.096 88.0474 154.096H89.5239ZM95.0005 152.408V162.487H93.1177V150.783H94.8521L95.0005 152.408ZM100.508 154.932V155.096C100.508 155.711 100.435 156.281 100.29 156.807C100.149 157.328 99.938 157.783 99.6567 158.174C99.3807 158.559 99.0396 158.859 98.6333 159.073C98.2271 159.286 97.7583 159.393 97.2271 159.393C96.701 159.393 96.2401 159.296 95.8442 159.104C95.4536 158.906 95.1229 158.627 94.8521 158.268C94.5812 157.908 94.3625 157.487 94.1958 157.002C94.0343 156.513 93.9198 155.976 93.8521 155.393V154.76C93.9198 154.14 94.0343 153.578 94.1958 153.073C94.3625 152.567 94.5812 152.132 94.8521 151.768C95.1229 151.403 95.4536 151.122 95.8442 150.924C96.2349 150.726 96.6906 150.627 97.2114 150.627C97.7427 150.627 98.214 150.731 98.6255 150.94C99.0369 151.143 99.3833 151.434 99.6646 151.815C99.9458 152.19 100.157 152.643 100.297 153.174C100.438 153.7 100.508 154.286 100.508 154.932ZM98.6255 155.096V154.932C98.6255 154.541 98.589 154.179 98.5161 153.846C98.4432 153.507 98.3286 153.211 98.1724 152.955C98.0161 152.7 97.8156 152.502 97.5708 152.362C97.3312 152.216 97.0422 152.143 96.7036 152.143C96.3703 152.143 96.0838 152.2 95.8442 152.315C95.6047 152.424 95.4041 152.578 95.2427 152.776C95.0812 152.974 94.9562 153.205 94.8677 153.471C94.7791 153.731 94.7166 154.015 94.6802 154.323V155.838C94.7427 156.213 94.8494 156.557 95.0005 156.869C95.1515 157.182 95.3651 157.432 95.6411 157.619C95.9224 157.802 96.2817 157.893 96.7192 157.893C97.0578 157.893 97.3468 157.82 97.5864 157.674C97.826 157.528 98.0213 157.328 98.1724 157.073C98.3286 156.812 98.4432 156.513 98.5161 156.174C98.589 155.836 98.6255 155.476 98.6255 155.096Z" fill="white"/>
<path d="M66.485 132.279C53.4254 132.282 40.6584 128.411 29.7986 121.158C18.9388 113.904 10.4739 103.593 5.47451 91.528C0.475113 79.4632 -0.834245 66.1869 1.71202 53.378C4.25829 40.569 10.5458 28.8028 19.7794 19.5674C29.0131 10.3321 40.778 4.04236 53.5864 1.49366C66.3949 -1.05505 79.6714 0.251755 91.7371 5.24886C103.803 10.246 114.116 18.7089 121.371 29.5673C128.627 40.4258 132.5 53.192 132.5 66.2516C132.48 83.7549 125.519 100.536 113.143 112.914C100.768 125.291 83.9883 132.256 66.485 132.279V132.279ZM66.485 4.83703C54.3348 4.83455 42.4567 8.43534 32.3532 15.1841C22.2496 21.9328 14.3744 31.5263 9.72354 42.7512C5.07271 53.9761 3.85519 66.328 6.22497 78.2449C8.59475 90.1618 14.4454 101.108 23.0369 109.7C31.6284 118.291 42.5748 124.142 54.4916 126.512C66.4085 128.881 78.7605 127.664 89.9854 123.013C101.21 118.362 110.804 110.487 117.552 100.383C124.301 90.2798 127.902 78.4018 127.9 66.2516C127.88 49.9695 121.403 34.3601 109.89 22.847C98.3764 11.3339 82.767 4.85699 66.485 4.83703V4.83703Z" fill="white"/>
<path d="M93.6729 101.572H39.2973L39.1464 101.471V101.572H38.4551H38.5305C38.4425 101.396 38.2665 101.383 38.1031 101.321C36.2522 100.727 34.6444 99.5479 33.5221 97.9608C32.3998 96.3737 31.8239 94.4648 31.8813 92.5219C31.9673 89.7883 31.8959 87.0519 31.6676 84.3265C31.4792 81.2381 30.8267 78.1957 29.7319 75.3016C28.3241 71.8199 26.1747 69.1425 22.1902 68.6523V64.1525C23.9718 63.9675 25.6422 63.1985 26.9414 61.9653C28.5572 60.2896 29.7206 58.2309 30.3226 55.9823C31.7194 51.1014 32.247 46.0128 31.8813 40.9492C31.6876 38.8673 32.2029 36.781 33.3437 35.0288C34.4845 33.2765 36.1838 31.9611 38.166 31.2958C38.3294 31.2958 38.5557 31.2958 38.4049 30.9564H39.0962V31.0318C39.1967 31.0318 39.247 31.0318 39.2973 30.9564H93.6729C93.6729 30.9564 93.7483 31.057 93.7986 31.0696C93.8488 31.0821 93.8991 31.0695 93.7986 30.9564H94.49C94.49 30.9564 94.4899 30.9564 94.427 31.0193C94.3642 31.0821 94.427 31.0193 94.427 31.0193C94.427 31.0193 94.6785 31.2078 94.8544 31.2707C96.7042 31.8646 98.3104 33.0442 99.4306 34.6315C100.551 36.2188 101.124 38.1275 101.064 40.0693C100.99 42.8322 101.062 45.5972 101.277 48.3526C101.472 51.4682 102.138 54.5364 103.251 57.4529C104.646 60.897 106.808 63.5365 110.793 64.0142V68.5141C108.999 68.7356 107.316 69.4994 105.968 70.7033C104.62 71.9073 103.672 73.494 103.251 75.2513C101.423 80.4931 100.699 86.0566 101.127 91.5917C101.313 93.6708 100.794 95.7521 99.6542 97.5007C98.5143 99.2494 96.8193 100.564 94.8419 101.233C94.6785 101.233 94.4271 101.232 94.6156 101.559H93.9243V101.459L93.6729 101.572ZM72.8704 65.1203L73.6497 64.8438C75.1938 64.433 76.5815 63.5738 77.6375 62.3746C78.6935 61.1755 79.3703 59.6903 79.5825 58.1066C79.902 56.5106 79.7501 54.8561 79.1452 53.3451C78.5403 51.834 77.5087 50.5317 76.1762 49.597C73.7555 47.9699 70.8671 47.1837 67.9557 47.3596C63.1918 47.3596 58.428 47.3596 53.6768 47.3596C53.0483 47.3596 52.8346 47.4979 52.8346 48.1641C52.8346 60.214 52.8346 72.2724 52.8346 84.3391C52.8346 84.9927 53.0231 85.1435 53.6642 85.1435C58.692 85.1435 63.6444 85.1435 68.6345 85.1435C69.9438 85.1584 71.2506 85.0277 72.531 84.7539C74.6772 84.3652 76.6838 83.4204 78.3507 82.0137C79.4782 81.013 80.3546 79.7613 80.9092 78.3595C81.4638 76.9578 81.6809 75.4453 81.5433 73.9441C81.5254 72.6497 81.2154 71.376 80.6365 70.2181C80.0576 69.0603 79.2246 68.0481 78.1999 67.2571C76.6669 66.0932 74.8465 65.3676 72.9332 65.158L72.8704 65.1203Z" fill="white"/>
<path d="M59.1067 74.0447C59.1067 72.2849 59.1067 70.5252 59.1067 68.7655C59.1067 68.1998 59.1822 67.9736 59.8358 67.9736C62.4879 67.9736 65.14 67.9736 67.7922 67.9736C69.3426 67.9595 70.8777 68.2811 72.2921 68.9163C73.2357 69.4064 74.0267 70.1461 74.5787 71.0549C75.1307 71.9636 75.4227 73.0065 75.4227 74.0698C75.4227 75.133 75.1307 76.176 74.5787 77.0847C74.0267 77.9935 73.2357 78.7332 72.2921 79.2233C70.619 79.9211 68.8108 80.2347 67.0004 80.1409C64.6248 80.1409 62.2617 80.1409 59.8986 80.1409C59.2701 80.1409 59.1445 79.9272 59.1445 79.349C59.1068 77.6144 59.0313 75.8295 59.1067 74.0447Z" fill="white"/>
<path d="M59.1067 57.7672C59.1067 56.1583 59.1067 54.5369 59.1067 52.928C59.1067 52.4378 59.245 52.2744 59.7352 52.2869C62.6513 52.3498 65.5674 52.1361 68.4584 52.4252C69.4314 52.416 70.3872 52.6812 71.2164 53.1903C72.0456 53.6994 72.7146 54.4318 73.1468 55.3036C73.5929 56.1972 73.7778 57.1986 73.6799 58.1925C73.5821 59.1865 73.2055 60.1327 72.5937 60.9222C72.0934 61.5381 71.4758 62.0485 70.7767 62.4239C70.0777 62.7993 69.311 63.0323 68.5212 63.1092C65.5374 63.3732 62.5399 63.4487 59.5466 63.3355C59.0187 63.3355 59.1193 62.9961 59.1193 62.6944L59.1067 57.7672Z" fill="white"/>
</g>
<defs>
<clipPath id="clip0_6_665">
<rect width="132" height="163" fill="white"/>
</clipPath>
</defs>
</svg>
