<svg width="106" height="106" viewBox="0 0 106 106" fill="none" xmlns="http://www.w3.org/2000/svg">
<g clipPath="url(#clip0_226_543)">
<path d="M52.52 105.04C42.1326 105.04 31.9783 101.96 23.3415 96.1888C14.7046 90.4178 7.97299 82.2153 3.99787 72.6186C0.0227585 63.0218 -1.01732 52.4618 1.00918 42.2739C3.03568 32.086 8.03772 22.7278 15.3828 15.3828C22.7278 8.03772 32.086 3.03567 42.2739 1.00918C52.4618 -1.01732 63.0218 0.0227697 72.6186 3.99788C82.2153 7.973 90.4178 14.7046 96.1888 23.3415C101.96 31.9784 105.04 42.1326 105.04 52.52C105.024 66.4443 99.4857 79.7938 89.6397 89.6397C79.7938 99.4857 66.4443 105.024 52.52 105.04ZM52.52 3.65004C42.8545 3.65004 33.4059 6.51622 25.3693 11.8861C17.3327 17.256 11.0689 24.8885 7.37003 33.8183C3.67117 42.7481 2.70338 52.5742 4.58904 62.0541C6.4747 71.5339 11.1291 80.2418 17.9637 87.0764C24.7983 93.911 33.5061 98.5654 42.986 100.451C52.4658 102.337 62.2919 101.369 71.2218 97.67C80.1516 93.9712 87.784 87.7074 93.1539 79.6707C98.5238 71.6341 101.39 62.1856 101.39 52.52C101.377 39.563 96.2237 27.1404 87.0617 17.9784C77.8997 8.81632 65.4771 3.66328 52.52 3.65004V3.65004Z" fill="white"/>
<path d="M20.1379 69.2582C20.1379 58.0036 20.1379 46.7867 20.1379 35.5321C20.3268 35.5321 20.4778 35.5321 20.6667 35.5321C39.7769 35.5321 58.9249 35.5321 78.0351 35.5321C80.7166 35.5321 83.398 35.5321 86.0795 35.5321C86.646 35.5321 87.137 35.7209 87.5524 36.1364C88.9876 37.5715 90.4605 39.0067 91.8957 40.4796C92.3111 40.8951 92.4999 41.386 92.4999 41.9903C92.4999 48.9395 92.4999 55.8886 92.4999 62.8C92.4999 63.4043 92.2733 63.8953 91.8579 64.3107C90.4227 65.7459 88.9876 67.181 87.5524 68.6162C87.0992 69.0694 86.5327 69.2582 85.9284 69.2582C64.2123 69.2582 42.4961 69.2582 20.7422 69.2582C20.5534 69.2582 20.3645 69.2582 20.1379 69.2582ZM43.1004 39.7998C36.2645 39.762 30.5995 45.3893 30.5239 52.263C30.4862 59.1744 36.189 64.9528 43.1382 64.9905C50.0496 65.0283 55.6769 59.401 55.7524 52.3763C55.7902 45.5782 50.0496 39.8753 43.1004 39.7998ZM86.1928 52.4141C86.2683 45.767 80.5655 39.9509 73.9562 39.7998C66.9693 39.6487 61.0776 45.2005 61.0021 52.263C60.9265 59.0611 66.6294 64.915 73.352 64.9905C80.4522 65.1038 86.1173 59.5521 86.1928 52.4141Z" fill="white"/>
<path d="M17.9097 32.3219C16.5879 32.3219 15.3038 32.3219 14.0197 32.3219C13.3021 32.3219 13 32.133 13 31.6798C13 31.1888 13.3021 31 14.0575 31C15.4926 31 16.9278 31 18.3629 31C19.0805 31 19.2694 31.1888 19.2694 31.9442C19.2694 42.3679 19.2694 52.7917 19.2694 63.2532C19.2694 66.8033 19.2694 70.3157 19.2694 73.8658C19.2694 74.0546 19.2694 74.2812 19.2694 74.4701C19.2316 74.8477 18.9672 75.0743 18.6273 75.0743C18.2874 75.0743 18.0608 74.8855 17.9853 74.5456C17.9475 74.3945 17.9475 74.2435 17.9475 74.0924C17.9475 60.4207 17.9475 46.7489 17.9475 33.0772C17.9097 32.8128 17.9097 32.5862 17.9097 32.3219Z" fill="white"/>
<path d="M35.1692 75.1121C35.0937 75.0365 34.9426 74.961 34.9426 74.8477C34.9049 74.5078 34.9049 74.2057 34.9426 73.8658C34.9426 73.7902 35.0559 73.7147 35.1315 73.6392C35.1692 73.7147 35.2825 73.7902 35.2825 73.8658C35.2825 74.2434 35.2825 74.6211 35.2825 74.9988C35.2448 75.0743 35.207 75.0743 35.1692 75.1121Z" fill="white"/>
<path d="M46.5374 75.1121C46.4619 75.0366 46.3108 74.961 46.3108 74.8855C46.273 74.5834 46.273 74.2435 46.3108 73.9413C46.3108 73.8658 46.4241 73.7903 46.4996 73.7147C46.5374 73.7903 46.6507 73.8658 46.6507 73.9413C46.6507 74.319 46.6507 74.6967 46.6507 75.0743C46.6129 75.0743 46.5752 75.0743 46.5374 75.1121Z" fill="white"/>
<path d="M48.6145 73.6014C49.181 73.828 48.8789 74.2813 48.9166 74.5834C48.9544 74.9611 48.9166 74.9988 48.6145 75.0366C48.6145 74.6212 48.6145 74.1679 48.6145 73.6014Z" fill="white"/>
<path d="M36.6799 75.1498C36.6799 74.6589 36.6799 74.2434 36.6799 73.8658C36.6799 73.7902 36.7932 73.7147 36.831 73.6392C36.8688 73.7147 36.9821 73.7525 36.9821 73.828C36.9821 74.1679 36.9821 74.5456 36.9821 74.8855C37.0198 74.961 36.8688 75.0365 36.6799 75.1498Z" fill="white"/>
<path d="M37.6243 74.3568C37.6243 74.5079 37.6243 74.6967 37.6243 74.8478C37.6243 74.9233 37.511 74.9988 37.4733 75.0744C37.3977 74.9988 37.2844 74.9611 37.2844 74.8855C37.2467 74.5456 37.2467 74.2435 37.2844 73.9036C37.2844 73.8281 37.3977 73.7525 37.4733 73.677C37.511 73.7525 37.6243 73.8281 37.6243 73.9036C37.6243 74.0547 37.6243 74.2057 37.6243 74.3568Z" fill="white"/>
<path d="M38.1907 74.3946C38.1907 74.5456 38.1907 74.6967 38.1907 74.8478C38.1907 74.9233 38.0774 74.9988 38.0397 75.0744C37.9641 74.9988 37.8508 74.9611 37.8508 74.8855C37.8508 74.5456 37.8508 74.2057 37.8508 73.8658C37.8508 73.7903 37.9641 73.7148 38.0397 73.677C38.0774 73.7525 38.1907 73.8281 38.1907 73.9036C38.1907 74.0547 38.1907 74.2057 38.1907 74.3946Z" fill="white"/>
<path d="M45.7065 75.0366C45.7065 74.6589 45.7065 74.2813 45.7065 73.9036C45.7065 73.8281 45.7821 73.7525 45.8576 73.677C45.9331 73.7525 46.0464 73.8281 46.0464 73.9036C46.0842 74.2057 46.0842 74.5456 46.0464 74.8478C46.0464 74.9233 45.8954 74.9988 45.8198 75.0744C45.7821 75.0744 45.7443 75.0366 45.7065 75.0366Z" fill="white"/>
<path d="M53.0333 74.3946C52.9578 74.6212 52.8445 75.0366 52.8067 75.0366C52.3913 74.9233 52.6556 74.5834 52.6179 74.3568C52.5801 74.2057 52.5801 74.0169 52.6179 73.8658C52.6179 73.7903 52.7312 73.7148 52.8067 73.677C52.8822 73.7525 52.9578 73.8281 52.9578 73.9036C52.9955 74.0547 52.9578 74.2435 52.9578 74.3946C52.9578 74.3946 52.9955 74.3946 53.0333 74.3946Z" fill="white"/>
<path d="M49.1433 74.9989C49.1433 74.6212 49.1433 74.2813 49.1433 73.9036C49.1433 73.8281 49.2566 73.7525 49.3321 73.677C49.3699 73.7525 49.4832 73.8281 49.4832 73.9036C49.4832 74.2435 49.521 74.5456 49.4832 74.8855C49.4832 74.9611 49.3322 75.0366 49.2566 75.1499C49.2189 75.0744 49.1811 75.0366 49.1433 74.9989Z" fill="white"/>
<path d="M57.5277 73.7147C57.5277 74.0924 57.5277 74.4701 57.5277 74.81C57.5277 74.8855 57.4521 74.9611 57.3766 75.0366C57.3011 74.9611 57.1877 74.8855 57.1877 74.81C57.15 74.5079 57.15 74.2057 57.1877 73.8658C57.1877 73.7525 57.3011 73.677 57.3766 73.6014C57.4521 73.677 57.4899 73.677 57.5277 73.7147Z" fill="white"/>
<path d="M41.741 75.0365C41.741 74.5833 41.741 74.1301 41.741 73.5636C42.2697 73.8657 42.0053 74.3189 42.0431 74.6588C42.0809 74.8477 42.1186 75.1498 41.741 75.0365Z" fill="white"/>
<path d="M42.2695 73.6769C42.3828 73.6769 42.4206 73.6769 42.4961 73.6392C42.5339 74.0924 42.5339 74.5456 42.5717 75.0365C42.4584 74.9988 42.3073 74.9232 42.3073 74.8855C42.2695 74.47 42.2695 74.0924 42.2695 73.6769Z" fill="white"/>
<path d="M43.176 74.3945C43.176 74.5834 43.176 74.7722 43.176 74.961C43.176 74.9988 43.0627 75.1121 43.025 75.0743C42.9494 75.0743 42.8361 74.9988 42.8361 74.961C42.8361 74.5834 42.7984 74.2435 42.8361 73.8658C42.8361 73.7903 42.9494 73.7147 42.9872 73.7147C43.025 73.7147 43.1383 73.7903 43.1383 73.8658C43.2138 74.0169 43.176 74.2057 43.176 74.3945Z" fill="white"/>
<path d="M43.7803 73.5636C43.7803 74.0923 43.7803 74.47 43.7803 74.8855C43.7803 74.961 43.667 75.0365 43.6293 75.0365C43.5537 75.0365 43.4404 74.961 43.4404 74.8855C43.4404 74.5078 43.4404 74.1301 43.4404 73.7902C43.4404 73.7524 43.5915 73.6769 43.7803 73.5636Z" fill="white"/>
<path d="M45.1399 73.6392C45.291 73.6769 45.442 73.7147 45.442 73.7525C45.4798 74.1679 45.4798 74.5833 45.4798 74.9988C45.4798 75.0365 45.3287 75.1121 45.3287 75.0743C45.2532 75.0365 45.1777 74.9232 45.1777 74.8477C45.1399 74.47 45.1399 74.0924 45.1399 73.6392Z" fill="white"/>
<path d="M50.0875 73.7147C50.0875 74.0546 50.0875 74.4323 50.0875 74.7722C50.0875 74.8855 49.9742 74.961 49.8986 75.0743C49.8609 74.9988 49.7476 74.8855 49.7476 74.8099C49.7098 74.5078 49.7098 74.2434 49.7476 73.9413C49.7476 73.828 49.8609 73.7525 49.9364 73.6392C49.9742 73.6392 50.0119 73.6769 50.0875 73.7147Z" fill="white"/>
<path d="M53.5242 74.3946C53.5242 74.5456 53.5242 74.6967 53.5242 74.8478C53.5242 74.9233 53.4109 74.9988 53.3732 75.0744C53.2976 74.9988 53.1843 74.9611 53.1843 74.8855C53.1843 74.5456 53.1843 74.2057 53.1843 73.8658C53.1843 73.7903 53.2976 73.7148 53.3732 73.677C53.4109 73.7525 53.5242 73.8281 53.5242 73.9036C53.5242 74.0547 53.5242 74.2057 53.5242 74.3946Z" fill="white"/>
<path d="M51.447 75.1499C51.447 74.6211 51.447 74.2434 51.447 73.828C51.447 73.7525 51.5603 73.6392 51.5981 73.6769C51.6736 73.6769 51.7869 73.7525 51.7869 73.828C51.7869 74.2057 51.7869 74.5833 51.7869 74.9232C51.7869 74.9988 51.6359 75.0366 51.447 75.1499Z" fill="white"/>
<path d="M52.2023 73.6392C52.5422 73.9413 52.3156 74.3567 52.3534 74.7344C52.3534 74.8477 52.2401 74.961 52.2023 75.0743C52.1646 75.0365 52.1268 75.0365 52.0513 74.9988C52.0513 74.5456 52.0513 74.1301 52.0513 73.6769C52.089 73.6769 52.1646 73.6769 52.2023 73.6392Z" fill="white"/>
<path d="M56.0547 75.0366C56.0547 74.6589 56.0547 74.2813 56.0547 73.9036C56.0547 73.8281 56.168 73.7525 56.2058 73.677C56.2813 73.7525 56.3568 73.8281 56.3946 73.9036C56.3946 74.2435 56.4324 74.5456 56.3946 74.8855C56.3946 74.9611 56.2435 75.0744 56.168 75.1499C56.1302 75.0744 56.0925 75.0744 56.0547 75.0366Z" fill="white"/>
<path d="M54.0907 73.7147C54.0907 74.1301 54.0907 74.5833 54.0907 74.9988C54.0529 75.0365 54.0152 75.0743 53.9774 75.0743C53.9019 74.9988 53.7508 74.8855 53.7508 74.8099C53.7886 74.4323 53.562 73.9413 53.9019 73.6392C53.9774 73.6769 54.0152 73.6769 54.0907 73.7147Z" fill="white"/>
<path d="M55.488 75.0366C55.488 74.5834 55.488 74.1679 55.488 73.7147C55.8279 73.7147 55.8279 73.7147 55.8279 74.1302C55.8279 75.0366 55.8279 75.0366 55.488 75.0366Z" fill="white"/>
<path d="M56.7723 75.0744C56.3946 74.81 56.659 74.3568 56.6212 73.9791C56.5835 73.8658 56.7345 73.7147 56.8101 73.6014C56.8478 73.6392 56.8856 73.6392 56.9611 73.677C56.9611 74.1302 56.9611 74.5456 56.9611 74.9988C56.8856 75.0366 56.8478 75.0744 56.7723 75.0744Z" fill="white"/>
<path d="M47.2172 75.1121C47.0661 75.0743 46.915 75.0365 46.915 74.9988C46.915 74.5833 46.915 74.1679 46.915 73.7524C46.915 73.7147 47.0661 73.6392 47.0661 73.6769C47.1416 73.7147 47.1794 73.7902 47.2172 73.8658C47.2172 74.2434 47.2172 74.6211 47.2172 75.1121Z" fill="white"/>
<path d="M40.8721 73.7147C40.8721 74.0924 40.8721 74.4701 40.8721 74.81C40.8721 74.8855 40.7966 74.9611 40.7211 75.0366C40.6455 74.9611 40.5322 74.8855 40.5322 74.81C40.4945 74.5079 40.4945 74.2057 40.5322 73.8658C40.5322 73.7525 40.6455 73.677 40.7211 73.6014C40.7966 73.6392 40.8344 73.677 40.8721 73.7147Z" fill="white"/>
<path d="M50.4652 75.1122C50.3897 74.9611 50.3141 74.8478 50.3141 74.6967C50.2764 73.7525 50.2764 73.7525 50.6163 73.677C50.6163 74.1302 50.6163 74.5834 50.6163 75.0366C50.5785 75.0744 50.5407 75.0744 50.4652 75.1122Z" fill="white"/>
<path d="M40.3057 73.7147C40.3057 74.1679 40.3057 74.6211 40.3057 75.0743C39.777 75.1499 40.0036 74.7344 40.0036 74.5456C39.9658 73.7147 39.9658 73.7147 40.3057 73.7147Z" fill="white"/>
<path d="M55.2992 74.3945C55.2237 74.6211 55.1482 74.8477 55.0726 75.0743C54.695 74.9232 54.9593 74.6211 54.8838 74.3567C54.846 74.2057 54.846 74.0168 54.8838 73.8658C54.8838 73.7902 54.9971 73.7147 55.0349 73.6392C55.0726 73.7147 55.1859 73.7902 55.1859 73.8658C55.2237 74.0168 55.1859 74.2057 55.1859 74.3567C55.2615 74.3945 55.2992 74.3945 55.2992 74.3945Z" fill="white"/>
<path d="M36.1514 75.1121C36.1514 74.5834 36.1514 74.1302 36.1514 73.7147C36.4535 73.7147 36.4913 73.7147 36.4535 74.319C36.4157 74.5456 36.6423 74.961 36.1514 75.1121Z" fill="white"/>
<path d="M44.6868 73.6392C44.7623 73.7147 44.8756 73.7902 44.9134 73.9035C44.9512 74.2057 44.9134 74.5456 44.9134 74.8477C44.9134 74.9232 44.8001 74.9988 44.7623 75.0743C44.6868 74.9988 44.5735 74.961 44.5735 74.8855C44.5735 74.5078 44.5735 74.0924 44.5735 73.7147C44.6113 73.6769 44.649 73.6392 44.6868 73.6392Z" fill="white"/>
<path d="M47.3682 74.3568C47.4437 74.1302 47.557 73.9036 47.6325 73.677C47.6703 73.9036 47.7836 74.168 47.7836 74.3946C47.7458 74.6212 47.9724 74.9611 47.5948 75.1122C47.5192 74.8478 47.4437 74.6212 47.3682 74.3568Z" fill="white"/>
<path d="M35.4714 74.3568C35.547 74.1302 35.6603 73.9036 35.7358 73.677C35.7736 73.9036 35.8869 74.1302 35.8869 74.3568C35.8869 74.5834 35.7736 74.8478 35.698 75.0744C35.6225 74.8478 35.547 74.6212 35.4714 74.3568Z" fill="white"/>
<path d="M38.7196 74.3567C38.7196 74.5078 38.7196 74.6966 38.7196 74.8477C38.7196 74.9232 38.6441 74.961 38.5686 75.0365C38.5308 74.961 38.4175 74.9232 38.4175 74.8477C38.4175 74.5078 38.4175 74.1301 38.4175 73.7902C38.4175 73.7147 38.5308 73.6769 38.5686 73.6392C38.6063 73.7147 38.6819 73.7525 38.6819 73.828C38.7574 74.0168 38.7196 74.2057 38.7196 74.3567Z" fill="white"/>
<path d="M41.1365 74.3568C41.1365 74.2057 41.1365 74.0547 41.1365 73.9036C41.1365 73.8281 41.212 73.7525 41.2875 73.677C41.3631 73.7525 41.4386 73.8281 41.4764 73.9414C41.5141 74.2435 41.4764 74.5456 41.4764 74.8855C41.4764 74.9611 41.3631 75.0366 41.3253 75.1122C41.2875 75.0366 41.1742 74.9611 41.1742 74.8855C41.1365 74.6967 41.1365 74.5079 41.1365 74.3568Z" fill="white"/>
<path d="M48.4257 74.4323C48.3502 74.6589 48.2369 74.8477 48.1613 75.0743C48.1236 74.8477 48.048 74.6211 48.0103 74.4323C47.9725 74.2812 47.9725 74.0924 48.0103 73.9413C48.0103 73.8658 48.0858 73.7903 48.1613 73.7147C48.1991 73.7903 48.3124 73.8658 48.3124 73.9413C48.3502 74.0924 48.3124 74.2812 48.3124 74.4323C48.3502 74.3945 48.3879 74.3945 48.4257 74.4323Z" fill="white"/>
<path d="M50.8049 74.2812C50.8805 74.0546 50.9938 73.8658 51.0693 73.6392C51.1071 73.8658 51.1826 74.0924 51.2204 74.319C51.2581 74.47 51.2581 74.6589 51.2204 74.8099C51.2204 74.8855 51.1071 74.961 51.0693 75.0365C51.0315 74.961 50.9182 74.8855 50.9182 74.8099C50.8805 74.6589 50.9182 74.47 50.9182 74.319C50.8427 74.319 50.8427 74.319 50.8049 74.2812Z" fill="white"/>
<path d="M44.4223 74.4323C44.3467 74.6589 44.2712 74.8478 44.1579 75.0744C44.1201 74.8478 44.0446 74.6212 44.0068 74.4323C43.9691 74.2813 43.9691 74.1302 44.0068 73.9791C44.0068 73.8658 44.0824 73.7903 44.1579 73.677C44.2334 73.7525 44.309 73.8658 44.309 73.9414C44.3467 74.0924 44.309 74.2435 44.309 74.3946C44.3467 74.3946 44.3845 74.3946 44.4223 74.4323Z" fill="white"/>
<path d="M54.2417 74.319C54.3172 74.0924 54.4305 73.9036 54.5061 73.677C54.5438 73.9036 54.6194 74.0924 54.6571 74.319C54.6949 74.4323 54.6949 74.5834 54.6571 74.6967C54.6194 74.8478 54.5438 74.9611 54.4683 75.0744C54.4305 74.9233 54.355 74.81 54.3172 74.6589C54.2795 74.5456 54.3172 74.4323 54.3172 74.3568C54.2795 74.319 54.2795 74.319 54.2417 74.319Z" fill="white"/>
<path d="M46.764 53.9624C48.5013 55.3976 50.5029 55.9263 52.7312 55.7752C52.9956 55.7375 53.2599 55.6997 53.5243 55.6997C54.0153 55.6997 54.3552 56.1151 54.2041 56.6061C53.7131 58.0035 52.9578 59.2498 51.9381 60.3073C51.145 61.1004 49.7853 61.176 48.7656 60.4584C47.0661 59.2876 45.5554 57.9657 44.5735 56.0774C44.6868 57.4748 45.1778 58.7589 46.0086 59.8541C46.5751 60.6094 47.255 61.2515 47.9725 61.8935C48.5768 62.46 48.539 63.0265 47.7837 63.2909C46.6884 63.6308 45.5932 63.9707 44.4602 64.1596C42.8362 64.4239 41.6654 63.5175 41.3633 61.8935C41.0234 59.9296 40.9101 57.9657 41.5521 56.0018C40.7968 56.8705 40.3436 57.8524 40.0414 58.9477C39.7015 60.1185 39.6637 61.327 39.8148 62.5356C39.9281 63.3287 39.4371 63.6686 38.7196 63.4042C37.511 62.951 36.4535 62.2712 35.4716 61.4403C34.4896 60.6094 34.3008 59.1743 35.0184 58.079C36.1892 56.3417 37.5488 54.8311 39.4371 53.8869C39.4371 53.8491 39.3994 53.8113 39.3994 53.7736C38.7951 53.9246 38.1908 54.0379 37.5865 54.2645C36.0003 54.8311 34.7162 55.7752 33.7343 57.1349C33.2055 57.8524 32.4502 57.8524 32.1103 56.8705C31.7326 55.7375 31.3927 54.6422 31.3172 53.4337C31.2416 52.1118 31.9592 51.0166 33.2811 50.7144C35.3583 50.2612 37.4355 50.1479 39.5127 50.79C39.2483 50.6011 38.9839 50.4123 38.7196 50.2612C36.9067 49.166 34.9806 48.8638 32.9034 49.1282C32.2236 49.2037 31.8459 48.7505 32.0725 48.1085C32.5257 46.8999 33.2055 45.7669 34.0742 44.785C34.9428 43.803 36.2647 43.6142 37.3599 44.294C39.135 45.427 40.6834 46.7866 41.6276 48.7128C41.6276 48.7505 41.6654 48.7505 41.7409 48.7505C41.5143 46.9755 40.7968 45.427 39.626 44.1429C39.2105 43.6897 38.7196 43.2743 38.2663 42.8966C37.6998 42.4434 37.7754 41.8391 38.4174 41.5748C39.6637 41.0083 40.9478 40.7061 42.3074 40.6306C43.4405 40.5928 44.5735 41.4615 44.8001 42.5945C45.2155 44.6717 45.3666 46.7489 44.7245 48.8261C44.8001 48.7505 44.8378 48.675 44.8756 48.5995C46.1597 46.8244 46.6507 44.8227 46.4241 42.6322C46.3863 42.2168 46.1975 41.8014 46.6129 41.4615C47.0283 41.1216 47.4438 41.3859 47.8215 41.5748C48.7656 42.1035 49.7098 42.6322 50.5785 43.2743C51.7493 44.1429 51.9381 45.5403 51.145 46.7489C50.012 48.4484 48.6523 49.9591 46.8017 50.9033C46.8017 50.941 46.8395 50.9788 46.8395 51.0543C47.4816 50.8655 48.1614 50.7144 48.7656 50.4878C50.2763 49.9213 51.4471 48.9394 52.4668 47.6931C52.5801 47.542 52.7312 47.3531 52.92 47.2398C53.2599 47.051 53.6754 47.2021 53.8265 47.6175C54.4307 48.9394 54.8084 50.3368 54.8084 51.8097C54.8084 52.9049 54.0153 53.8491 52.92 54.1135C51.0317 54.5289 49.1055 54.6422 47.2172 54.1512C47.1417 54.1135 46.9528 54.0379 46.764 53.9624ZM39.5504 52.3762C39.5504 54.3779 41.0989 56.0018 43.1005 56.0018C45.1022 56.0018 46.7262 54.4156 46.7262 52.414C46.7262 50.4123 45.14 48.8261 43.1383 48.7883C41.1367 48.8261 39.5504 50.3745 39.5504 52.3762Z" fill="white"/>
<path d="M71.5392 55.7752C70.3307 56.9082 69.5754 58.2679 69.2354 59.8541C69.0844 60.5717 69.0466 61.327 68.9711 62.0446C68.8955 62.7999 68.4423 63.1021 67.8003 62.7244C66.705 62.1201 65.7231 61.3648 64.8922 60.4206C63.9103 59.3631 63.9103 57.9657 64.8922 56.8327C66.2518 55.322 67.7625 54.0002 69.7264 53.3581C69.7264 53.3204 69.7264 53.2826 69.6887 53.2071C68.9711 53.3204 68.2913 53.3581 67.5737 53.547C66.0252 53.9246 64.7034 54.68 63.6081 55.8508C63.0039 56.455 62.2485 56.3795 62.1352 55.4353C61.9841 54.2645 61.7953 53.0937 61.7575 51.8852C61.7198 50.5256 62.815 49.4681 64.2124 49.3926C66.2518 49.2793 68.2535 49.4303 70.1041 50.299C70.1041 50.299 70.1419 50.299 70.1796 50.2612C69.2732 49.317 68.2157 48.5994 67.0072 48.2595C66.0252 47.9952 64.9677 47.8819 63.948 47.7308C63.1172 47.6553 62.7773 47.1643 63.2682 46.4845C63.948 45.5025 64.7034 44.5206 65.5343 43.6519C66.4407 42.67 67.8758 42.5945 68.8955 43.4631C70.4062 44.7472 71.6903 46.2201 72.4457 48.1085C72.4834 48.2218 72.5212 48.3728 72.6345 48.4861C72.71 47.5042 72.5212 46.56 72.1813 45.6158C71.7281 44.3695 70.9727 43.2743 70.0663 42.3301C69.4621 41.688 69.6131 41.1593 70.444 40.9327C71.8036 40.5928 73.1632 40.3662 74.5606 40.5928C75.6559 40.7816 76.449 41.7636 76.5245 42.8966C76.6756 44.936 76.4867 46.9755 75.6181 48.9394C75.6559 48.9771 75.6936 49.0149 75.7314 49.0527C75.8069 48.9016 75.8825 48.7505 75.958 48.6372C77.4687 46.9755 78.1107 44.9738 78.1485 42.7833C78.1863 41.9147 78.6395 41.6503 79.3948 42.0657C80.4523 42.67 81.4343 43.4253 82.2651 44.3318C83.2093 45.3515 83.2093 46.7866 82.2651 47.8441C80.9055 49.3926 79.3571 50.6766 77.3932 51.4698C77.6198 51.4698 77.8841 51.4698 78.1107 51.432C78.3751 51.3942 78.6017 51.3942 78.8661 51.3565C80.6789 51.0166 82.1896 50.1857 83.5115 48.9016C84.1913 48.2595 84.72 48.4106 84.9466 49.317C85.2487 50.4878 85.3621 51.6586 85.3243 52.8671C85.2865 54.189 84.4179 55.1709 83.096 55.322C81.1321 55.5486 79.1682 55.3598 77.3176 54.5667C77.2043 54.5289 77.091 54.4911 76.9777 54.4911C77.582 55.1709 78.2996 55.6619 79.0927 56.0774C80.339 56.6816 81.6609 57.0215 83.0205 56.9838C83.8136 56.946 84.1913 57.588 83.7758 58.2679C83.1338 59.3253 82.3784 60.2695 81.472 61.1004C80.4901 61.969 79.1305 62.0446 78.1107 61.2137C76.4868 59.8541 75.1649 58.2679 74.4473 56.2284C74.4096 56.2284 74.3718 56.2284 74.334 56.2284C74.4096 56.8327 74.4473 57.4747 74.5984 58.079C74.9761 59.7785 75.8447 61.1759 77.0155 62.3845C77.582 62.9888 77.4309 63.5175 76.6378 63.7441C75.3537 64.1218 74.0696 64.1973 72.7856 64.1218C71.6148 64.0462 70.6328 63.0265 70.5195 61.8557C70.4818 59.8163 70.6328 57.7391 71.5392 55.7752ZM73.6164 56.0018C75.5803 56.0018 77.2043 54.3778 77.2043 52.4139C77.2043 50.3745 75.5803 48.7883 73.5409 48.7883C71.6148 48.7883 69.9908 50.45 69.9908 52.4139C69.9908 54.3778 71.6148 56.0018 73.6164 56.0018Z" fill="white"/>
<path d="M43.1382 55.2843C41.5142 55.2843 40.2302 54.038 40.1924 52.414C40.1924 50.79 41.4765 49.4681 43.1005 49.4681C44.7244 49.4681 46.0463 50.79 46.0463 52.3762C46.0463 54.038 44.7622 55.2843 43.1382 55.2843Z" fill="white"/>
<path d="M73.5409 55.2844C71.8792 55.2466 70.6706 53.9625 70.7084 52.3008C70.7461 50.6768 72.068 49.4305 73.7298 49.4682C75.316 49.506 76.5623 50.8279 76.5245 52.4519C76.4868 54.0758 75.1649 55.3222 73.5409 55.2844Z" fill="white"/>
<path d="M63.457 73.2615C63.457 72.8461 63.306 72.6573 62.8905 72.695C62.2485 72.695 61.6064 72.7328 61.0022 72.695C60.209 72.6573 59.6048 71.9019 59.8691 71.1466C59.9824 70.7689 60.2846 70.5045 60.5112 70.2024C50.6162 70.2024 40.6078 70.2024 30.5618 70.2024C30.5618 71.4109 30.5618 72.5817 30.5618 73.7525C30.5618 74.0169 30.6751 74.0924 30.9394 74.0924C31.5437 74.0924 32.148 74.0924 32.7523 74.0924C33.0544 74.0924 33.1299 73.9791 33.1299 73.7147C33.1299 73.2615 33.0922 72.8083 33.1299 72.3551C33.1677 72.0908 33.3188 71.7509 33.5454 71.5998C34.1497 71.1466 34.8672 71.5998 34.8672 72.3929C34.8672 73.3371 34.8672 74.319 34.8672 75.301C36.2268 75.301 37.5487 75.301 38.9461 75.301C38.9461 74.8855 38.9461 74.4701 38.9461 74.0924C38.9461 73.7903 38.9083 73.4126 39.3615 73.4126C39.8147 73.4126 39.8147 73.7525 39.777 74.0924C39.777 74.5079 39.777 74.9233 39.777 75.3387C45.8197 75.3387 51.8247 75.3387 57.8675 75.3387C57.8675 75.2632 57.8675 75.1877 57.8675 75.1499V74.1302C57.8675 74.0546 57.8675 73.9414 57.9052 73.8658C57.943 73.7147 58.1696 73.5637 58.3207 73.4126C58.4717 73.5637 58.6606 73.7147 58.6983 73.8658C58.7739 74.0924 58.6983 74.3568 58.6983 74.5456C58.7739 74.5834 58.8116 74.6212 58.8494 74.6212C60.3223 74.6212 61.7575 74.6589 63.2304 74.6212C63.3437 74.6212 63.4948 74.4323 63.4948 74.319C63.4948 73.9036 63.457 73.5637 63.457 73.2615Z" fill="white"/>
</g>
<defs>
<clipPath id="clip0_226_543">
<rect width="105.04" height="105.04" fill="white"/>
</clipPath>
</defs>
</svg>
