<svg width="132" height="164" viewBox="0 0 132 164" fill="none" xmlns="http://www.w3.org/2000/svg">
<path d="M27.6016 157.682V159.237H21.5625V157.682H27.6016ZM22.1172 147.862V159.237H20.1562V147.862H22.1172ZM26.8125 152.612V154.143H21.5625V152.612H26.8125ZM27.5625 147.862V149.424H21.5625V147.862H27.5625ZM30.8984 152.502V159.237H29.0156V150.783H30.7891L30.8984 152.502ZM30.5938 154.698L29.9531 154.69C29.9531 154.106 30.026 153.567 30.1719 153.073C30.3177 152.578 30.5312 152.148 30.8125 151.783C31.0938 151.414 31.4427 151.13 31.8594 150.932C32.2812 150.729 32.7682 150.627 33.3203 150.627C33.7057 150.627 34.0573 150.684 34.375 150.799C34.6979 150.908 34.9766 151.083 35.2109 151.323C35.4505 151.562 35.6328 151.869 35.7578 152.244C35.888 152.619 35.9531 153.073 35.9531 153.604V159.237H34.0703V153.768C34.0703 153.356 34.0078 153.033 33.8828 152.799C33.763 152.565 33.5885 152.398 33.3594 152.299C33.1354 152.195 32.8672 152.143 32.5547 152.143C32.2005 152.143 31.8984 152.211 31.6484 152.346C31.4036 152.481 31.2031 152.666 31.0469 152.901C30.8906 153.135 30.776 153.406 30.7031 153.713C30.6302 154.02 30.5938 154.349 30.5938 154.698ZM35.8359 154.198L34.9531 154.393C34.9531 153.882 35.0234 153.401 35.1641 152.948C35.3099 152.489 35.5208 152.088 35.7969 151.744C36.0781 151.395 36.4245 151.122 36.8359 150.924C37.2474 150.726 37.7188 150.627 38.25 150.627C38.6823 150.627 39.0677 150.687 39.4062 150.807C39.75 150.921 40.0417 151.104 40.2812 151.354C40.5208 151.604 40.7031 151.929 40.8281 152.33C40.9531 152.726 41.0156 153.205 41.0156 153.768V159.237H39.125V153.76C39.125 153.333 39.0625 153.002 38.9375 152.768C38.8177 152.533 38.6458 152.372 38.4219 152.283C38.1979 152.19 37.9297 152.143 37.6172 152.143C37.3255 152.143 37.0677 152.198 36.8438 152.307C36.625 152.411 36.4401 152.559 36.2891 152.752C36.138 152.94 36.0234 153.156 35.9453 153.401C35.8724 153.645 35.8359 153.911 35.8359 154.198ZM42.5938 155.104V154.924C42.5938 154.315 42.6823 153.75 42.8594 153.229C43.0365 152.703 43.2917 152.247 43.625 151.862C43.9635 151.471 44.375 151.169 44.8594 150.955C45.349 150.737 45.901 150.627 46.5156 150.627C47.1354 150.627 47.6875 150.737 48.1719 150.955C48.6615 151.169 49.0755 151.471 49.4141 151.862C49.7526 152.247 50.0104 152.703 50.1875 153.229C50.3646 153.75 50.4531 154.315 50.4531 154.924V155.104C50.4531 155.713 50.3646 156.278 50.1875 156.799C50.0104 157.32 49.7526 157.776 49.4141 158.166C49.0755 158.552 48.6641 158.854 48.1797 159.073C47.6953 159.286 47.1458 159.393 46.5312 159.393C45.9115 159.393 45.3568 159.286 44.8672 159.073C44.3828 158.854 43.9714 158.552 43.6328 158.166C43.2943 157.776 43.0365 157.32 42.8594 156.799C42.6823 156.278 42.5938 155.713 42.5938 155.104ZM44.4766 154.924V155.104C44.4766 155.484 44.5156 155.843 44.5938 156.182C44.6719 156.52 44.7943 156.817 44.9609 157.073C45.1276 157.328 45.3411 157.528 45.6016 157.674C45.862 157.82 46.1719 157.893 46.5312 157.893C46.8802 157.893 47.1823 157.82 47.4375 157.674C47.6979 157.528 47.9115 157.328 48.0781 157.073C48.2448 156.817 48.3672 156.52 48.4453 156.182C48.5286 155.843 48.5703 155.484 48.5703 155.104V154.924C48.5703 154.549 48.5286 154.195 48.4453 153.862C48.3672 153.523 48.2422 153.224 48.0703 152.963C47.9036 152.703 47.6901 152.5 47.4297 152.354C47.1745 152.203 46.8698 152.127 46.5156 152.127C46.1615 152.127 45.8542 152.203 45.5938 152.354C45.3385 152.5 45.1276 152.703 44.9609 152.963C44.7943 153.224 44.6719 153.523 44.5938 153.862C44.5156 154.195 44.4766 154.549 44.4766 154.924ZM55.9062 150.783V152.158H51.1406V150.783H55.9062ZM52.5156 148.713H54.3984V156.901C54.3984 157.161 54.4349 157.362 54.5078 157.502C54.5859 157.638 54.6927 157.729 54.8281 157.776C54.9635 157.823 55.1224 157.846 55.3047 157.846C55.4349 157.846 55.5599 157.838 55.6797 157.823C55.7995 157.807 55.8958 157.791 55.9688 157.776L55.9766 159.213C55.8203 159.26 55.638 159.302 55.4297 159.338C55.2266 159.375 54.9922 159.393 54.7266 159.393C54.2943 159.393 53.9115 159.317 53.5781 159.166C53.2448 159.01 52.9844 158.757 52.7969 158.408C52.6094 158.059 52.5156 157.596 52.5156 157.018V148.713ZM59.375 150.783V159.237H57.4844V150.783H59.375ZM57.3594 148.565C57.3594 148.278 57.4531 148.041 57.6406 147.854C57.8333 147.661 58.099 147.565 58.4375 147.565C58.7708 147.565 59.0339 147.661 59.2266 147.854C59.4193 148.041 59.5156 148.278 59.5156 148.565C59.5156 148.846 59.4193 149.08 59.2266 149.268C59.0339 149.455 58.7708 149.549 58.4375 149.549C58.099 149.549 57.8333 149.455 57.6406 149.268C57.4531 149.08 57.3594 148.846 57.3594 148.565ZM61.0781 155.104V154.924C61.0781 154.315 61.1667 153.75 61.3438 153.229C61.5208 152.703 61.776 152.247 62.1094 151.862C62.4479 151.471 62.8594 151.169 63.3438 150.955C63.8333 150.737 64.3854 150.627 65 150.627C65.6198 150.627 66.1719 150.737 66.6562 150.955C67.1458 151.169 67.5599 151.471 67.8984 151.862C68.237 152.247 68.4948 152.703 68.6719 153.229C68.849 153.75 68.9375 154.315 68.9375 154.924V155.104C68.9375 155.713 68.849 156.278 68.6719 156.799C68.4948 157.32 68.237 157.776 67.8984 158.166C67.5599 158.552 67.1484 158.854 66.6641 159.073C66.1797 159.286 65.6302 159.393 65.0156 159.393C64.3958 159.393 63.8411 159.286 63.3516 159.073C62.8672 158.854 62.4557 158.552 62.1172 158.166C61.7786 157.776 61.5208 157.32 61.3438 156.799C61.1667 156.278 61.0781 155.713 61.0781 155.104ZM62.9609 154.924V155.104C62.9609 155.484 63 155.843 63.0781 156.182C63.1562 156.52 63.2786 156.817 63.4453 157.073C63.612 157.328 63.8255 157.528 64.0859 157.674C64.3464 157.82 64.6562 157.893 65.0156 157.893C65.3646 157.893 65.6667 157.82 65.9219 157.674C66.1823 157.528 66.3958 157.328 66.5625 157.073C66.7292 156.817 66.8516 156.52 66.9297 156.182C67.013 155.843 67.0547 155.484 67.0547 155.104V154.924C67.0547 154.549 67.013 154.195 66.9297 153.862C66.8516 153.523 66.7266 153.224 66.5547 152.963C66.388 152.703 66.1745 152.5 65.9141 152.354C65.6589 152.203 65.3542 152.127 65 152.127C64.6458 152.127 64.3385 152.203 64.0781 152.354C63.8229 152.5 63.612 152.703 63.4453 152.963C63.2786 153.224 63.1562 153.523 63.0781 153.862C63 154.195 62.9609 154.549 62.9609 154.924ZM72.3828 152.588V159.237H70.5V150.783H72.2734L72.3828 152.588ZM72.0469 154.698L71.4375 154.69C71.4427 154.091 71.526 153.541 71.6875 153.041C71.8542 152.541 72.0833 152.112 72.375 151.752C72.6719 151.393 73.026 151.117 73.4375 150.924C73.849 150.726 74.3073 150.627 74.8125 150.627C75.2188 150.627 75.5859 150.684 75.9141 150.799C76.2474 150.908 76.5312 151.088 76.7656 151.338C77.0052 151.588 77.1875 151.914 77.3125 152.315C77.4375 152.711 77.5 153.198 77.5 153.776V159.237H75.6094V153.768C75.6094 153.362 75.5495 153.041 75.4297 152.807C75.3151 152.567 75.1458 152.398 74.9219 152.299C74.7031 152.195 74.4297 152.143 74.1016 152.143C73.7786 152.143 73.4896 152.211 73.2344 152.346C72.9792 152.481 72.763 152.666 72.5859 152.901C72.4141 153.135 72.2812 153.406 72.1875 153.713C72.0938 154.02 72.0469 154.349 72.0469 154.698ZM90.3125 155.533H92.2656C92.2031 156.278 91.9948 156.942 91.6406 157.526C91.2865 158.104 90.7891 158.559 90.1484 158.893C89.5078 159.226 88.7292 159.393 87.8125 159.393C87.1094 159.393 86.4766 159.268 85.9141 159.018C85.3516 158.763 84.8698 158.403 84.4688 157.94C84.0677 157.471 83.7604 156.906 83.5469 156.244C83.3385 155.583 83.2344 154.843 83.2344 154.026V153.08C83.2344 152.263 83.3411 151.523 83.5547 150.862C83.7734 150.2 84.0859 149.635 84.4922 149.166C84.8984 148.692 85.3854 148.33 85.9531 148.08C86.526 147.83 87.1693 147.705 87.8828 147.705C88.7891 147.705 89.5547 147.872 90.1797 148.205C90.8047 148.539 91.2891 149 91.6328 149.588C91.9818 150.177 92.1953 150.851 92.2734 151.612H90.3203C90.2682 151.122 90.1536 150.703 89.9766 150.354C89.8047 150.005 89.5495 149.739 89.2109 149.557C88.8724 149.369 88.4297 149.276 87.8828 149.276C87.4349 149.276 87.0443 149.359 86.7109 149.526C86.3776 149.692 86.099 149.937 85.875 150.26C85.651 150.583 85.4818 150.981 85.3672 151.455C85.2578 151.924 85.2031 152.461 85.2031 153.065V154.026C85.2031 154.599 85.2526 155.119 85.3516 155.588C85.4557 156.052 85.612 156.45 85.8203 156.783C86.0339 157.117 86.3047 157.375 86.6328 157.557C86.9609 157.739 87.3542 157.83 87.8125 157.83C88.3698 157.83 88.8203 157.742 89.1641 157.565C89.513 157.388 89.776 157.13 89.9531 156.791C90.1354 156.448 90.2552 156.028 90.3125 155.533ZM100.031 156.307C100.031 156.073 99.9948 155.864 99.9219 155.682C99.8542 155.5 99.7318 155.333 99.5547 155.182C99.3776 155.031 99.1276 154.885 98.8047 154.744C98.487 154.599 98.0807 154.45 97.5859 154.299C97.0443 154.132 96.5443 153.948 96.0859 153.744C95.6328 153.536 95.237 153.296 94.8984 153.026C94.5599 152.75 94.2969 152.434 94.1094 152.08C93.9219 151.721 93.8281 151.307 93.8281 150.838C93.8281 150.375 93.9245 149.953 94.1172 149.573C94.3151 149.192 94.5938 148.864 94.9531 148.588C95.3177 148.307 95.7474 148.091 96.2422 147.94C96.737 147.783 97.2839 147.705 97.8828 147.705C98.7266 147.705 99.4531 147.862 100.062 148.174C100.677 148.487 101.148 148.906 101.477 149.432C101.81 149.958 101.977 150.539 101.977 151.174H100.031C100.031 150.799 99.9505 150.468 99.7891 150.182C99.6328 149.89 99.3932 149.661 99.0703 149.494C98.7526 149.328 98.349 149.244 97.8594 149.244C97.3958 149.244 97.0104 149.315 96.7031 149.455C96.3958 149.596 96.1667 149.786 96.0156 150.026C95.8646 150.265 95.7891 150.536 95.7891 150.838C95.7891 151.052 95.8385 151.247 95.9375 151.424C96.0365 151.596 96.1875 151.757 96.3906 151.908C96.5938 152.054 96.849 152.192 97.1562 152.323C97.4635 152.453 97.8255 152.578 98.2422 152.698C98.8724 152.885 99.4219 153.093 99.8906 153.323C100.359 153.546 100.75 153.802 101.062 154.088C101.375 154.375 101.609 154.7 101.766 155.065C101.922 155.424 102 155.833 102 156.291C102 156.77 101.904 157.203 101.711 157.588C101.518 157.968 101.242 158.294 100.883 158.565C100.529 158.83 100.102 159.036 99.6016 159.182C99.1068 159.323 98.5547 159.393 97.9453 159.393C97.3984 159.393 96.8594 159.32 96.3281 159.174C95.8021 159.028 95.3229 158.807 94.8906 158.51C94.4583 158.208 94.1146 157.833 93.8594 157.385C93.6042 156.932 93.4766 156.403 93.4766 155.799H95.4375C95.4375 156.169 95.5 156.484 95.625 156.744C95.7552 157.005 95.9349 157.218 96.1641 157.385C96.3932 157.546 96.6589 157.666 96.9609 157.744C97.2682 157.823 97.5964 157.862 97.9453 157.862C98.4036 157.862 98.7865 157.796 99.0938 157.666C99.4062 157.536 99.6406 157.354 99.7969 157.119C99.9531 156.885 100.031 156.614 100.031 156.307ZM109.719 156.307C109.719 156.073 109.682 155.864 109.609 155.682C109.542 155.5 109.419 155.333 109.242 155.182C109.065 155.031 108.815 154.885 108.492 154.744C108.174 154.599 107.768 154.45 107.273 154.299C106.732 154.132 106.232 153.948 105.773 153.744C105.32 153.536 104.924 153.296 104.586 153.026C104.247 152.75 103.984 152.434 103.797 152.08C103.609 151.721 103.516 151.307 103.516 150.838C103.516 150.375 103.612 149.953 103.805 149.573C104.003 149.192 104.281 148.864 104.641 148.588C105.005 148.307 105.435 148.091 105.93 147.94C106.424 147.783 106.971 147.705 107.57 147.705C108.414 147.705 109.141 147.862 109.75 148.174C110.365 148.487 110.836 148.906 111.164 149.432C111.497 149.958 111.664 150.539 111.664 151.174H109.719C109.719 150.799 109.638 150.468 109.477 150.182C109.32 149.89 109.081 149.661 108.758 149.494C108.44 149.328 108.036 149.244 107.547 149.244C107.083 149.244 106.698 149.315 106.391 149.455C106.083 149.596 105.854 149.786 105.703 150.026C105.552 150.265 105.477 150.536 105.477 150.838C105.477 151.052 105.526 151.247 105.625 151.424C105.724 151.596 105.875 151.757 106.078 151.908C106.281 152.054 106.536 152.192 106.844 152.323C107.151 152.453 107.513 152.578 107.93 152.698C108.56 152.885 109.109 153.093 109.578 153.323C110.047 153.546 110.438 153.802 110.75 154.088C111.062 154.375 111.297 154.7 111.453 155.065C111.609 155.424 111.688 155.833 111.688 156.291C111.688 156.77 111.591 157.203 111.398 157.588C111.206 157.968 110.93 158.294 110.57 158.565C110.216 158.83 109.789 159.036 109.289 159.182C108.794 159.323 108.242 159.393 107.633 159.393C107.086 159.393 106.547 159.32 106.016 159.174C105.49 159.028 105.01 158.807 104.578 158.51C104.146 158.208 103.802 157.833 103.547 157.385C103.292 156.932 103.164 156.403 103.164 155.799H105.125C105.125 156.169 105.188 156.484 105.312 156.744C105.443 157.005 105.622 157.218 105.852 157.385C106.081 157.546 106.346 157.666 106.648 157.744C106.956 157.823 107.284 157.862 107.633 157.862C108.091 157.862 108.474 157.796 108.781 157.666C109.094 157.536 109.328 157.354 109.484 157.119C109.641 156.885 109.719 156.614 109.719 156.307Z" fill="white"/>
<g clipPath="url(#clip0_704_336)">
<path d="M66 132.249C52.9429 132.252 40.1783 128.382 29.3207 121.129C18.463 113.877 10.0001 103.567 5.0022 91.5043C0.00431078 79.4416 -1.30403 66.1676 1.24268 53.3613C3.78939 40.5549 10.0767 28.7914 19.3095 19.5587C28.5423 10.3259 40.3058 4.03853 53.1121 1.49182C65.9185 -1.05489 79.1924 0.253485 91.2552 5.25138C103.318 10.2493 113.628 18.7122 120.88 29.5698C128.133 40.4274 132.002 53.192 132 66.2491C131.98 83.7473 125.02 100.523 112.647 112.896C100.274 125.269 83.4982 132.229 66 132.249V132.249ZM66 4.83597C53.8536 4.83597 41.98 8.43779 31.8807 15.186C21.7813 21.9341 13.9099 31.5256 9.26164 42.7474C4.61342 53.9691 3.39725 66.3173 5.76689 78.2303C8.13653 90.1433 13.9856 101.086 22.5744 109.675C31.1631 118.264 42.1059 124.113 54.0189 126.482C65.9319 128.852 78.28 127.636 89.5018 122.987C100.724 118.339 110.315 110.468 117.063 100.368C123.811 90.2691 127.413 78.3955 127.413 66.2491C127.41 49.9577 120.94 34.3339 109.425 22.8094C97.91 11.2849 82.2914 4.80238 66 4.78573V4.83597Z" fill="white"/>
</g>
<g clipPath="url(#clip1_704_336)">
<path d="M47.3016 75.1632C46.7747 73.8234 46.2366 72.4887 45.5985 71.1956C45.2948 70.5808 45.0621 69.9431 44.9184 69.258C44.7756 68.5762 44.4454 67.9334 44.2084 67.2695C43.7499 65.9814 43.1939 64.7214 42.9741 63.3621C42.5301 60.6215 42.6721 57.8987 43.0758 55.1547C43.4052 52.9169 44.2692 50.9089 45.24 48.9137C45.5771 48.2217 45.8884 47.5179 46.1742 46.7997C45.5394 47.3992 45.0681 48.109 44.649 48.8577C44.1083 49.8227 43.7448 50.8657 43.2811 51.8654C43.1691 52.1071 43.1391 52.3683 43.1246 52.643C43.1058 53.0034 42.9056 53.3324 42.7765 53.6733C42.4223 54.606 42.2358 55.5905 42.1965 56.5945C42.1914 56.7259 42.1434 56.8218 42.0032 56.8218C41.8783 56.8218 41.8364 56.7217 41.8364 56.6157C41.8372 56.4325 41.8269 56.2451 41.862 56.0679C42.43 53.1959 43.3308 50.44 44.8876 47.9343C45.2178 47.4026 45.6635 46.9235 46.1245 46.4927C46.6019 46.0467 46.7533 45.56 46.625 44.9461C46.3452 43.6131 46.2272 42.2699 46.4077 40.9123C46.4274 40.7673 46.3777 40.5477 46.5865 40.5401C46.7909 40.5324 46.7995 40.7453 46.7866 40.8945C46.6019 43.0746 47.2639 45.1368 47.6703 47.2364C47.9705 48.7856 48.0005 50.3425 47.6626 51.9901C48.0201 51.5678 48.3418 51.2261 48.6223 50.853C51.0483 47.6197 52.5256 44.0226 52.7908 39.9787C52.8592 38.9349 52.6522 37.9037 52.4537 36.8794C52.4212 36.714 52.2775 36.6267 52.168 36.5207C50.8327 35.2318 49.8336 33.7224 49.1373 32.0113C49.0714 31.8484 49.0569 31.6415 48.8259 31.6008C49.0039 31.3185 49.1296 31.438 49.2417 31.6534C49.5214 32.1919 49.7763 32.7447 50.0825 33.2679C51.5179 35.7219 53.618 37.4687 56.1046 38.8043C58.4288 40.0525 60.5947 41.5245 62.5091 43.34C64.255 44.9961 65.6776 46.9193 67.0796 48.8569C67.1557 48.9527 67.2318 49.0493 67.308 49.1452C68.1993 50.5282 68.9965 51.9672 69.8853 53.4825C69.9221 53.0119 69.8357 52.671 69.7775 52.3327C69.3216 49.6811 68.1728 47.2983 66.8315 44.9995C66.0514 43.6622 65.0659 42.4751 63.8906 41.4516C63.7178 41.3007 63.5596 41.1184 63.7375 40.9132C63.9394 40.6808 64.1002 40.9293 64.2251 41.0488C65.3439 42.1215 66.3191 43.3095 67.1523 44.6162C67.5449 45.2327 67.8152 45.9255 68.3584 46.4495C70.5252 48.5414 72.4764 50.814 74.1667 53.3036L74.2616 53.4138C74.2907 53.4443 74.3266 53.4715 74.348 53.5062C75.6174 55.6482 76.7628 57.8512 77.6739 60.1695C77.7295 60.312 77.75 60.4799 77.9356 60.6113C77.874 60.0559 77.8304 59.5505 77.7585 59.0494C77.614 58.0335 77.5661 57.0024 77.2641 56.0111L77.2752 56.023C77.2196 55.6143 77.1777 55.203 77.0126 54.8172L77.0203 54.8358C76.9194 54.1609 76.756 53.5028 76.5011 52.8686L76.5079 52.8872C76.2992 52.0884 76.0648 51.2981 75.7329 50.5392C75.6756 50.3306 75.4036 50.1873 75.5422 49.9194C75.194 48.9467 74.7381 48.0242 74.2308 47.1245C73.4105 45.6685 72.425 44.3186 71.5175 42.9177C71.449 42.8117 71.2771 42.6752 71.4524 42.5599C71.615 42.4522 71.6962 42.643 71.7758 42.7481C72.2907 43.424 72.7929 44.1083 73.3138 44.779C73.8219 45.4336 74.2702 46.1417 74.6748 46.8455C75.2505 47.8469 75.7808 48.8798 76.3753 49.8736C77.6037 51.9248 78.8415 53.9709 79.6858 56.2163C80.8688 59.3606 81.2409 62.6481 81.3692 65.9713C81.4129 67.0923 81.3761 68.2167 81.3761 69.4462C81.4839 69.3173 81.5147 69.291 81.5309 69.258C82.9586 66.3189 84.0655 63.2976 84.1014 59.9736C84.1237 57.9597 83.9457 55.9721 83.4932 54.0099C83.2015 52.7448 82.7884 51.5127 82.3906 50.2763C82.3512 50.1542 82.2101 49.9745 82.3872 49.9032C82.6036 49.8159 82.6121 50.0635 82.6609 50.1882C82.9175 50.8394 83.2383 51.4593 83.4342 52.1419C83.808 53.4452 84.1801 54.746 84.358 56.0917C84.5505 57.5468 84.6754 59.0036 84.5787 60.4765C84.5368 61.1192 84.4941 61.7671 84.6061 62.4183C84.9543 64.439 84.8131 66.4622 84.5899 68.4829C84.5086 69.2181 84.2742 69.9211 84.0373 70.691C84.1348 70.6181 84.175 70.6003 84.1989 70.5689C85.2058 69.2749 86.3041 68.0496 87.2066 66.6776C88.3879 64.8808 89.5906 63.0857 90.328 61.0531C91.5024 57.8156 91.5914 54.5 90.7873 51.1752C90.032 48.0521 88.6916 45.1614 87.0107 42.4225C86.5308 41.6416 86.092 40.8284 85.299 40.2924C85.1989 40.2246 85.0526 40.122 85.1604 39.9872C85.2981 39.8159 85.4153 39.988 85.512 40.0711C86.0586 40.5443 86.5941 41.031 87.145 41.4999C87.3417 41.6678 87.5068 41.9137 87.8242 41.8722C87.8635 42.2572 88.5786 42.8813 88.9867 42.8864L88.9713 42.8745C90.02 44.4297 91.2073 45.8703 92.5683 47.1677C92.6932 47.2915 92.8181 47.4153 92.943 47.5391C93.3108 47.8452 93.6187 48.2183 94.0259 48.4804L94.0114 48.4676C94.2654 48.7771 94.5811 49.0222 94.8796 49.2851C95.3886 49.7328 95.8967 50.1805 96.4057 50.6282C96.6495 50.8479 96.8941 51.0683 97.2123 51.355C95.528 47.6985 93.96 44.1023 92.1919 40.5969C91.0491 38.3311 89.5718 36.3248 87.8242 34.4712C85.0655 31.5449 82.0365 28.9603 78.6208 26.8251C74.8621 24.4763 70.8673 22.665 66.4996 21.7484C62.9505 21.0039 59.3783 20.5409 55.7368 20.9394C53.2116 21.2159 51.0295 22.1054 49.4658 24.1863C48.9534 24.8672 48.4684 25.5625 48.3939 26.4478C48.0971 27.4831 48.3238 28.5075 48.4564 29.5352C48.5462 30.2288 48.8294 30.8877 48.8276 31.5975C49.1005 32.0011 49.0569 32.4819 49.2066 32.9194C48.991 32.8668 48.9602 32.7074 48.9123 32.5709C48.5702 31.5991 48.2477 30.6198 48.0338 29.6115C47.5 27.0973 48.0518 24.924 49.9448 23.0678C51.4888 21.5542 53.3476 20.8648 55.4306 20.6096C58.9198 20.1822 62.3551 20.5799 65.7845 21.2277C71.0649 22.2249 75.78 24.4771 80.2102 27.4187C83.8756 29.8523 86.9867 32.877 89.8438 36.1739C91.2184 37.7596 92.1431 39.6327 93.0661 41.494C94.6786 44.7468 96.1431 48.0683 97.6708 51.36C97.7119 51.4491 97.7521 51.5407 97.7786 51.6356C97.8094 51.7467 97.8128 51.8586 97.7136 51.9477C97.6101 52.041 97.4989 52.0138 97.3971 51.9562C97.25 51.8714 97.0977 51.7883 96.9702 51.6789C94.7522 49.7777 92.5349 47.8809 90.5666 45.7092C89.7565 44.8155 89.0859 43.8149 88.2459 42.95C87.9764 42.6727 87.7258 42.3767 87.4281 42.13C88.3845 44.0803 89.405 45.9755 90.1996 47.9818C91.6966 51.762 92.1166 55.627 91.1971 59.6065C90.7659 61.4728 89.8891 63.1492 88.8909 64.7672C88.3272 65.6813 87.7369 66.5809 87.1441 67.4772C87.0321 67.6468 87.0107 67.7901 87.0483 67.986C87.5966 70.8326 88.8686 73.3723 90.4015 75.8025C91.1115 76.9286 91.9147 77.9894 92.6975 79.0646C92.8232 79.2368 93.0627 79.4148 92.9053 79.6523C92.7368 79.9058 92.4442 79.8236 92.1979 79.771C90.7599 79.4632 89.4631 78.8331 88.2262 78.0606C87.5761 77.6553 86.9003 77.2916 86.2417 76.8981C85.9799 76.7421 85.8927 76.8209 85.8773 77.0982C85.8456 77.6765 86.0098 78.2184 86.1989 78.75C86.6865 80.1229 87.3263 81.4296 88.0012 82.7202C88.0979 82.9059 88.2553 83.0195 88.4127 83.1399C90.0046 84.3551 91.5538 85.6185 92.9635 87.0423C93.2723 87.3543 93.5751 87.6664 93.7804 88.0658C94.0901 88.6678 93.9883 88.8679 93.3202 88.8688C92.4939 88.8688 91.6701 88.9213 90.8472 88.9883C90.6958 89.001 90.5452 89.0273 90.2689 89.0638C90.6043 89.2427 90.8309 89.3767 91.0679 89.4886C92.801 90.3052 94.5451 91.0972 96.2662 91.9367C97.5553 92.5659 98.7726 93.324 99.9437 94.1524C100.143 94.2932 100.176 94.4178 100.034 94.64C99.8923 94.8605 99.7204 95.0428 99.5228 95.2013C98.504 96.0205 97.6049 96.9702 96.6161 97.8215C96.3766 98.0284 96.3723 98.159 96.5998 98.3846C98.4681 100.237 99.7589 102.433 100.523 104.938C100.697 105.512 100.748 106.098 100.771 106.691C100.793 107.264 100.681 107.367 100.081 107.365C98.9231 107.361 97.7641 107.364 96.6058 107.365C96.4809 107.365 96.3475 107.337 96.238 107.432H88.9756C88.9927 106.936 89.2536 106.527 89.446 106.091C90.0756 104.667 91.0311 103.463 91.9712 102.237C93.3741 100.407 94.9882 98.784 96.6897 97.2381C97.5913 96.419 98.4535 95.5558 99.4082 94.7935C99.4997 94.7205 99.6246 94.6417 99.5236 94.4797C99.2918 94.1075 98.8376 94.0557 98.545 94.3627C98.3894 94.5264 98.2226 94.6841 98.0404 94.8164C95.9814 96.3113 94.0404 97.9436 92.2578 99.7532C90.1047 101.939 88.5496 104.483 87.6933 107.432H87.3511C87.3622 107.335 87.3554 107.232 87.3871 107.143C87.926 105.596 88.5393 104.079 89.4426 102.699C91.5469 99.4852 94.4442 97.0626 97.5074 94.8113C97.924 94.5052 98.3714 94.2398 98.7367 93.8353C98.5288 93.7293 98.3466 93.6479 98.1772 93.5461C98.0292 93.4571 97.9403 93.4952 97.8103 93.6021C96.5981 94.6044 95.3441 95.5549 94.1345 96.5623C92.3921 98.0132 90.8395 99.6302 89.5487 101.49C88.2818 103.315 87.358 105.3 86.7523 107.431H86.4102C86.4162 107.334 86.3999 107.23 86.4316 107.142C86.9063 105.817 87.3768 104.49 88.0474 103.244C88.8823 101.695 89.9148 100.279 91.1013 98.9841C93.0773 96.8286 95.3424 95.0029 97.8094 93.3553C95.41 92.0003 92.8266 90.9912 90.4049 89.6667C90.3844 89.6591 90.3647 89.6514 90.3442 89.6438C89.9661 89.4335 89.6342 89.1664 89.1261 89.2919C85.4769 90.189 81.8611 91.1795 78.5096 92.9271C75.7697 94.3559 73.2445 96.073 71.1821 98.3922C70.7476 98.8806 70.2959 99.3462 69.8023 99.7752C68.9546 100.512 68.0907 101.255 67.5731 102.261C66.8606 103.649 65.9718 104.924 65.1558 106.246C65.089 106.354 65.0463 106.578 64.8718 106.472C64.7144 106.377 64.8812 106.229 64.9316 106.106C65.4646 104.807 66.3439 103.696 66.9393 102.427C67.361 101.527 68.012 100.767 68.7528 100.092C69.319 99.5768 69.9307 99.0977 70.4242 98.5203C72.6047 95.9679 75.2975 94.0922 78.2444 92.5243C81.3427 90.8759 84.7011 89.9635 88.056 89.0316C88.659 88.8645 89.2775 88.7729 89.8977 88.6873C90.9849 88.5372 92.0781 88.4855 93.1731 88.4558C93.2654 88.4533 93.3938 88.4982 93.4391 88.3837C93.4784 88.2828 93.3801 88.2031 93.3236 88.1276C93.197 87.9572 93.0687 87.7876 92.9259 87.6299C91.8104 86.3978 90.5658 85.298 89.2681 84.2652C87.926 83.1968 86.5257 82.2004 85.1467 81.1786C83.9261 80.2738 82.672 79.4208 81.2811 78.7865L81.2922 78.7975C80.3547 78.1861 79.3385 77.7215 78.3325 77.2381C78.1306 77.1415 78.0152 77.2483 77.8851 77.3619C77.2444 77.9182 76.6037 78.4745 75.9151 78.9731C75.8732 78.9815 75.8244 78.9798 75.7919 79.001C74.3283 79.9847 72.8117 80.8725 71.1821 81.561C70.9957 81.6399 70.9349 81.7569 70.9495 81.9545C70.9914 82.5311 71.0128 83.1094 71.0495 83.6869C71.1659 85.5219 71.8134 87.1406 73.0341 88.5347C73.1889 88.7119 73.7475 88.9765 73.0281 89.1808C73.011 89.1859 73.0059 89.2283 72.9922 89.252C72.2009 90.5876 71.449 91.9477 70.6081 93.2519C68.7998 96.0586 67.2738 99.0316 65.4286 101.815C65.2473 102.089 65.1164 102.396 64.9616 102.688C65.7434 101.525 66.7143 100.526 67.6014 99.4624C68.9238 97.8758 70.1907 96.2469 71.7587 94.8698C74.496 92.4675 77.6011 90.7038 81.0536 89.5692C83.2785 88.8382 85.4521 87.9453 87.7463 87.4255C87.9773 87.373 88.0372 87.2475 87.8883 87.0669C87.6907 86.8269 87.4854 86.5911 87.2604 86.3766C86.5299 85.6804 85.7395 85.0512 84.8764 84.528C82.7062 83.2112 80.6652 81.6874 78.3898 80.5392C77.6927 80.1873 76.9929 79.838 76.3052 79.47C76.1102 79.3657 75.8219 79.2944 75.9031 78.9595C76.0614 78.9137 76.2137 78.9357 76.3599 79.0044C77.3248 79.4564 78.2761 79.9338 79.2025 80.4595C80.649 81.2795 81.9714 82.2911 83.4068 83.1298C84.8302 83.9616 86.2143 84.8554 87.4273 85.9815C87.7181 86.252 88.0115 86.5216 88.2348 86.8523C88.547 87.3161 88.4161 87.657 87.8789 87.8046C87.701 87.8529 87.5162 87.8792 87.3417 87.9369C84.4812 88.8722 81.5874 89.7091 78.8116 90.8869C75.7868 92.1699 73.1213 93.9726 70.8537 96.3266C69.142 98.1031 67.6322 100.058 66.0728 101.965C65.2276 102.998 64.6109 104.183 64.2464 105.477C64.1472 105.828 64.0488 106.207 64.5903 106.355C64.4278 106.533 64.2798 106.502 64.1378 106.431C63.9821 106.353 63.9873 106.213 64.0129 106.064C64.0737 105.712 63.971 105.351 64.0985 105C63.9992 105.083 63.9419 105.182 63.8607 105.256C63.7623 105.346 63.5638 105.316 63.5989 105.216C63.7221 104.866 63.3902 104.877 63.2679 104.727C63.0608 104.471 62.9257 104.173 62.8034 103.873C61.9437 101.764 60.9009 99.7396 59.8 97.7478C58.0421 94.5679 56.2458 91.4084 54.4682 88.2387C54.4126 88.1387 54.2826 88.0513 54.363 87.9012C54.5794 87.9369 54.5418 88.2515 54.7813 88.2701C54.8326 87.9165 55.0003 87.6384 55.2287 87.3721C55.8463 86.6513 56.2834 85.8415 56.4331 84.8876C56.5879 83.904 56.5683 82.922 56.5375 81.9324C56.5246 81.5237 56.3527 81.3669 56.0328 81.1871C54.4349 80.2916 52.8293 79.4064 51.3665 78.2964C51.2356 78.1972 51.1124 78.1845 50.9704 78.2413C50.6283 78.3778 50.281 78.5033 49.9474 78.6576C49.4418 78.8908 49.4333 78.9358 49.689 79.4098C50.3862 80.7038 51.0842 81.9977 51.7814 83.2917C51.8147 83.3536 51.8507 83.4155 51.8823 83.4783C51.9679 83.647 52.0602 83.8285 51.8661 83.9735C51.6779 84.1134 51.5128 83.9913 51.3708 83.8692C51.2202 83.7403 51.074 83.6046 50.9414 83.4588C49.9867 82.4082 49.1373 81.2761 48.3161 80.1212C47.956 79.6141 48.0851 79.5666 47.4958 79.9948C46.4864 80.7292 45.5163 81.5169 44.3983 82.0961C43.8671 82.3717 43.3889 82.7329 42.9313 83.1145C42.016 83.8777 41.0964 84.6341 40.0734 85.2556C39.9887 85.3065 39.9125 85.3726 39.8398 85.4396C39.0144 86.1985 38.1572 86.9185 37.2188 87.5392C37.1367 87.5934 37.0033 87.6214 37.0058 87.791C37.7056 87.8029 38.4036 87.7257 39.0931 87.8283C42.2658 88.3032 45.3333 89.0892 48.1211 90.7453C49.4624 91.5424 50.9465 92.0868 52.2356 92.9805C53.3553 93.7573 54.4391 94.5832 55.5127 95.4218C57.2423 96.7735 58.836 98.2515 60.114 100.047C61.2482 101.642 61.9488 103.452 62.7683 105.203C62.8727 105.427 62.9565 105.659 63.0506 105.888C62.5125 105.212 62.0326 104.513 61.7016 103.732C60.5844 101.096 58.9463 98.8247 56.7744 96.9592C54.0679 94.6332 51.1757 92.5744 47.9047 91.0633C46.4496 90.3909 45.0698 89.5632 43.4882 89.1817C41.8184 88.778 40.1683 88.2743 38.4352 88.1989C37.8818 88.1751 37.3258 88.2074 36.7715 88.1836C36.5841 88.176 36.3386 88.148 36.2745 87.9216C36.2069 87.6816 36.4404 87.5892 36.5893 87.4705C36.9887 87.1525 37.4652 86.9397 37.839 86.5869C38.6662 85.8051 39.5755 85.1284 40.5216 84.4967C41.0537 84.1422 41.5934 83.7912 42.0382 83.3316C42.5558 82.7982 43.122 82.3208 43.7636 81.9579C45.0407 81.2346 46.2229 80.3807 47.3982 79.5124C47.6224 79.347 47.6617 79.2393 47.4906 79.0214C47.1664 78.6101 46.8388 78.198 46.5565 77.7588C46.3452 77.4306 46.1784 77.4035 45.8696 77.6494C43.785 79.3148 41.8021 81.0964 39.7791 82.833H39.7808C39.4027 83.0467 39.1375 83.3816 38.8587 83.6987C38.2778 84.3576 37.7133 85.0351 37.0041 85.5651C35.893 86.3953 34.9751 87.4171 34.047 88.4287C33.9281 88.5576 33.7972 88.6822 33.745 88.8866C33.9041 88.8756 34.0316 88.8739 34.1582 88.8577C37.2086 88.4668 40.1623 88.9798 43.0853 89.7905C43.9099 90.0194 44.6498 90.4604 45.4582 90.7216C46.7464 91.1379 47.9996 91.6289 49.1553 92.3318C50.1997 92.9661 51.1527 93.7327 52.1484 94.4373C55.9199 97.1059 59.031 100.369 61.3038 104.395C61.7196 105.131 62.1302 105.877 62.7443 106.482C62.8025 106.539 62.8923 106.618 62.8076 106.693C62.699 106.79 62.634 106.662 62.5698 106.599C62.0737 106.109 61.6263 105.58 61.2662 104.983C59.4655 102.002 57.3937 99.2342 54.6983 96.9812C51.7104 94.4831 48.6437 92.0995 44.8448 90.8852C44.7242 90.8471 44.6096 90.7945 44.4744 90.8047C42.2333 90.9717 40.0032 91.2185 37.8057 91.6984C35.822 92.1317 33.822 92.4947 31.8605 93.0263C31.4842 93.1281 31.4029 93.2103 31.5954 93.5962C32.5252 95.4625 33.7715 97.1339 34.8519 98.9069C36.2565 101.213 37.9211 103.314 39.6756 105.357C40.2718 106.051 40.9732 106.656 41.4668 107.436H40.7833C40.5421 107.039 40.2684 106.667 39.9613 106.316C38.4883 104.633 37.0118 102.952 35.7792 101.08C35.1342 100.101 34.5431 99.0876 33.8887 98.1141C32.9161 96.6675 31.9906 95.1996 31.432 93.5393C31.2968 93.1374 31.0975 93.2654 30.8298 93.3502C30.5329 93.4444 30.4568 93.558 30.5868 93.8607C31.1745 95.237 31.799 96.5979 32.5149 97.9097C33.869 100.39 35.2933 102.829 37.2599 104.906C37.8441 105.523 38.3702 106.192 38.8296 106.907C38.9519 107.097 39.0828 107.277 39.2453 107.434H38.6474C38.549 107.148 38.354 106.92 38.1735 106.687C36.7005 104.792 35.0581 103.037 33.8143 100.952C32.5338 98.8069 31.4166 96.6005 30.5372 94.2728C30.2703 93.5656 30.3114 93.5504 29.6245 93.8751C28.9402 94.1991 28.9453 94.1965 29.2738 94.8706C30.343 97.0677 31.716 99.0935 32.929 101.21C33.319 101.89 33.9289 102.432 34.4011 103.07C35.4875 104.536 36.6491 105.946 37.7073 107.433H26.7734C27.4783 106.043 28.3764 104.771 29.2182 103.465C29.7673 102.613 30.1916 101.674 30.9358 100.948C31.1591 100.731 31.3447 100.468 31.6133 100.308C31.8451 100.169 31.8332 100.048 31.7126 99.8371C31.0881 98.745 30.367 97.7088 29.7999 96.5844C29.45 95.8916 29.0325 95.2336 28.7391 94.5111C28.5877 94.1363 28.6639 93.9447 29.0428 93.753C30.9683 92.7813 33.0641 92.359 35.1342 91.8612C37.9434 91.1862 40.7842 90.6851 43.6687 90.479C43.7003 90.3357 43.5951 90.3383 43.5207 90.3154C40.3642 89.3394 37.1607 88.8052 33.846 89.2851C33.6561 89.3122 33.4277 89.3945 33.3019 89.1757C33.1787 88.962 33.2934 88.7517 33.4268 88.5889C34.2779 87.5459 35.1573 86.5258 36.2206 85.6864C37.2847 84.846 38.1803 83.8429 39.0759 82.8381C39.3103 82.5752 39.5601 82.3259 39.7799 82.0944C37.9579 82.42 36.1128 82.7482 34.2856 83.1645C34.2163 83.1806 34.1445 83.19 34.0743 83.1917C33.8502 83.1959 33.5774 83.257 33.4662 83.006C33.3532 82.7516 33.6158 82.643 33.7707 82.5124C35.2471 81.2626 36.5739 79.8668 37.8253 78.4007C38.9117 77.127 39.4669 75.6109 39.762 73.9904C39.7859 73.8598 39.8672 73.6903 39.7226 73.5987C39.6029 73.5224 39.4865 73.6529 39.3736 73.703C37.2548 74.6349 35.1599 75.6329 32.8289 75.9577C32.3926 76.0188 31.9581 76.1019 31.5141 76.0874C31.3285 76.0815 31.1309 76.0874 31.0265 75.8958C30.9068 75.6753 31.0967 75.5515 31.2147 75.4286C32.1172 74.4873 33.0282 73.5554 33.9349 72.6184C36.1658 70.3111 37.8065 67.6206 39.1957 64.7553C39.377 64.3805 39.3343 64.1278 39.2299 63.809C38.2659 60.8708 37.7295 57.8444 37.3856 54.7833C37.1461 52.6523 36.8467 50.5273 36.721 48.3837C36.5012 44.6137 36.9066 40.9352 38.437 37.445C39.4985 35.0224 41.1811 33.0373 43.1674 31.3049C44.0416 30.5417 44.9201 29.7675 45.9971 29.28C46.4479 29.0756 46.9158 28.9094 47.3803 28.7364C47.4992 28.6923 47.6626 28.6762 47.7011 28.8365C47.7353 28.9781 47.5813 29.0129 47.4761 29.0392C46.6344 29.2503 45.9227 29.726 45.2315 30.2034C42.8013 31.8798 40.7962 33.9768 39.3497 36.536C38.1923 38.5847 37.6089 40.8419 37.301 43.1687C36.8955 46.2316 37.1701 49.2724 37.5165 52.3199C37.7637 54.4916 38.0212 56.6615 38.3967 58.8136C38.9237 61.8307 39.8056 64.7265 41.3454 67.4162C42.377 69.2173 43.0921 71.1845 44.1374 72.9831C44.8329 74.1804 45.5138 75.3913 46.2965 76.5318C47.6472 78.499 49.0595 80.4256 50.5616 82.2852C50.6018 82.3352 50.648 82.381 50.7557 82.3869C50.2741 81.5135 49.7977 80.6376 49.3084 79.7693C49.1347 79.4606 49.1048 79.9423 48.9551 79.8193C48.8251 79.0723 48.364 78.4117 48.1912 77.6477C48.1348 77.3975 48.0578 77.1584 48.1108 76.9032C47.826 76.3317 47.6361 75.7135 47.3033 75.1615L47.3016 75.1632ZM62.2901 57.4213C63.634 57.1101 64.906 56.7081 66.1831 56.3232C66.6596 56.1799 67.1412 56.0527 67.639 56.0009C67.8289 55.9806 68.018 55.9975 68.118 56.1951C68.2044 56.3656 68.148 56.5233 68.0453 56.6717C67.8845 56.9057 67.7066 57.1236 67.4919 57.3127C65.8752 58.7432 64.4098 60.3264 62.9043 61.8654C59.3646 65.4845 55.9874 69.2495 52.7591 73.145C52.3879 73.5927 51.9858 74.015 51.5307 74.3796C51.2168 74.6315 50.9713 74.9274 50.7532 75.2624C50.63 75.4515 50.6625 75.5481 50.8062 75.6872C51.3357 76.2011 51.8875 76.6904 52.4623 77.1533C54.8609 79.0892 57.4408 80.7801 59.942 82.5769C60.066 82.6659 60.2149 82.7414 60.3637 82.7762C62.0942 83.1832 63.8572 83.4477 65.6014 83.0161C68.2173 82.3691 70.7424 81.4364 73.1008 80.128C74.23 79.5013 75.3497 78.8789 76.1786 77.7825C77.8715 75.5422 78.9895 73.1315 79.1606 70.3043C79.3034 67.9445 79.0673 65.6261 78.5866 63.3222C78.531 63.056 78.5814 62.7125 78.1606 62.6608C78.0827 62.6515 78.0656 62.5362 78.0408 62.4514C77.9878 62.2682 77.9168 62.0901 77.8501 61.9027C76.886 62.4225 75.9057 62.6405 74.851 62.4599C73.1906 62.1758 71.2617 61.1676 70.7082 58.9739C70.5731 58.438 70.3823 57.9148 70.3045 57.2831C69.5979 58.2853 69.1026 59.2995 68.5389 60.2738C68.4893 60.3603 68.4679 60.5401 68.3233 60.4756C68.189 60.4163 68.2789 60.2789 68.3208 60.1788C68.8015 59.0299 69.361 57.9241 70.0624 56.8879C70.798 55.8008 71.6458 54.8536 72.9357 54.4076C73.1941 54.3186 73.1829 54.1999 73.0512 54.0031C72.3198 52.9084 71.5859 51.8154 70.7784 50.7741C70.455 50.3569 70.0256 50.0474 69.5962 49.732C69.6176 49.9482 69.6809 50.1322 69.7365 50.3187C70.0607 51.4177 70.343 52.5243 70.3584 53.6792C70.3609 53.8904 70.3721 54.132 70.1368 54.2329C69.8614 54.3508 69.7844 54.0752 69.6407 53.9378C69.6244 53.9226 69.5902 53.9268 69.5192 53.9141C69.5457 54.2618 69.201 54.3771 69.0675 54.6357C69.0248 54.7188 69.0436 54.8511 68.905 54.8409C68.7878 54.8324 68.763 54.7146 68.7211 54.6281C68.438 54.043 68.1625 53.4537 67.8751 52.8703C67.5252 52.1614 67.136 51.4754 66.6476 50.8199C65.1404 52.9881 63.6571 55.136 62.2884 57.4221L62.2901 57.4213ZM63.125 103.483C63.1738 103.49 63.2234 103.499 63.2721 103.506C63.711 100.946 64.9966 98.739 66.1788 96.4936C67.0676 94.8053 67.9906 93.1332 68.9948 91.5076C69.2292 91.1277 69.3533 90.7046 69.3122 90.2535C69.1788 88.7772 68.9983 87.3085 68.6339 85.867C68.5783 85.6465 68.4799 85.5846 68.2729 85.6737C68.1292 85.7347 67.982 85.7907 67.834 85.8399C66.9196 86.146 66.0325 86.5657 65.0326 86.5199C62.7289 86.4131 60.563 85.856 58.6315 84.5628C58.3304 84.361 58.2586 84.4034 58.1799 84.7477C57.7821 86.4987 57.0687 88.0988 55.759 89.3818C55.5683 89.5692 55.6504 89.6871 55.7513 89.849C56.5503 91.1345 57.3193 92.437 58.0712 93.7505C59.5887 96.4012 61.084 99.0638 62.4065 101.817C62.6682 102.362 62.8872 102.927 63.1259 103.483H63.125ZM43.9843 60.8131C44.5463 60.1254 45.0544 59.5056 45.5591 58.8823C45.6113 58.8179 45.6412 58.7348 45.6746 58.6576C46.0766 57.7274 46.6318 56.8964 47.3307 56.1603C47.6352 55.8407 47.9218 55.504 48.1219 55.114C48.3691 54.6323 48.6993 54.21 49.0081 53.7708C50.5966 51.511 52.417 49.4326 54.1517 47.2873C55.2646 45.911 56.5452 44.6764 57.6144 43.2629C58.232 42.4463 58.2175 42.4954 57.3561 41.9205C55.9464 40.9793 54.1996 40.5367 53.0731 39.0095C53.1766 40.1695 53.0893 41.221 52.9054 42.2614C52.115 46.7251 49.8576 50.4358 46.8653 53.7649C46.7678 53.8734 46.6814 53.976 46.5069 53.9217C46.311 53.8607 46.3016 53.7182 46.305 53.5529C46.3221 52.8762 46.3427 52.2004 46.3469 51.5237C46.3504 51.0217 46.3743 50.5155 46.2152 50.0101C46.0193 50.3255 45.8542 50.6469 45.7122 50.9785C45.2623 52.0282 44.6301 52.9966 44.329 54.1125C44.1545 54.7587 44.1306 55.4218 44.0647 56.0789C43.9099 57.6214 43.7491 59.1664 43.9843 60.8148V60.8131ZM57.1671 56.592C57.1431 56.921 57.1311 57.1448 57.1097 57.3678C56.8095 60.5757 54.1936 62.5141 51.062 61.8527C48.7318 61.36 47.3187 59.1308 47.9064 56.8642C47.9859 56.5563 48.0988 56.257 48.2194 55.8814C47.9038 56.0968 47.7147 56.3189 47.5531 56.5691C47.1929 57.127 46.8713 57.7062 46.4616 58.2353C45.4231 59.5776 44.4787 60.9869 43.5147 62.381C43.4599 62.4599 43.4522 62.537 43.4676 62.6193C43.5395 63.0051 43.5626 63.4019 43.7157 63.8081C44.7251 62.9839 45.548 62.0164 46.388 61.037C46.4761 61.3728 46.7909 61.377 47.0133 61.5042C48.1929 62.1766 49.4581 62.6498 50.778 62.9534C52.4127 63.3299 54.0611 63.3935 55.6359 62.7193C56.9643 62.1512 58.2303 61.4432 59.5639 60.881C59.658 60.8411 59.7726 60.8114 59.6418 60.6817C59.102 60.1483 58.8984 59.4233 58.5468 58.7831C58.1465 58.0547 57.7513 57.3263 57.1688 56.5928L57.1671 56.592ZM67.74 56.3893C66.9855 56.4614 66.3294 56.6768 65.6724 56.8845C65.5569 56.921 65.5099 57.0346 65.4406 57.1236C64.9162 57.7927 64.3594 58.4329 63.7563 59.0358C62.6639 60.128 61.4749 61.1192 60.4082 62.2402C59.0319 63.6869 57.6418 65.1216 56.2235 66.5275C55.1577 67.5841 54.026 68.5737 52.9909 69.6658C51.4914 71.249 50.1048 72.9364 48.5205 74.4399C48.2733 74.6747 48.2451 74.8342 48.5009 75.0707C48.7181 75.2717 48.9269 75.4947 49.0843 75.7432C49.2784 76.0493 49.3931 75.9492 49.5641 75.7347C49.7583 75.4922 49.9688 75.259 50.1954 75.047C51.127 74.1761 52.0722 73.3222 52.8934 72.3412C54.1303 70.8649 55.357 69.3784 56.6512 67.9521C60.0686 64.1855 63.5373 60.4646 67.2635 56.9897C67.4354 56.8294 67.6108 56.6691 67.7391 56.3901L67.74 56.3893ZM48.6856 54.9698C49.376 54.5848 50.0646 54.2219 50.7771 53.9065C51.0226 53.7979 51.1946 53.6326 51.3545 53.4274C52.3767 52.1088 53.369 50.7648 54.4426 49.4877C56.3655 47.2008 58.2072 44.8502 60.0934 42.5336C60.3192 42.2563 60.3997 42.0028 60.0036 41.784C59.8069 41.6755 59.6324 41.5228 59.4579 41.3778C59.2816 41.232 59.191 41.254 59.078 41.466C58.3578 42.8202 57.4348 44.0387 56.4417 45.2038C54.174 47.8656 51.8678 50.4951 49.8345 53.3443C49.4504 53.8827 49.0073 54.3796 48.6856 54.969V54.9698ZM46.0989 68.1726C46.8303 66.7293 47.3931 65.3039 48.1852 63.9268C47.0681 64.0345 46.0262 64.1414 44.9826 64.2304C44.7225 64.2524 44.7636 64.3907 44.8098 64.5458C44.9928 65.1538 45.1673 65.7635 45.3684 66.3656C45.5642 66.9507 45.7695 67.5341 46.098 68.1726H46.0989ZM80.2598 59.5624C79.8252 60.1848 79.4523 60.7461 78.8749 61.0921C78.4429 61.3507 78.4018 61.695 78.4677 62.1266C78.4985 62.3293 78.5789 62.3598 78.7465 62.3021C79.3351 62.0986 79.9262 61.901 80.4505 61.5525C80.5489 61.4872 80.5823 61.4262 80.5617 61.3126C80.4633 60.7614 80.3701 60.2102 80.2589 59.5632L80.2598 59.5624ZM48.6223 75.967C48.4282 76.0179 48.3135 76.0756 48.4093 76.2935C48.6078 76.7455 48.7874 77.2051 48.9705 77.6638C49.1695 78.1624 49.494 78.2806 49.944 78.0182C50.0543 77.9547 50.1655 77.8902 50.2827 77.8402C50.4897 77.7511 50.5017 77.6485 50.3263 77.512C49.7771 77.083 49.2947 76.5835 48.8071 76.0908C48.7489 76.0323 48.6985 75.956 48.6223 75.9679V75.967Z" fill="white"/>
<path d="M49.5283 72.7249C49.8611 73.2769 50.051 73.8951 50.3358 74.4666C50.2948 74.6659 50.2101 74.6244 50.1271 74.4955C49.9731 74.2589 49.8098 74.0257 49.6789 73.7764C47.412 69.4603 45.4754 65.017 44.4592 60.2294C44.1897 58.9608 44.1076 57.6626 44.0597 56.3669C44.0554 56.249 44.0092 56.054 44.1615 56.0404C44.3403 56.0243 44.3591 56.2329 44.3548 56.3601C44.3334 56.9113 44.4352 57.4531 44.4557 58.0009C44.5148 59.5756 44.8578 61.1028 45.3 62.6045C45.862 64.5116 46.5489 66.3805 47.2795 68.229C47.8081 69.5663 48.4394 70.8645 49.1297 72.1305C49.2435 72.3391 49.3949 72.5273 49.5292 72.7249H49.5283Z" fill="white"/>
<path d="M50.5069 48.5377C50.317 48.3096 50.3461 48.0916 50.3461 47.8907C50.3504 46.2719 50.4966 44.6455 50.1066 43.048C49.8859 42.1449 49.6378 41.2486 49.4069 40.348C49.2383 39.69 48.9783 39.043 49.1365 38.2739C50.116 41.648 51.0433 44.9626 50.5069 48.5385V48.5377Z" fill="white"/>
<path d="M53.3655 34.4183C53.0139 34.1868 52.7196 33.873 52.5699 33.5177C52.25 32.7614 51.8386 32.0533 51.5007 31.3079C51.4656 31.2308 51.4305 31.1536 51.4057 31.0722C51.3835 30.9976 51.3228 30.8992 51.4314 30.8526C51.5272 30.811 51.5922 30.895 51.6316 30.9679C51.7787 31.241 51.9044 31.5267 52.0627 31.793C52.5084 32.5426 52.7077 33.4245 53.327 34.0808C53.398 34.1554 53.457 34.2707 53.3663 34.4174L53.3655 34.4183Z" fill="white"/>
<path d="M54.2697 35.2679C53.9789 35.1526 53.813 35.0542 53.7642 34.8414C53.7514 34.7837 53.8232 34.7371 53.8822 34.754C54.0961 34.8151 54.1842 34.977 54.2689 35.2679H54.2697Z" fill="white"/>
<path d="M76.3933 50.8679C76.2428 50.1378 75.8014 49.5298 75.5268 48.8506C74.9229 47.3565 74.2052 45.9098 73.3977 44.5175C72.3498 42.7096 71.1924 40.9662 69.8229 39.3754C69.4534 38.9464 69.1993 38.4249 68.7571 38.0577C67.9427 37.3802 67.1506 36.6781 66.2772 36.0676C64.9992 35.1738 63.7136 34.2902 62.3201 33.5873C61.2063 33.0251 60.0618 32.5171 58.9113 32.0321C57.4254 31.4072 56.1363 30.4998 54.8994 29.4916C53.8113 28.6046 53.05 27.4862 52.358 26.2939C51.8764 25.4646 51.3323 24.6684 50.6104 24.0129C50.8781 23.8069 51.0244 24.0129 51.1706 24.1825C51.7729 24.8821 52.3126 25.6258 52.7557 26.4347C54.1475 28.9727 56.3579 30.5914 58.9481 31.726C61.6657 32.9157 64.2978 34.2385 66.6818 36.0082C68.2883 37.2004 69.6236 38.647 70.8451 40.2276C73.2933 43.3956 75.1119 46.8901 76.5499 50.5974C76.6423 50.8365 76.638 50.8382 76.49 50.979C76.4575 50.9416 76.4258 50.9043 76.3942 50.8679H76.3933Z" fill="white"/>
<path d="M92.635 87.2352C92.6273 87.415 92.4716 87.4074 92.3604 87.432C90.2492 87.906 88.3211 88.8438 86.3571 89.7054C84.0612 90.7127 82.0912 92.1661 80.2546 93.8281C80.1109 93.9579 79.9783 94.1097 79.7251 94.1936C79.8491 93.8799 80.0313 93.6535 80.2418 93.472C81.9346 92.0101 83.6745 90.6237 85.754 89.7071C87.1689 89.0838 88.541 88.3639 90.0029 87.8458C90.6162 87.6287 91.2552 87.4913 91.86 87.2429C92.0721 87.1555 92.3305 87.1233 92.5717 87.2123C92.5922 87.22 92.6127 87.2276 92.6324 87.2352H92.635Z" fill="white"/>
<path d="M90.068 39.4636C91.979 40.449 93.2766 42.0847 94.6094 43.6822C95.6709 44.955 96.7975 46.1659 98.0593 47.2488C98.327 47.4786 98.5657 47.7431 98.8095 47.9992C98.871 48.0636 98.9814 48.1561 98.8967 48.2477C98.8154 48.3358 98.7162 48.2349 98.629 48.1951C98.12 47.7474 97.6119 47.2996 97.1029 46.8519C96.9053 46.483 96.7624 46.0574 96.2347 46.0345L96.2492 46.0472C96.1491 45.7665 95.9524 45.5427 95.7881 45.3018C95.6401 45.0848 95.434 44.9839 95.1662 45.106C95.0414 44.9822 94.9165 44.8584 94.7916 44.7346C94.9302 44.5633 94.9036 44.4267 94.7557 44.2563C94.2287 43.6509 93.7377 43.0157 93.2031 42.4171C92.5778 41.7167 92.0303 40.9331 91.1946 40.4413L91.21 40.4532C90.8233 40.1301 90.3383 39.9181 90.0671 39.4636H90.068Z" fill="white"/>
<path d="M69.3062 46.4211C68.402 44.3605 67.2668 42.4289 65.9957 40.5727C65.6048 40.002 65.1865 39.45 64.7819 38.8878C64.7246 38.8081 64.6698 38.7241 64.6262 38.636C64.5826 38.5495 64.5158 38.4291 64.6091 38.3646C64.7494 38.2671 64.8007 38.4265 64.8597 38.5079C66.4713 40.7304 68.0256 42.9877 69.1642 45.4968C69.3215 45.8436 69.4892 46.1862 69.6406 46.5356C69.6714 46.6059 69.7997 46.7891 69.5354 46.7119C69.4584 46.6144 69.3823 46.5186 69.3062 46.4228V46.4211Z" fill="white"/>
<path d="M79.4899 53.5762C79.4514 53.9756 79.5558 54.358 79.6028 54.754C78.9442 51.8048 77.8903 48.976 76.9485 46.0192C77.3317 46.5178 77.3847 47.0918 77.7663 47.4861C77.6277 47.7541 77.8997 47.8974 77.957 48.106C77.7423 48.4706 78.046 48.7479 78.1409 49.0489C78.2932 49.5323 78.3137 50.0784 78.732 50.454L78.7252 50.4353C78.5592 50.9331 78.9382 51.335 78.9775 51.8014C78.9938 51.9998 79.0545 52.2466 79.2444 52.4026L79.2367 52.384C79.188 52.8147 79.2915 53.2133 79.4993 53.5898L79.4882 53.5779L79.4899 53.5762Z" fill="white"/>
<path d="M83.5053 102.599C83.7738 101.767 84.0322 100.933 84.3128 100.106C84.5583 99.3848 84.7396 98.647 84.9192 97.9076C85.0116 97.5277 84.9423 97.275 84.5155 97.1462C84.0553 97.0071 83.6199 96.7866 83.1631 96.634C82.8902 96.5433 82.8569 96.4127 82.9407 96.1608C83.1691 95.474 83.4839 94.8287 83.8602 94.2148C84.4436 93.2633 85.0476 92.3238 85.6412 91.3792C85.8525 91.0425 86.0912 90.7271 86.3983 90.4693C86.518 90.3692 86.6506 90.259 86.8157 90.3743C86.9534 90.4702 86.9226 90.6092 86.8995 90.7568C86.7635 91.6217 86.5557 92.4705 86.2691 93.2956C86.0877 93.8171 85.9688 94.3496 85.8371 94.8821C85.7858 95.0882 85.8157 95.1857 86.0338 95.2493C86.4556 95.3722 86.8687 95.5257 87.2862 95.6639C88.0047 95.903 88.1655 96.2897 87.808 96.9384C86.8191 98.7344 85.696 100.446 84.4967 102.11C84.3025 102.38 84.045 102.576 83.773 102.758C83.7037 102.805 83.6216 102.872 83.548 102.8C83.5087 102.761 83.5189 102.671 83.5061 102.599H83.5053ZM83.9783 101.879C84.1442 101.833 84.1802 101.715 84.2452 101.628C85.4291 100.058 86.2357 98.2434 87.4829 96.7145C87.6129 96.5543 87.6087 96.4203 87.4342 96.2872C87.2981 96.1837 87.1664 96.0803 87.0022 96.0218C86.589 95.8742 86.1758 95.725 85.7635 95.5732C85.5069 95.4791 85.2554 95.3222 85.3572 95.0246C85.6087 94.2902 85.6583 93.5076 85.9526 92.7817C86.1596 92.2721 86.3178 91.7353 86.3563 91.0756C86.2178 91.2664 86.1297 91.3724 86.0578 91.4886C85.4351 92.4815 84.8115 93.4745 84.1947 94.4708C83.9047 94.9398 83.6832 95.4443 83.4548 95.9446C83.3581 96.1549 83.3983 96.26 83.619 96.3576C84.0108 96.5305 84.424 96.6323 84.8294 96.7612C85.4026 96.9426 85.6566 97.4268 85.4641 98.0009C85.2127 98.7497 84.9329 99.4865 84.5933 100.202C84.3418 100.733 84.1519 101.288 83.9791 101.877L83.9783 101.879Z" fill="white"/>
<path d="M37.3899 89.9614C38.2393 89.7884 39.0451 89.9571 39.8167 90.2938C40.9886 90.8051 42.1588 91.3173 43.3744 91.7234C45.1416 92.3145 46.8987 92.9386 48.5436 93.8179C50.109 94.6548 51.6154 95.5935 53.1021 96.5619C54.1833 97.2666 55.2714 97.9661 56.2415 98.8183C56.8308 99.3364 57.4023 99.8817 57.9839 100.405C58.7564 101.1 59.4339 101.868 60.1002 102.65C60.5305 103.155 60.8838 103.723 61.2721 104.262C61.3055 104.308 61.3474 104.35 61.3688 104.401C61.4253 104.534 61.6075 104.701 61.4381 104.807C61.2875 104.902 61.2208 104.675 61.1507 104.569C60.0848 102.975 58.871 101.511 57.457 100.201C55.4459 98.3401 53.1192 96.9265 50.8284 95.4477C48.1612 93.7255 45.2246 92.6418 42.2546 91.609C41.785 91.4462 41.3111 91.2817 40.8689 91.0595C39.7679 90.5066 38.6251 90.1004 37.3907 89.9605L37.3899 89.9614Z" fill="white"/>
<path d="M79.4787 94.4903C79.2469 94.9118 78.927 95.1958 78.6062 95.4578C77.2341 96.5755 76.1126 97.9254 74.9886 99.2711C73.5456 100.998 72.1367 102.752 70.8715 104.615C70.8125 104.702 70.7586 104.869 70.6312 104.801C70.4712 104.715 70.5918 104.575 70.656 104.476C71.3728 103.374 72.1914 102.347 72.9981 101.309C74.1178 99.8681 75.2991 98.4808 76.5001 97.108C77.2632 96.2354 78.1853 95.5223 78.9928 94.693C79.0955 94.5878 79.2118 94.4649 79.4796 94.4903H79.4787Z" fill="white"/>
<path d="M83.5102 76.3542C83.4324 76.6027 83.2245 76.729 83.0244 76.8639C82.6138 77.1412 82.2083 77.4252 81.7943 77.6974C81.7147 77.75 81.6104 77.895 81.5111 77.7517C81.4376 77.6448 81.5257 77.521 81.6241 77.4659C82.2613 77.1081 82.7737 76.5383 83.5205 76.3661L83.5102 76.3551V76.3542Z" fill="white"/>
<path d="M42.009 80.3998C42.6797 80.0556 43.3632 80.0411 44.0552 80.3286C44.1647 80.3744 44.3486 80.4134 44.2981 80.566C44.2425 80.7331 44.0774 80.6356 43.9688 80.5957C43.3324 80.3642 42.6805 80.3057 42.0116 80.399C42.0107 80.399 42.009 80.399 42.009 80.399V80.3998Z" fill="white"/>
<path d="M76.3839 43.1556C76.9802 43.8264 77.5122 44.4072 78.0246 45.005C79.9117 47.2055 81.5293 49.584 82.8637 52.1559C83.3427 53.0793 83.7157 54.0367 83.9638 55.0373C84.4051 56.8163 84.8115 58.603 85.2281 60.3879C85.2657 60.5507 85.2965 60.7254 85.2811 60.8899C85.2332 61.4207 85.175 61.9448 85.2725 62.4815C85.3187 62.7385 85.3059 63.1981 85.0544 63.2014C84.8303 63.2048 84.9826 62.7664 85.0074 62.5451C85.1357 61.3868 84.9526 60.2785 84.6267 59.1677C84.3726 58.3036 84.2247 57.4082 84.0339 56.5263C83.6695 54.8372 83.1186 53.2311 82.2949 51.6878C81.2453 49.7214 80.0015 47.8924 78.6337 46.1498C77.9682 45.3018 77.3591 44.392 76.549 43.6568C76.4472 43.5644 76.3489 43.4575 76.3839 43.1556Z" fill="white"/>
<path d="M86.009 49.8495C87.0962 51.8761 88.0329 53.89 88.2193 56.1931C88.3477 57.7805 88.4512 59.3695 88.523 60.9586C88.5949 62.546 88.2921 64.102 87.9875 65.6529C87.9661 65.7615 87.9713 65.9709 87.8096 65.9345C87.6402 65.8963 87.689 65.6894 87.7249 65.5664C87.9636 64.7499 88.0423 63.9053 88.1389 63.0684C88.2022 62.5248 88.2955 61.9821 88.3254 61.4386C88.3485 61.0265 88.227 60.6076 88.1732 60.1904C88.1535 60.0369 88.1124 59.8775 88.1338 59.7282C88.3006 58.5792 87.9875 57.4625 87.9277 56.3305C87.8823 55.4757 87.707 54.6549 87.5059 53.8391C87.2964 52.9895 86.8712 52.2111 86.5162 51.4114C86.3392 51.0129 86.2305 50.583 85.9782 50.2158C85.9157 50.1242 85.8704 49.9962 86.0081 49.8486L86.009 49.8495Z" fill="white"/>
<path d="M71.8219 72.6224C70.9118 73.5365 69.81 74.1733 68.6937 74.783C68.1993 75.0535 67.7065 75.3545 67.1146 75.3731C64.9342 75.4418 62.7511 75.5504 60.8692 74.1122C60.3945 73.7493 60.1284 73.2286 59.7016 72.836C59.504 72.6546 59.6169 72.4884 59.8906 72.4426C60.5639 72.329 61.2345 72.2052 61.906 72.0797C62.255 72.0144 62.61 71.9618 62.9487 71.86C63.7468 71.6184 64.533 71.5539 65.3294 71.8668C65.7802 72.044 66.2626 72.0245 66.7185 71.9152C67.5834 71.7091 68.4277 71.7786 69.2925 71.9279C70.1445 72.0754 71.0196 72.1059 71.8228 72.6215L71.8219 72.6224Z" fill="white"/>
<path d="M68.8604 65.6334C69.0751 66.1617 68.9665 66.556 68.6722 66.913C67.3429 68.525 64.3661 68.3198 63.2643 66.5424C63.1933 66.428 63.0667 66.2897 63.2224 66.1693C63.3755 66.0506 63.4842 66.2075 63.5817 66.2965C63.8537 66.545 64.0958 66.8282 64.3858 67.0529C65.4739 67.8966 67.5448 67.6651 68.4473 66.6264C68.6791 66.3593 68.7056 66.0158 68.8604 65.6326V65.6334Z" fill="white"/>
<path d="M65.722 38.7632C65.4637 38.6047 65.2045 38.4478 64.9487 38.2858C64.8888 38.2477 64.8409 38.1849 64.8846 38.1094C64.9248 38.0391 65.0052 38.0255 65.0676 38.0611C65.3516 38.2197 65.6656 38.3486 65.7973 38.6742C65.7725 38.7039 65.7468 38.7335 65.722 38.7632Z" fill="white"/>
</g>
<defs>
<clipPath id="clip0_704_336">
<rect width="132" height="132" fill="white" transform="translate(0 0.236572)"/>
</clipPath>
<clipPath id="clip1_704_336">
<rect width="74" height="87" fill="white" transform="translate(29 18)"/>
</clipPath>
</defs>
</svg>
