<svg width="132" height="163" viewBox="0 0 132 163" fill="none" xmlns="http://www.w3.org/2000/svg">
<path d="M46.1172 147.625V159H44.1562V147.625H46.1172ZM50.7578 152.602V154.156H45.6172V152.602H50.7578ZM51.4062 147.625V149.188H45.6172V147.625H51.4062ZM54.7969 150.547V159H52.9062V150.547H54.7969ZM52.7812 148.328C52.7812 148.042 52.875 147.805 53.0625 147.617C53.2552 147.424 53.5208 147.328 53.8594 147.328C54.1927 147.328 54.4557 147.424 54.6484 147.617C54.8411 147.805 54.9375 148.042 54.9375 148.328C54.9375 148.609 54.8411 148.844 54.6484 149.031C54.4557 149.219 54.1927 149.312 53.8594 149.312C53.5208 149.312 53.2552 149.219 53.0625 149.031C52.875 148.844 52.7812 148.609 52.7812 148.328ZM62.2734 150.547H63.9844V158.766C63.9844 159.526 63.8229 160.172 63.5 160.703C63.1771 161.234 62.7266 161.638 62.1484 161.914C61.5703 162.195 60.901 162.336 60.1406 162.336C59.8177 162.336 59.4583 162.289 59.0625 162.195C58.6719 162.102 58.2917 161.951 57.9219 161.742C57.5573 161.539 57.2526 161.271 57.0078 160.938L57.8906 159.828C58.1927 160.188 58.526 160.451 58.8906 160.617C59.2552 160.784 59.638 160.867 60.0391 160.867C60.4714 160.867 60.8385 160.786 61.1406 160.625C61.4479 160.469 61.6849 160.237 61.8516 159.93C62.0182 159.622 62.1016 159.247 62.1016 158.805V152.461L62.2734 150.547ZM56.5312 154.867V154.703C56.5312 154.062 56.6094 153.479 56.7656 152.953C56.9219 152.422 57.1458 151.966 57.4375 151.586C57.7292 151.201 58.0833 150.906 58.5 150.703C58.9167 150.495 59.388 150.391 59.9141 150.391C60.4609 150.391 60.9271 150.49 61.3125 150.688C61.7031 150.885 62.0286 151.169 62.2891 151.539C62.5495 151.904 62.7526 152.341 62.8984 152.852C63.0495 153.357 63.1615 153.919 63.2344 154.539V155.062C63.1667 155.667 63.0521 156.219 62.8906 156.719C62.7292 157.219 62.5156 157.651 62.25 158.016C61.9844 158.38 61.6562 158.661 61.2656 158.859C60.8802 159.057 60.4245 159.156 59.8984 159.156C59.3828 159.156 58.9167 159.049 58.5 158.836C58.0885 158.622 57.7344 158.323 57.4375 157.938C57.1458 157.552 56.9219 157.099 56.7656 156.578C56.6094 156.052 56.5312 155.482 56.5312 154.867ZM58.4141 154.703V154.867C58.4141 155.253 58.4505 155.612 58.5234 155.945C58.6016 156.279 58.7188 156.573 58.875 156.828C59.0365 157.078 59.2396 157.276 59.4844 157.422C59.7344 157.562 60.0286 157.633 60.3672 157.633C60.8099 157.633 61.1719 157.539 61.4531 157.352C61.7396 157.164 61.9583 156.911 62.1094 156.594C62.2656 156.271 62.375 155.911 62.4375 155.516V154.102C62.4062 153.794 62.3411 153.508 62.2422 153.242C62.1484 152.977 62.0208 152.745 61.8594 152.547C61.6979 152.344 61.4948 152.188 61.25 152.078C61.0052 151.964 60.7161 151.906 60.3828 151.906C60.0443 151.906 59.75 151.979 59.5 152.125C59.25 152.271 59.0443 152.471 58.8828 152.727C58.7266 152.982 58.6094 153.279 58.5312 153.617C58.4531 153.956 58.4141 154.318 58.4141 154.703ZM67.8203 152.266V159H65.9375V150.547H67.7109L67.8203 152.266ZM67.5156 154.461L66.875 154.453C66.875 153.87 66.9479 153.331 67.0938 152.836C67.2396 152.341 67.4531 151.911 67.7344 151.547C68.0156 151.177 68.3646 150.893 68.7812 150.695C69.2031 150.492 69.6901 150.391 70.2422 150.391C70.6276 150.391 70.9792 150.448 71.2969 150.562C71.6198 150.672 71.8984 150.846 72.1328 151.086C72.3724 151.326 72.5547 151.633 72.6797 152.008C72.8099 152.383 72.875 152.836 72.875 153.367V159H70.9922V153.531C70.9922 153.12 70.9297 152.797 70.8047 152.562C70.6849 152.328 70.5104 152.161 70.2812 152.062C70.0573 151.958 69.7891 151.906 69.4766 151.906C69.1224 151.906 68.8203 151.974 68.5703 152.109C68.3255 152.245 68.125 152.43 67.9688 152.664C67.8125 152.898 67.6979 153.169 67.625 153.477C67.5521 153.784 67.5156 154.112 67.5156 154.461ZM72.7578 153.961L71.875 154.156C71.875 153.646 71.9453 153.164 72.0859 152.711C72.2318 152.253 72.4427 151.852 72.7188 151.508C73 151.159 73.3464 150.885 73.7578 150.688C74.1693 150.49 74.6406 150.391 75.1719 150.391C75.6042 150.391 75.9896 150.451 76.3281 150.57C76.6719 150.685 76.9635 150.867 77.2031 151.117C77.4427 151.367 77.625 151.693 77.75 152.094C77.875 152.49 77.9375 152.969 77.9375 153.531V159H76.0469V153.523C76.0469 153.096 75.9844 152.766 75.8594 152.531C75.7396 152.297 75.5677 152.135 75.3438 152.047C75.1198 151.953 74.8516 151.906 74.5391 151.906C74.2474 151.906 73.9896 151.961 73.7656 152.07C73.5469 152.174 73.362 152.323 73.2109 152.516C73.0599 152.703 72.9453 152.919 72.8672 153.164C72.7943 153.409 72.7578 153.674 72.7578 153.961ZM84.6406 157.305V153.273C84.6406 152.971 84.5859 152.711 84.4766 152.492C84.3672 152.273 84.2005 152.104 83.9766 151.984C83.7578 151.865 83.4818 151.805 83.1484 151.805C82.8411 151.805 82.5755 151.857 82.3516 151.961C82.1276 152.065 81.9531 152.206 81.8281 152.383C81.7031 152.56 81.6406 152.76 81.6406 152.984H79.7656C79.7656 152.651 79.8464 152.328 80.0078 152.016C80.1693 151.703 80.4036 151.424 80.7109 151.18C81.0182 150.935 81.3854 150.742 81.8125 150.602C82.2396 150.461 82.7188 150.391 83.25 150.391C83.8854 150.391 84.4479 150.497 84.9375 150.711C85.4323 150.924 85.8203 151.247 86.1016 151.68C86.388 152.107 86.5312 152.643 86.5312 153.289V157.047C86.5312 157.432 86.5573 157.779 86.6094 158.086C86.6667 158.388 86.7474 158.651 86.8516 158.875V159H84.9219C84.8333 158.797 84.763 158.539 84.7109 158.227C84.6641 157.909 84.6406 157.602 84.6406 157.305ZM84.9141 153.859L84.9297 155.023H83.5781C83.2292 155.023 82.9219 155.057 82.6562 155.125C82.3906 155.188 82.1693 155.281 81.9922 155.406C81.8151 155.531 81.6823 155.682 81.5938 155.859C81.5052 156.036 81.4609 156.237 81.4609 156.461C81.4609 156.685 81.513 156.891 81.6172 157.078C81.7214 157.26 81.8724 157.404 82.0703 157.508C82.2734 157.612 82.5182 157.664 82.8047 157.664C83.1901 157.664 83.526 157.586 83.8125 157.43C84.1042 157.268 84.3333 157.073 84.5 156.844C84.6667 156.609 84.7552 156.388 84.7656 156.18L85.375 157.016C85.3125 157.229 85.2057 157.458 85.0547 157.703C84.9036 157.948 84.7057 158.182 84.4609 158.406C84.2214 158.625 83.9323 158.805 83.5938 158.945C83.2604 159.086 82.875 159.156 82.4375 159.156C81.8854 159.156 81.3932 159.047 80.9609 158.828C80.5286 158.604 80.1901 158.305 79.9453 157.93C79.7005 157.549 79.5781 157.12 79.5781 156.641C79.5781 156.193 79.6615 155.797 79.8281 155.453C80 155.104 80.25 154.812 80.5781 154.578C80.9115 154.344 81.3177 154.167 81.7969 154.047C82.276 153.922 82.8229 153.859 83.4375 153.859H84.9141Z" fill="white"/>
<g clipPath="url(#clip0_90_1136)">
<path d="M66 132C52.9464 132 40.186 128.129 29.3324 120.877C18.4787 113.625 10.0193 103.317 5.02395 91.2571C0.0285675 79.1972 -1.27845 65.9268 1.26817 53.124C3.81479 40.3213 10.1007 28.5612 19.331 19.3309C28.5612 10.1007 40.3213 3.81479 53.124 1.26816C65.9268 -1.27846 79.1972 0.0285833 91.2571 5.02397C103.317 10.0194 113.625 18.4788 120.877 29.3324C128.129 40.1861 132 52.9465 132 66C131.98 83.4982 125.02 100.274 112.647 112.647C100.274 125.02 83.4982 131.98 66 132V132ZM66 4.58685C53.852 4.57939 41.9747 8.17488 31.8704 14.9185C21.7661 21.6621 13.8887 31.251 9.23475 42.4721C4.58075 53.6932 3.35918 66.0426 5.72457 77.958C8.08995 89.8735 13.936 100.82 22.5233 109.412C31.1106 118.005 42.0533 123.858 53.9673 126.23C65.8813 128.603 78.2314 127.389 89.4554 122.742C100.679 118.095 110.273 110.223 117.023 100.123C123.773 90.0232 127.375 78.148 127.375 66C127.359 49.7239 120.888 34.1185 109.383 22.606C97.8775 11.0935 82.2762 4.61346 66 4.58685V4.58685Z" fill="white"/>
<path d="M52.3401 106.967C55.9629 106.967 59.4374 105.528 61.9991 102.966C64.5608 100.405 66 96.9301 66 93.3073V79.5971H52.3401C48.7172 79.5971 45.2428 81.0363 42.681 83.598C40.1193 86.1598 38.6801 89.6342 38.6801 93.257C38.6801 96.8799 40.1193 100.354 42.681 102.916C45.2428 105.478 48.7172 106.917 52.3401 106.917V106.967Z" fill="white"/>
<path d="M38.6927 66C38.6927 62.3793 40.1301 58.9067 42.6891 56.3454C45.2482 53.784 48.7194 52.3434 52.3401 52.3401H66V79.5971H52.3401C48.7292 79.5971 45.2656 78.1662 42.7076 75.6176C40.1497 73.0691 38.706 69.6108 38.6927 66V66Z" fill="white"/>
<path d="M38.6927 38.6927C38.6927 35.072 40.1301 31.5995 42.6891 29.0381C45.2482 26.4767 48.7194 25.0361 52.3401 25.0328H66V52.3401H52.3401C48.7216 52.3367 45.2522 50.8979 42.6936 48.3392C40.1349 45.7805 38.696 42.3112 38.6927 38.6927V38.6927Z" fill="white"/>
<path d="M66 25.0328H79.6222C83.1717 25.1405 86.5397 26.6262 89.0124 29.175C91.485 31.7238 92.8679 35.1353 92.8679 38.6864C92.8679 42.2375 91.485 45.649 89.0124 48.1978C86.5397 50.7466 83.1717 52.2324 79.6222 52.3401H66V25.0328Z" fill="white"/>
<path d="M93.3073 66C93.3073 68.7006 92.5068 71.3406 91.0069 73.5864C89.5071 75.8323 87.3752 77.5831 84.8806 78.6177C82.386 79.6523 79.6408 79.9243 76.9917 79.3993C74.3426 78.8742 71.9086 77.5757 69.9972 75.6679C68.0859 73.76 66.7829 71.3284 66.253 68.6803C65.7231 66.0322 65.99 63.2864 67.02 60.7899C68.0501 58.2935 69.797 56.1583 72.04 54.6543C74.2831 53.1503 76.9216 52.345 79.6222 52.34C81.4187 52.3351 83.1984 52.6848 84.8593 53.3692C86.5203 54.0536 88.0298 55.0592 89.3012 56.3283C90.5727 57.5974 91.581 59.1051 92.2685 60.7648C92.9559 62.4245 93.309 64.2035 93.3073 66V66Z" fill="white"/>
</g>
<defs>
<clipPath id="clip0_90_1136">
<rect width="132" height="132" fill="white"/>
</clipPath>
</defs>
</svg>
