<svg width="133" height="164" viewBox="0 0 133 164" fill="none" xmlns="http://www.w3.org/2000/svg">
<path d="M39.1172 147.862V159.237H37.1562V147.862H39.1172ZM43.7578 152.838V154.393H38.6172V152.838H43.7578ZM44.4062 147.862V149.424H38.6172V147.862H44.4062ZM47.7969 150.783V159.237H45.9062V150.783H47.7969ZM45.7812 148.565C45.7812 148.278 45.875 148.041 46.0625 147.854C46.2552 147.661 46.5208 147.565 46.8594 147.565C47.1927 147.565 47.4557 147.661 47.6484 147.854C47.8411 148.041 47.9375 148.278 47.9375 148.565C47.9375 148.846 47.8411 149.08 47.6484 149.268C47.4557 149.455 47.1927 149.549 46.8594 149.549C46.5208 149.549 46.2552 149.455 46.0625 149.268C45.875 149.08 45.7812 148.846 45.7812 148.565ZM51.75 152.393V159.237H49.8672V150.783H51.6641L51.75 152.393ZM54.3359 150.729L54.3203 152.479C54.2057 152.458 54.0807 152.442 53.9453 152.432C53.8151 152.421 53.6849 152.416 53.5547 152.416C53.2318 152.416 52.9479 152.463 52.7031 152.557C52.4583 152.645 52.2526 152.776 52.0859 152.948C51.9245 153.114 51.7995 153.317 51.7109 153.557C51.6224 153.796 51.5703 154.065 51.5547 154.362L51.125 154.393C51.125 153.862 51.1771 153.369 51.2812 152.916C51.3854 152.463 51.5417 152.065 51.75 151.721C51.9635 151.377 52.2292 151.109 52.5469 150.916C52.8698 150.724 53.2422 150.627 53.6641 150.627C53.7786 150.627 53.901 150.638 54.0312 150.658C54.1667 150.679 54.2682 150.703 54.3359 150.729ZM59.0859 159.393C58.4609 159.393 57.8958 159.291 57.3906 159.088C56.8906 158.88 56.4635 158.591 56.1094 158.221C55.7604 157.851 55.4922 157.416 55.3047 156.916C55.1172 156.416 55.0234 155.877 55.0234 155.299V154.987C55.0234 154.325 55.1198 153.726 55.3125 153.19C55.5052 152.653 55.7734 152.195 56.1172 151.815C56.4609 151.429 56.8672 151.135 57.3359 150.932C57.8047 150.729 58.3125 150.627 58.8594 150.627C59.4635 150.627 59.9922 150.729 60.4453 150.932C60.8984 151.135 61.2734 151.421 61.5703 151.791C61.8724 152.156 62.0964 152.591 62.2422 153.096C62.3932 153.601 62.4688 154.158 62.4688 154.768V155.573H55.9375V154.221H60.6094V154.073C60.599 153.734 60.5312 153.416 60.4062 153.119C60.2865 152.823 60.1016 152.583 59.8516 152.401C59.6016 152.218 59.2682 152.127 58.8516 152.127C58.5391 152.127 58.2604 152.195 58.0156 152.33C57.776 152.461 57.5755 152.651 57.4141 152.901C57.2526 153.151 57.1276 153.453 57.0391 153.807C56.9557 154.156 56.9141 154.549 56.9141 154.987V155.299C56.9141 155.669 56.9635 156.013 57.0625 156.33C57.1667 156.643 57.3177 156.916 57.5156 157.151C57.7135 157.385 57.9531 157.57 58.2344 157.705C58.5156 157.836 58.8359 157.901 59.1953 157.901C59.6484 157.901 60.0521 157.809 60.4062 157.627C60.7604 157.445 61.0677 157.187 61.3281 156.854L62.3203 157.815C62.138 158.08 61.901 158.336 61.6094 158.58C61.3177 158.82 60.9609 159.015 60.5391 159.166C60.1224 159.317 59.638 159.393 59.0859 159.393ZM63.9453 147.237H65.8281V157.432L65.6484 159.237H63.9453V147.237ZM71.3438 154.932V155.096C71.3438 155.721 71.2734 156.296 71.1328 156.823C70.9974 157.343 70.7891 157.796 70.5078 158.182C70.2318 158.567 69.888 158.867 69.4766 159.08C69.0703 159.289 68.599 159.393 68.0625 159.393C67.5365 159.393 67.0781 159.294 66.6875 159.096C66.2969 158.898 65.9688 158.617 65.7031 158.252C65.4427 157.888 65.2318 157.453 65.0703 156.948C64.9089 156.442 64.7943 155.885 64.7266 155.276V154.752C64.7943 154.138 64.9089 153.58 65.0703 153.08C65.2318 152.575 65.4427 152.14 65.7031 151.776C65.9688 151.406 66.2943 151.122 66.6797 150.924C67.0703 150.726 67.526 150.627 68.0469 150.627C68.5885 150.627 69.0651 150.731 69.4766 150.94C69.8932 151.148 70.2396 151.445 70.5156 151.83C70.7917 152.211 70.9974 152.664 71.1328 153.19C71.2734 153.716 71.3438 154.296 71.3438 154.932ZM69.4609 155.096V154.932C69.4609 154.552 69.4297 154.195 69.3672 153.862C69.3047 153.523 69.2005 153.226 69.0547 152.971C68.9141 152.716 68.7214 152.515 68.4766 152.369C68.237 152.218 67.9375 152.143 67.5781 152.143C67.2448 152.143 66.9583 152.2 66.7188 152.315C66.4792 152.429 66.2786 152.586 66.1172 152.783C65.9557 152.981 65.8281 153.211 65.7344 153.471C65.6458 153.731 65.5859 154.013 65.5547 154.315V155.729C65.6016 156.119 65.7005 156.479 65.8516 156.807C66.0078 157.13 66.2266 157.39 66.5078 157.588C66.7891 157.781 67.151 157.877 67.5938 157.877C67.9427 157.877 68.237 157.807 68.4766 157.666C68.7161 157.526 68.9062 157.33 69.0469 157.08C69.1927 156.825 69.2969 156.528 69.3594 156.19C69.4271 155.851 69.4609 155.487 69.4609 155.096ZM77.7031 157.541V153.51C77.7031 153.208 77.6484 152.948 77.5391 152.729C77.4297 152.51 77.263 152.341 77.0391 152.221C76.8203 152.101 76.5443 152.041 76.2109 152.041C75.9036 152.041 75.638 152.093 75.4141 152.198C75.1901 152.302 75.0156 152.442 74.8906 152.619C74.7656 152.796 74.7031 152.997 74.7031 153.221H72.8281C72.8281 152.888 72.9089 152.565 73.0703 152.252C73.2318 151.94 73.4661 151.661 73.7734 151.416C74.0807 151.171 74.4479 150.979 74.875 150.838C75.3021 150.698 75.7812 150.627 76.3125 150.627C76.9479 150.627 77.5104 150.734 78 150.948C78.4948 151.161 78.8828 151.484 79.1641 151.916C79.4505 152.343 79.5938 152.88 79.5938 153.526V157.283C79.5938 157.669 79.6198 158.015 79.6719 158.323C79.7292 158.625 79.8099 158.888 79.9141 159.112V159.237H77.9844C77.8958 159.033 77.8255 158.776 77.7734 158.463C77.7266 158.145 77.7031 157.838 77.7031 157.541ZM77.9766 154.096L77.9922 155.26H76.6406C76.2917 155.26 75.9844 155.294 75.7188 155.362C75.4531 155.424 75.2318 155.518 75.0547 155.643C74.8776 155.768 74.7448 155.919 74.6562 156.096C74.5677 156.273 74.5234 156.474 74.5234 156.698C74.5234 156.921 74.5755 157.127 74.6797 157.315C74.7839 157.497 74.9349 157.64 75.1328 157.744C75.3359 157.849 75.5807 157.901 75.8672 157.901C76.2526 157.901 76.5885 157.823 76.875 157.666C77.1667 157.505 77.3958 157.309 77.5625 157.08C77.7292 156.846 77.8177 156.625 77.8281 156.416L78.4375 157.252C78.375 157.466 78.2682 157.695 78.1172 157.94C77.9661 158.184 77.7682 158.419 77.5234 158.643C77.2839 158.862 76.9948 159.041 76.6562 159.182C76.3229 159.323 75.9375 159.393 75.5 159.393C74.9479 159.393 74.4557 159.283 74.0234 159.065C73.5911 158.841 73.2526 158.541 73.0078 158.166C72.763 157.786 72.6406 157.356 72.6406 156.877C72.6406 156.429 72.724 156.033 72.8906 155.69C73.0625 155.341 73.3125 155.049 73.6406 154.815C73.974 154.58 74.3802 154.403 74.8594 154.283C75.3385 154.158 75.8854 154.096 76.5 154.096H77.9766ZM86.3047 156.948C86.3047 156.76 86.2578 156.591 86.1641 156.44C86.0703 156.283 85.8906 156.143 85.625 156.018C85.3646 155.893 84.9792 155.778 84.4688 155.674C84.0208 155.575 83.6094 155.458 83.2344 155.323C82.8646 155.182 82.5469 155.013 82.2812 154.815C82.0156 154.617 81.8099 154.382 81.6641 154.112C81.5182 153.841 81.4453 153.528 81.4453 153.174C81.4453 152.83 81.5208 152.505 81.6719 152.198C81.8229 151.89 82.0391 151.619 82.3203 151.385C82.6016 151.151 82.9427 150.966 83.3438 150.83C83.75 150.695 84.2031 150.627 84.7031 150.627C85.4115 150.627 86.0182 150.747 86.5234 150.987C87.0339 151.221 87.4245 151.541 87.6953 151.948C87.9661 152.349 88.1016 152.802 88.1016 153.307H86.2188C86.2188 153.083 86.1615 152.875 86.0469 152.682C85.9375 152.484 85.7708 152.325 85.5469 152.205C85.3229 152.08 85.0417 152.018 84.7031 152.018C84.3802 152.018 84.112 152.07 83.8984 152.174C83.6901 152.273 83.5339 152.403 83.4297 152.565C83.3307 152.726 83.2812 152.903 83.2812 153.096C83.2812 153.237 83.3073 153.364 83.3594 153.479C83.4167 153.588 83.5104 153.69 83.6406 153.783C83.7708 153.872 83.9479 153.955 84.1719 154.033C84.401 154.112 84.6875 154.187 85.0312 154.26C85.6771 154.395 86.2318 154.57 86.6953 154.783C87.1641 154.992 87.5234 155.263 87.7734 155.596C88.0234 155.924 88.1484 156.341 88.1484 156.846C88.1484 157.221 88.0677 157.565 87.9062 157.877C87.75 158.184 87.5208 158.453 87.2188 158.682C86.9167 158.906 86.5547 159.08 86.1328 159.205C85.7161 159.33 85.2474 159.393 84.7266 159.393C83.9609 159.393 83.3125 159.257 82.7812 158.987C82.25 158.711 81.8464 158.359 81.5703 157.932C81.2995 157.5 81.1641 157.052 81.1641 156.588H82.9844C83.0052 156.937 83.1016 157.216 83.2734 157.424C83.4505 157.627 83.6693 157.776 83.9297 157.869C84.1953 157.958 84.4688 158.002 84.75 158.002C85.0885 158.002 85.3724 157.958 85.6016 157.869C85.8307 157.776 86.0052 157.651 86.125 157.494C86.2448 157.333 86.3047 157.151 86.3047 156.948ZM93.5234 159.393C92.8984 159.393 92.3333 159.291 91.8281 159.088C91.3281 158.88 90.901 158.591 90.5469 158.221C90.1979 157.851 89.9297 157.416 89.7422 156.916C89.5547 156.416 89.4609 155.877 89.4609 155.299V154.987C89.4609 154.325 89.5573 153.726 89.75 153.19C89.9427 152.653 90.2109 152.195 90.5547 151.815C90.8984 151.429 91.3047 151.135 91.7734 150.932C92.2422 150.729 92.75 150.627 93.2969 150.627C93.901 150.627 94.4297 150.729 94.8828 150.932C95.3359 151.135 95.7109 151.421 96.0078 151.791C96.3099 152.156 96.5339 152.591 96.6797 153.096C96.8307 153.601 96.9062 154.158 96.9062 154.768V155.573H90.375V154.221H95.0469V154.073C95.0365 153.734 94.9688 153.416 94.8438 153.119C94.724 152.823 94.5391 152.583 94.2891 152.401C94.0391 152.218 93.7057 152.127 93.2891 152.127C92.9766 152.127 92.6979 152.195 92.4531 152.33C92.2135 152.461 92.013 152.651 91.8516 152.901C91.6901 153.151 91.5651 153.453 91.4766 153.807C91.3932 154.156 91.3516 154.549 91.3516 154.987V155.299C91.3516 155.669 91.401 156.013 91.5 156.33C91.6042 156.643 91.7552 156.916 91.9531 157.151C92.151 157.385 92.3906 157.57 92.6719 157.705C92.9531 157.836 93.2734 157.901 93.6328 157.901C94.0859 157.901 94.4896 157.809 94.8438 157.627C95.1979 157.445 95.5052 157.187 95.7656 156.854L96.7578 157.815C96.5755 158.08 96.3385 158.336 96.0469 158.58C95.7552 158.82 95.3984 159.015 94.9766 159.166C94.5599 159.317 94.0755 159.393 93.5234 159.393Z" fill="white"/>
<path d="M66.9549 132.249C53.8977 132.252 41.1331 128.382 30.2755 121.129C19.4179 113.877 10.9549 103.567 5.95704 91.5043C0.959145 79.4416 -0.349194 66.1676 2.19751 53.3613C4.74422 40.5549 11.0316 28.7914 20.2643 19.5587C29.4971 10.3259 41.2606 4.03853 54.067 1.49182C66.8733 -1.05489 80.1473 0.253485 92.21 5.25138C104.273 10.2493 114.582 18.7122 121.835 29.5698C129.088 40.4274 132.957 53.192 132.955 66.2491C132.935 83.7473 125.975 100.523 113.602 112.896C101.229 125.269 84.453 132.229 66.9549 132.249V132.249ZM66.9549 4.83597C54.8085 4.83597 42.9349 8.43779 32.8355 15.186C22.7362 21.9341 14.8647 31.5256 10.2165 42.7474C5.56826 53.9691 4.35208 66.3173 6.72172 78.2303C9.09137 90.1433 14.9404 101.086 23.5292 109.675C32.118 118.264 43.0608 124.113 54.9737 126.482C66.8867 128.852 79.2349 127.636 90.4567 122.987C101.678 118.339 111.27 110.468 118.018 100.368C124.766 90.2691 128.368 78.3955 128.368 66.2491C128.365 49.9577 121.895 34.3339 110.38 22.8094C98.8649 11.2849 83.2462 4.80238 66.9549 4.78573V4.83597Z" fill="white"/>
<path d="M40.6427 77.9372L48.3289 28.4982C48.3846 28.1317 48.5544 27.7921 48.8142 27.5278C49.0741 27.2634 49.4107 27.0878 49.7762 27.0259C50.1416 26.9639 50.5173 27.0189 50.8497 27.1829C51.1822 27.3468 51.4544 27.6115 51.6277 27.9392L59.8924 43.4449L40.6427 77.9372ZM95.2264 89.9329L87.9074 44.4362C87.8536 44.1173 87.7132 43.8193 87.5015 43.5748C87.2899 43.3303 87.0151 43.1486 86.7072 43.0497C86.3993 42.9507 86.0701 42.9383 85.7556 43.0137C85.4411 43.0892 85.1534 43.2496 84.9239 43.4774L38.7739 89.9329L64.3092 104.324C65.0967 104.766 65.9848 104.999 66.888 104.999C67.7913 104.999 68.6794 104.766 69.4669 104.324L95.2264 89.9329ZM74.4752 50.2309L68.5602 38.9144C68.4109 38.6299 68.1867 38.3915 67.9117 38.2252C67.6367 38.0589 67.3215 37.971 67.0002 37.971C66.6788 37.971 66.3636 38.0589 66.0886 38.2252C65.8137 38.3915 65.5894 38.6299 65.4402 38.9144L39.4727 85.4479L74.4752 50.2309Z" fill="white"/>
</svg>
