<svg width="132" height="163" viewBox="0 0 132 163" fill="none" xmlns="http://www.w3.org/2000/svg">
<g clipPath="url(#clip0_4_595)">
<path d="M65.97 132.06C52.9105 132.06 40.1442 128.187 29.2856 120.932C18.4271 113.676 9.96388 103.364 4.96622 91.2986C-0.0314317 79.2332 -1.33907 65.9568 1.20871 53.1482C3.75649 40.3397 10.0452 28.5742 19.2797 19.3398C28.5142 10.1053 40.2796 3.81655 53.0882 1.26877C65.8967 -1.27901 79.1731 0.0286269 91.2385 5.02628C103.304 10.0239 113.616 18.4872 120.872 29.3458C128.127 40.2044 132 52.9705 132 66.03C131.98 83.5362 125.017 100.32 112.638 112.698C100.259 125.077 83.4761 132.04 65.97 132.06ZM65.97 4.58897C53.8176 4.58648 41.9373 8.1878 31.8317 14.9375C21.7261 21.6872 13.8491 31.2822 9.19681 42.5088C4.54455 53.7355 3.32607 66.0897 5.69536 78.0089C8.06466 89.9282 13.9153 100.877 22.5075 109.471C31.0997 118.065 42.0475 123.918 53.9662 126.29C65.885 128.661 78.2393 127.445 89.467 122.795C100.695 118.145 110.291 110.27 117.043 100.166C123.795 90.062 127.398 78.1825 127.398 66.03C127.382 49.7421 120.905 34.1259 109.389 22.6075C97.8728 11.089 82.2579 4.60893 65.97 4.58897V4.58897Z" fill="white"/>
<path fillRule="evenodd" clipRule="evenodd" d="M82.9301 41.011C82.5736 41.0114 82.2186 41.0579 81.874 41.1493V41.1493C82.1224 41.5226 82.3999 41.8757 82.7038 42.2054C82.905 42.6203 83.081 43.0226 83.2947 43.4626C83.4825 43.3147 83.6304 43.1223 83.7248 42.9027C83.8192 42.6831 83.8572 42.4434 83.8353 42.2054C83.6719 42.0168 83.6593 41.8408 83.521 41.6648C83.3827 41.4888 83.0307 41.2751 82.8295 41.0613" fill="white"/>
<path d="M41.9818 91.8159H38.449C38.3233 85.8063 37.9754 80.1487 37.4054 74.8432L31.9868 91.8159H29.2712L23.8651 74.8432C23.4628 79.9308 23.2113 85.5884 23.1107 91.8159H19.8545C20.064 84.2725 20.592 77.1733 21.4385 70.5183H25.8515L30.9056 86.1709L36.0728 70.5183H40.3097C41.2316 78.2713 41.7765 85.3705 41.9441 91.8159" fill="white"/>
<path d="M57.4458 76.1005C55.9958 83.9791 54.0806 89.7037 51.7002 93.2743C49.8521 96.0276 47.8154 97.398 45.6153 97.398C44.8634 97.3613 44.1252 97.1821 43.4402 96.87V94.9716C43.9315 95.0421 44.4275 95.0756 44.9238 95.0721C45.8405 95.1197 46.7406 94.8137 47.4383 94.2172C47.7839 93.9317 48.0638 93.575 48.2591 93.1714C48.4544 92.7679 48.5603 92.327 48.5697 91.8788C48.4257 90.6403 48.1301 89.4243 47.6896 88.2579L43.7797 76.1005H47.2496L50.0658 85.1903C50.5881 86.572 50.8523 88.038 50.8453 89.5151C52.4447 85.1865 53.5251 80.6836 54.0638 76.1005H57.4458Z" fill="white"/>
<path d="M104.907 91.8159H94.7732V70.5183H98.1803V89.2008H104.907V91.8159Z" fill="white"/>
<path fillRule="evenodd" clipRule="evenodd" d="M92.1205 92.3314L88.2105 90.4078C88.5647 90.1186 88.8928 89.7989 89.1911 89.4523C90.8674 87.491 91.7055 84.5994 91.7055 80.7774C91.7055 73.7285 88.9397 70.204 83.4078 70.204C82.2259 70.1474 81.0465 70.3589 79.9579 70.8227C78.8693 71.2864 77.8997 71.9904 77.1216 72.882C75.4453 74.8433 74.6072 77.7265 74.6072 81.5318C74.6072 85.337 75.3448 88.0819 76.8199 89.7666C77.5924 90.5912 78.5403 91.2316 79.5935 91.6407C80.6468 92.0498 81.7784 92.2171 82.9049 92.1302C83.8476 92.1382 84.7869 92.0154 85.696 91.7656L90.8004 94.7201L92.1205 92.3314ZM79.4349 87.5539C78.4373 85.473 78.0038 83.1665 78.1777 80.8654C78.1777 75.5096 79.8121 72.8191 83.0683 72.8191C83.8124 72.7675 84.5564 72.9192 85.2209 73.258C85.8853 73.5969 86.445 74.1101 86.8401 74.7427C87.8375 76.8012 88.2713 79.0875 88.0973 81.3683C88.0973 86.7744 86.4671 89.4775 83.2066 89.4775C82.4622 89.5319 81.7171 89.3814 81.0522 89.0423C80.3873 88.7032 79.8279 88.1884 79.4349 87.5539" fill="white"/>
<path d="M73.0608 85.9194C73.0797 86.762 72.9112 87.5983 72.5677 88.368C72.2242 89.1376 71.7142 89.8214 71.0744 90.37C69.5689 91.5785 67.6717 92.1915 65.7437 92.0924C63.5689 92.0609 61.4553 91.3681 59.6838 90.106L60.6016 88.283C62.0094 89.0502 63.5758 89.4805 65.1779 89.5403C66.2452 89.5999 67.302 89.3036 68.1828 88.6979C68.5506 88.4215 68.848 88.0623 69.0512 87.6495C69.2543 87.2367 69.3574 86.7818 69.352 86.3217C69.352 85.0645 68.4719 83.9833 66.8375 83.0781C65.2031 82.1728 62.3492 80.5636 62.3492 80.5636C61.5808 80.0909 60.9516 79.423 60.5253 78.6279C60.0991 77.8329 59.8911 76.9391 59.9227 76.0376C59.8942 75.249 60.0419 74.464 60.355 73.7397C60.6682 73.0155 61.139 72.3702 61.7331 71.851C63.0449 70.7568 64.7157 70.1879 66.4226 70.2542C68.3381 70.2334 70.2161 70.785 71.8161 71.8384L70.999 73.6614C69.705 73.0981 68.3115 72.7988 66.9004 72.7813C65.993 72.7249 65.0971 73.0071 64.3859 73.5734C64.0881 73.8202 63.8481 74.1294 63.683 74.4791C63.5179 74.8289 63.4316 75.2107 63.4304 75.5975C63.4304 76.8547 64.3356 77.9486 65.9448 78.8663C67.5541 79.7841 70.5212 81.3808 70.5212 81.3808C71.3094 81.8353 71.9596 82.4951 72.4024 83.2899C72.8452 84.0848 73.0641 84.9848 73.0357 85.8943" fill="white"/>
<path fillRule="evenodd" clipRule="evenodd" d="M109.181 63.3773C107.472 63.2552 105.756 63.5039 104.152 64.1064C103.763 64.2573 103.146 64.2573 103.096 64.7476C103.297 64.9488 103.322 65.2883 103.511 65.5774C103.86 66.1714 104.311 66.6991 104.844 67.1364C105.384 67.5513 105.925 67.9662 106.491 68.3182C107.497 68.9468 108.628 69.2989 109.609 69.9149C110.174 70.2795 110.74 70.7447 111.306 71.1721C111.583 71.3733 111.771 71.7127 112.123 71.8384V71.763C111.947 71.5241 111.897 71.1973 111.721 70.9333L110.941 70.1915C110.191 69.1889 109.287 68.3107 108.263 67.589C107.446 67.0232 105.636 66.2563 105.309 65.3008C105.911 65.2132 106.504 65.0745 107.082 64.886C107.962 64.6597 108.754 64.7099 109.596 64.4711C110.011 64.3705 110.413 64.2447 110.853 64.119V63.8299C110.388 63.3647 110.061 62.7486 109.596 62.3086C108.264 61.1473 106.843 60.0922 105.347 59.153C104.542 58.6375 103.524 58.2981 102.669 57.8957C102.367 57.7449 101.852 57.6694 101.663 57.4054C101.242 56.7866 100.888 56.125 100.607 55.4315C99.8651 54.0109 99.1359 52.4393 98.4947 50.9432C98.1345 49.9425 97.7147 48.9643 97.2375 48.0138C94.8541 43.9626 91.4117 40.6375 87.2802 38.396C86.238 37.8893 85.1288 37.5336 83.9862 37.3399L82.0501 37.2268C81.6354 36.9577 81.2405 36.6594 80.8683 36.3341C79.3973 35.4038 75.6256 33.3922 74.5821 36.045C73.878 37.7171 75.6005 39.364 76.1914 40.2189C76.669 40.8199 77.0899 41.4639 77.4486 42.1425C77.6246 42.5826 77.6749 43.0478 77.8634 43.513C78.2344 44.6883 78.6795 45.8388 79.1961 46.9578C79.4753 47.5125 79.7947 48.0461 80.1516 48.5544C80.3528 48.8436 80.7174 48.9693 80.7928 49.4345C80.5044 50.044 80.3055 50.6918 80.202 51.3581C79.7501 52.7777 79.5829 54.2726 79.7102 55.757C79.8375 57.2413 80.2567 58.6859 80.9437 60.0079C81.3586 60.6491 82.3392 62.0697 83.6468 61.5291C84.9543 60.9885 84.552 59.593 84.904 58.3106C84.992 57.9963 84.904 57.7951 85.0925 57.5939C85.4446 58.3106 85.8092 59.0021 86.1487 59.7313C87.0678 61.0545 88.1974 62.2182 89.4929 63.1761C90.1089 63.6412 90.5993 64.4334 91.3662 64.7225V64.6471C91.1974 64.4454 90.998 64.2714 90.7753 64.1316C90.287 63.6558 89.8411 63.1384 89.4426 62.5852C88.3533 61.103 87.3862 59.5347 86.551 57.8957C86.1487 57.1037 85.7841 56.2236 85.4446 55.3813C85.2937 55.067 85.2937 54.6017 85.0423 54.4508C84.5611 54.9861 84.1396 55.5721 83.785 56.1984C83.368 57.4541 83.1268 58.7615 83.0684 60.0833C82.9678 60.0833 83.0684 60.0833 82.9678 60.0833C82.138 59.8822 81.8615 59.0398 81.5472 58.3106C80.7523 56.103 80.6731 53.7012 81.3208 51.4461C81.4969 50.9055 82.2763 49.2082 81.962 48.6928C81.6477 48.1773 81.2957 47.9132 81.0065 47.5361C80.6522 47.0155 80.345 46.4643 80.0888 45.8891C79.4602 44.4433 79.1584 42.8466 78.4921 41.4007C78.1287 40.7089 77.7082 40.0487 77.2348 39.4269C76.6991 38.8054 76.2274 38.1314 75.8267 37.4153C75.701 37.1387 75.5125 36.6736 75.7136 36.3593C75.7336 36.274 75.7792 36.1969 75.8445 36.1384C75.9097 36.08 75.9912 36.043 76.0782 36.0324C76.4176 35.7432 77.3354 36.1078 77.7 36.2587C78.5797 36.5889 79.4225 37.0103 80.2145 37.5159C80.5665 37.7799 80.9562 38.2703 81.4717 38.396H82.0124C82.8296 38.572 83.7599 38.396 84.5268 38.6726C85.8295 39.109 87.0715 39.7088 88.2231 40.4578C91.634 42.6271 94.4066 45.6644 96.2568 49.2585C96.5711 49.8494 96.6968 50.39 96.9734 51.006C97.514 52.2633 98.2307 53.5205 98.7336 54.7777C99.2043 55.9934 99.8161 57.1496 100.557 58.2226C100.946 58.7632 102.493 59.0523 103.184 59.3289C103.876 59.6055 104.441 59.769 104.957 60.0456C105.837 60.5862 106.704 61.2148 107.534 61.8057C107.937 62.1075 109.231 62.7486 109.307 63.2641" fill="white"/>
<path d="M111.633 91.8159H112.161V89.2008H111.369L110.715 90.9861L109.998 89.2008H109.231V91.8159H109.734V89.8294L110.489 91.8159H110.866L111.608 89.8294L111.633 91.8159ZM107.333 91.8159H107.899V89.6534H108.641V89.2008H106.566V89.6534H107.333V91.8159Z" fill="white"/>
<path d="M41.9231 147.862H43.6731L46.9622 156.635L50.2434 147.862H51.9934L47.6497 159.237H46.259L41.9231 147.862ZM41.1262 147.862H42.7903L43.0793 155.455V159.237H41.1262V147.862ZM51.1262 147.862H52.7981V159.237H50.8372V155.455L51.1262 147.862ZM57.3918 158.315L59.6887 150.783H61.7043L58.3137 160.526C58.2356 160.734 58.134 160.961 58.009 161.205C57.884 161.45 57.72 161.682 57.5168 161.901C57.3189 162.125 57.0715 162.304 56.7747 162.44C56.4778 162.58 56.1184 162.651 55.6965 162.651C55.5299 162.651 55.3684 162.635 55.2122 162.604C55.0611 162.578 54.9179 162.549 54.7825 162.518L54.7747 161.08C54.8267 161.086 54.8892 161.091 54.9622 161.096C55.0403 161.101 55.1028 161.104 55.1497 161.104C55.4622 161.104 55.7226 161.065 55.9309 160.987C56.1392 160.914 56.3085 160.794 56.4387 160.627C56.5741 160.461 56.6887 160.237 56.7825 159.955L57.3918 158.315ZM56.095 150.783L58.1028 157.112L58.4387 159.096L57.134 159.432L54.0637 150.783H56.095ZM68.9543 156.307C68.9543 156.073 68.9179 155.864 68.845 155.682C68.7773 155.5 68.6549 155.333 68.4778 155.182C68.3007 155.031 68.0507 154.885 67.7278 154.744C67.4101 154.599 67.0038 154.45 66.509 154.299C65.9674 154.132 65.4674 153.948 65.009 153.744C64.5559 153.536 64.1601 153.296 63.8215 153.026C63.483 152.75 63.22 152.434 63.0325 152.08C62.845 151.721 62.7512 151.307 62.7512 150.838C62.7512 150.375 62.8476 149.953 63.0403 149.573C63.2382 149.192 63.5168 148.864 63.8762 148.588C64.2408 148.307 64.6705 148.091 65.1653 147.94C65.6601 147.783 66.2069 147.705 66.8059 147.705C67.6497 147.705 68.3762 147.862 68.9856 148.174C69.6002 148.487 70.0715 148.906 70.3997 149.432C70.733 149.958 70.8997 150.539 70.8997 151.174H68.9543C68.9543 150.799 68.8736 150.468 68.7122 150.182C68.5559 149.89 68.3163 149.661 67.9934 149.494C67.6757 149.328 67.2721 149.244 66.7825 149.244C66.3189 149.244 65.9335 149.315 65.6262 149.455C65.3189 149.596 65.0898 149.786 64.9387 150.026C64.7877 150.265 64.7122 150.536 64.7122 150.838C64.7122 151.052 64.7616 151.247 64.8606 151.424C64.9596 151.596 65.1106 151.757 65.3137 151.908C65.5168 152.054 65.7721 152.192 66.0793 152.323C66.3866 152.453 66.7486 152.578 67.1653 152.698C67.7955 152.885 68.345 153.093 68.8137 153.323C69.2825 153.546 69.6731 153.802 69.9856 154.088C70.2981 154.375 70.5325 154.7 70.6887 155.065C70.845 155.424 70.9231 155.833 70.9231 156.291C70.9231 156.77 70.8267 157.203 70.634 157.588C70.4413 157.968 70.1653 158.294 69.8059 158.565C69.4517 158.83 69.0247 159.036 68.5247 159.182C68.0299 159.323 67.4778 159.393 66.8684 159.393C66.3215 159.393 65.7825 159.32 65.2512 159.174C64.7252 159.028 64.246 158.807 63.8137 158.51C63.3814 158.208 63.0377 157.833 62.7825 157.385C62.5273 156.932 62.3997 156.403 62.3997 155.799H64.3606C64.3606 156.169 64.4231 156.484 64.5481 156.744C64.6783 157.005 64.858 157.218 65.0872 157.385C65.3163 157.546 65.5819 157.666 65.884 157.744C66.1913 157.823 66.5194 157.862 66.8684 157.862C67.3267 157.862 67.7096 157.796 68.0168 157.666C68.3293 157.536 68.5637 157.354 68.72 157.119C68.8762 156.885 68.9543 156.614 68.9543 156.307ZM78.6809 157.721L81.6731 160.096L80.3997 161.213L77.4622 158.862L78.6809 157.721ZM81.6965 153.237V153.862C81.6965 154.721 81.5846 155.492 81.3606 156.174C81.1366 156.856 80.8163 157.437 80.3997 157.916C79.983 158.395 79.4856 158.763 78.9075 159.018C78.3293 159.268 77.6887 159.393 76.9856 159.393C76.2877 159.393 75.6497 159.268 75.0715 159.018C74.4986 158.763 74.0012 158.395 73.5793 157.916C73.1575 157.437 72.8293 156.856 72.595 156.174C72.3658 155.492 72.2512 154.721 72.2512 153.862V153.237C72.2512 152.377 72.3658 151.609 72.595 150.932C72.8241 150.25 73.1471 149.669 73.5637 149.19C73.9856 148.705 74.483 148.338 75.0559 148.088C75.634 147.833 76.2721 147.705 76.97 147.705C77.6731 147.705 78.3137 147.833 78.8918 148.088C79.4752 148.338 79.9752 148.705 80.3918 149.19C80.8085 149.669 81.1288 150.25 81.3528 150.932C81.5819 151.609 81.6965 152.377 81.6965 153.237ZM79.7278 153.862V153.221C79.7278 152.586 79.6653 152.026 79.5403 151.541C79.4205 151.052 79.2408 150.643 79.0012 150.315C78.7668 149.981 78.4778 149.731 78.134 149.565C77.7955 149.393 77.4075 149.307 76.97 149.307C76.5429 149.307 76.1601 149.393 75.8215 149.565C75.483 149.731 75.1939 149.981 74.9543 150.315C74.7148 150.643 74.5325 151.052 74.4075 151.541C74.2825 152.026 74.22 152.586 74.22 153.221V153.862C74.22 154.497 74.2825 155.059 74.4075 155.549C74.5325 156.039 74.7148 156.453 74.9543 156.791C75.1991 157.125 75.4908 157.377 75.8293 157.549C76.1731 157.716 76.5585 157.799 76.9856 157.799C77.4231 157.799 77.8111 157.716 78.1497 157.549C78.4882 157.377 78.7747 157.125 79.009 156.791C79.2434 156.453 79.4205 156.039 79.5403 155.549C79.6653 155.059 79.7278 154.497 79.7278 153.862ZM90.8137 157.682V159.237H85.1028V157.682H90.8137ZM85.6497 147.862V159.237H83.6887V147.862H85.6497Z" fill="white"/>
</g>
<defs>
<clipPath id="clip0_4_595">
<rect width="132" height="163" fill="white"/>
</clipPath>
</defs>
</svg>
