<svg width="132" height="163" viewBox="0 0 132 163" fill="none" xmlns="http://www.w3.org/2000/svg">
<g clip-path="url(#clip0_508_519)">
<path d="M66 132.013C52.9465 132.013 40.186 128.142 29.3324 120.89C18.4787 113.637 10.0194 103.33 5.02397 91.2697C0.0285854 79.2098 -1.27842 65.9394 1.26821 53.1367C3.81483 40.3339 10.1007 28.5738 19.331 19.3436C28.5612 10.1133 40.3213 3.82741 53.1241 1.28079C65.9268 -1.26584 79.1972 0.0411301 91.2571 5.03651C103.317 10.0319 113.625 18.4913 120.877 29.345C128.129 40.1986 132 52.959 132 66.0126C131.98 83.5107 125.02 100.287 112.647 112.66C100.274 125.033 83.4982 131.993 66 132.013ZM66 4.61198C53.8561 4.61198 41.985 8.21303 31.8877 14.9598C21.7904 21.7066 13.9205 31.2961 9.27326 42.5156C4.626 53.7351 3.41005 66.0807 5.7792 77.9912C8.14836 89.9018 13.9962 100.842 22.5832 109.429C31.1703 118.016 42.1108 123.864 54.0214 126.233C65.9319 128.603 78.2775 127.387 89.497 122.739C100.717 118.092 110.306 110.222 117.053 100.125C123.8 90.0277 127.401 78.1565 127.401 66.0126C127.384 49.7321 120.91 34.123 109.399 22.6097C97.8883 11.0965 82.2805 4.61936 66 4.5994V4.61198Z" fill="white"/>
<g clip-path="url(#clip1_508_519)">
<path d="M82.7539 56.5582H99.8273V59.7418H93.0544V76.4904H89.6678V59.7418H82.7539V56.5582Z" fill="white"/>
<path d="M54.6746 56.5582V59.7418H40.9892V64.8633H51.995V68.0469H40.9892V73.3068H54.6746V76.4904H37.6027V59.7418H37.6013V56.5582H54.6746Z" fill="white"/>
<path d="M63.1999 56.5665H58.7681L74.6418 76.4987H79.0865L71.1487 66.5395L79.0738 56.5817L74.6418 56.5887L68.9298 63.7555L63.1999 56.5665Z" fill="white"/>
<path d="M67.7476 70.8042L65.5282 68.0165L58.7554 76.514H63.1998L67.7476 70.8042Z" fill="white"/>
<path fill-rule="evenodd" clip-rule="evenodd" d="M37.7214 76.4904L21.8263 56.5499H17.5933V76.4821H20.9797V60.8104L33.4672 76.4904H37.7214Z" fill="white"/>
<path d="M100.588 76.3687C100.34 76.3687 100.129 76.2819 99.9527 76.1083C99.776 75.9347 99.6887 75.7245 99.691 75.4756C99.6887 75.2334 99.776 75.0256 99.9527 74.852C100.129 74.6784 100.34 74.5916 100.588 74.5916C100.827 74.5916 101.036 74.6784 101.212 74.852C101.391 75.0256 101.481 75.2334 101.483 75.4756C101.481 75.64 101.439 75.7908 101.357 75.9255C101.272 76.0626 101.164 76.17 101.029 76.2476C100.896 76.3276 100.749 76.3687 100.588 76.3687Z" fill="white"/>
<path d="M106.368 67.9718H107.869V73.8126C107.867 74.3494 107.752 74.8085 107.527 75.1946C107.3 75.5806 106.986 75.8752 106.582 76.0831C106.18 76.2887 105.71 76.3938 105.175 76.3938C104.686 76.3938 104.248 76.3047 103.858 76.1311C103.468 75.9575 103.158 75.6971 102.931 75.3545C102.702 75.0118 102.589 74.5847 102.589 74.073H104.092C104.094 74.2969 104.145 74.491 104.241 74.6532C104.338 74.8154 104.471 74.9387 104.641 75.0255C104.812 75.1123 105.01 75.1557 105.232 75.1557C105.473 75.1557 105.68 75.1055 105.847 75.0027C106.015 74.9022 106.143 74.7514 106.233 74.5504C106.32 74.3517 106.366 74.105 106.368 73.8126V67.9718Z" fill="white"/>
<path d="M114.044 70.256C114.007 69.902 113.846 69.6256 113.566 69.4291C113.284 69.2304 112.919 69.1322 112.472 69.1322C112.158 69.1322 111.887 69.1802 111.662 69.2738C111.437 69.3697 111.263 69.4976 111.143 69.6598C111.024 69.822 110.964 70.007 110.96 70.2149C110.96 70.3885 111.001 70.5393 111.081 70.6649C111.162 70.7928 111.269 70.9002 111.409 70.987C111.547 71.0761 111.701 71.1492 111.868 71.2085C112.038 71.2679 112.208 71.3182 112.378 71.3593L113.16 71.5535C113.475 71.6266 113.78 71.7248 114.071 71.8504C114.362 71.9738 114.626 72.1314 114.858 72.321C115.09 72.5106 115.274 72.739 115.409 73.0063C115.544 73.2735 115.613 73.5864 115.613 73.9473C115.613 74.4339 115.489 74.861 115.239 75.2311C114.989 75.5988 114.629 75.8867 114.156 76.0945C113.686 76.3001 113.117 76.4052 112.447 76.4052C111.8 76.4052 111.235 76.3047 110.76 76.1037C110.283 75.905 109.911 75.6126 109.643 75.2288C109.374 74.8451 109.23 74.3768 109.209 73.8263H110.696C110.717 74.1141 110.808 74.354 110.964 74.5481C111.123 74.74 111.329 74.8816 111.582 74.9775C111.836 75.0712 112.121 75.1192 112.435 75.1192C112.763 75.1192 113.052 75.0689 113.302 74.9707C113.55 74.8725 113.745 74.7354 113.885 74.5573C114.028 74.3813 114.099 74.1735 114.101 73.9359C114.099 73.7189 114.034 73.5385 113.91 73.3968C113.784 73.2552 113.61 73.1364 113.387 73.0405C113.163 72.9446 112.901 72.8578 112.603 72.7824L111.653 72.5403C110.967 72.3644 110.423 72.0971 110.026 71.7385C109.627 71.3799 109.429 70.9048 109.429 70.3086C109.429 69.8198 109.562 69.3903 109.831 69.0226C110.097 68.6548 110.462 68.3693 110.923 68.166C111.387 67.9604 111.91 67.8599 112.492 67.8599C113.084 67.8599 113.603 67.9604 114.051 68.166C114.498 68.3693 114.849 68.6525 115.104 69.0134C115.358 69.3743 115.491 69.7878 115.498 70.256H114.044Z" fill="white"/>
</g>
</g>
<path d="M50.1797 147.625V159H48.2188L43.1172 150.852V159H41.1562V147.625H43.1172L48.2344 155.789V147.625H50.1797ZM56.0547 159.156C55.4297 159.156 54.8646 159.055 54.3594 158.852C53.8594 158.643 53.4323 158.354 53.0781 157.984C52.7292 157.615 52.4609 157.18 52.2734 156.68C52.0859 156.18 51.9922 155.641 51.9922 155.062V154.75C51.9922 154.089 52.0885 153.49 52.2812 152.953C52.474 152.417 52.7422 151.958 53.0859 151.578C53.4297 151.193 53.8359 150.898 54.3047 150.695C54.7734 150.492 55.2812 150.391 55.8281 150.391C56.4323 150.391 56.9609 150.492 57.4141 150.695C57.8672 150.898 58.2422 151.185 58.5391 151.555C58.8411 151.919 59.0651 152.354 59.2109 152.859C59.362 153.365 59.4375 153.922 59.4375 154.531V155.336H52.9062V153.984H57.5781V153.836C57.5677 153.497 57.5 153.18 57.375 152.883C57.2552 152.586 57.0703 152.346 56.8203 152.164C56.5703 151.982 56.237 151.891 55.8203 151.891C55.5078 151.891 55.2292 151.958 54.9844 152.094C54.7448 152.224 54.5443 152.414 54.3828 152.664C54.2214 152.914 54.0964 153.216 54.0078 153.57C53.9245 153.919 53.8828 154.312 53.8828 154.75V155.062C53.8828 155.432 53.9323 155.776 54.0312 156.094C54.1354 156.406 54.2865 156.68 54.4844 156.914C54.6823 157.148 54.9219 157.333 55.2031 157.469C55.4844 157.599 55.8047 157.664 56.1641 157.664C56.6172 157.664 57.0208 157.573 57.375 157.391C57.7292 157.208 58.0365 156.951 58.2969 156.617L59.2891 157.578C59.1068 157.844 58.8698 158.099 58.5781 158.344C58.2865 158.583 57.9297 158.779 57.5078 158.93C57.0911 159.081 56.6068 159.156 56.0547 159.156ZM62.3438 150.547L63.9531 153.352L65.5938 150.547H67.6641L65.1016 154.695L67.7656 159H65.6953L63.9766 156.078L62.2578 159H60.1797L62.8359 154.695L60.2812 150.547H62.3438ZM72.8281 150.547V151.922H68.0625V150.547H72.8281ZM69.4375 148.477H71.3203V156.664C71.3203 156.924 71.3568 157.125 71.4297 157.266C71.5078 157.401 71.6146 157.492 71.75 157.539C71.8854 157.586 72.0443 157.609 72.2266 157.609C72.3568 157.609 72.4818 157.602 72.6016 157.586C72.7214 157.57 72.8177 157.555 72.8906 157.539L72.8984 158.977C72.7422 159.023 72.5599 159.065 72.3516 159.102C72.1484 159.138 71.9141 159.156 71.6484 159.156C71.2161 159.156 70.8333 159.081 70.5 158.93C70.1667 158.773 69.9062 158.521 69.7188 158.172C69.5312 157.823 69.4375 157.359 69.4375 156.781V148.477ZM74.3594 158.062C74.3594 157.771 74.4583 157.526 74.6562 157.328C74.8542 157.125 75.1224 157.023 75.4609 157.023C75.8047 157.023 76.0729 157.125 76.2656 157.328C76.4635 157.526 76.5625 157.771 76.5625 158.062C76.5625 158.354 76.4635 158.599 76.2656 158.797C76.0729 158.995 75.8047 159.094 75.4609 159.094C75.1224 159.094 74.8542 158.995 74.6562 158.797C74.4583 158.599 74.3594 158.354 74.3594 158.062ZM78.8281 150.547H80.7188V159.734C80.7188 160.312 80.6198 160.799 80.4219 161.195C80.224 161.596 79.9323 161.898 79.5469 162.102C79.1615 162.31 78.6901 162.414 78.1328 162.414C77.9661 162.414 77.7943 162.401 77.6172 162.375C77.4349 162.354 77.263 162.323 77.1016 162.281L77.1094 160.812C77.2188 160.833 77.3359 160.849 77.4609 160.859C77.5807 160.875 77.6953 160.883 77.8047 160.883C78.0286 160.883 78.2161 160.844 78.3672 160.766C78.5182 160.688 78.6328 160.565 78.7109 160.398C78.7891 160.232 78.8281 160.01 78.8281 159.734V150.547ZM78.6641 148.328C78.6641 148.042 78.7604 147.805 78.9531 147.617C79.1458 147.424 79.4089 147.328 79.7422 147.328C80.0807 147.328 80.3438 147.424 80.5312 147.617C80.724 147.805 80.8203 148.042 80.8203 148.328C80.8203 148.609 80.724 148.844 80.5312 149.031C80.3438 149.219 80.0807 149.312 79.7422 149.312C79.4089 149.312 79.1458 149.219 78.9531 149.031C78.7604 148.844 78.6641 148.609 78.6641 148.328ZM87.4922 156.711C87.4922 156.523 87.4453 156.354 87.3516 156.203C87.2578 156.047 87.0781 155.906 86.8125 155.781C86.5521 155.656 86.1667 155.542 85.6562 155.438C85.2083 155.339 84.7969 155.221 84.4219 155.086C84.0521 154.945 83.7344 154.776 83.4688 154.578C83.2031 154.38 82.9974 154.146 82.8516 153.875C82.7057 153.604 82.6328 153.292 82.6328 152.938C82.6328 152.594 82.7083 152.268 82.8594 151.961C83.0104 151.654 83.2266 151.383 83.5078 151.148C83.7891 150.914 84.1302 150.729 84.5312 150.594C84.9375 150.458 85.3906 150.391 85.8906 150.391C86.599 150.391 87.2057 150.51 87.7109 150.75C88.2214 150.984 88.612 151.305 88.8828 151.711C89.1536 152.112 89.2891 152.565 89.2891 153.07H87.4062C87.4062 152.846 87.349 152.638 87.2344 152.445C87.125 152.247 86.9583 152.089 86.7344 151.969C86.5104 151.844 86.2292 151.781 85.8906 151.781C85.5677 151.781 85.2995 151.833 85.0859 151.938C84.8776 152.036 84.7214 152.167 84.6172 152.328C84.5182 152.49 84.4688 152.667 84.4688 152.859C84.4688 153 84.4948 153.128 84.5469 153.242C84.6042 153.352 84.6979 153.453 84.8281 153.547C84.9583 153.635 85.1354 153.719 85.3594 153.797C85.5885 153.875 85.875 153.951 86.2188 154.023C86.8646 154.159 87.4193 154.333 87.8828 154.547C88.3516 154.755 88.7109 155.026 88.9609 155.359C89.2109 155.688 89.3359 156.104 89.3359 156.609C89.3359 156.984 89.2552 157.328 89.0938 157.641C88.9375 157.948 88.7083 158.216 88.4062 158.445C88.1042 158.669 87.7422 158.844 87.3203 158.969C86.9036 159.094 86.4349 159.156 85.9141 159.156C85.1484 159.156 84.5 159.021 83.9688 158.75C83.4375 158.474 83.0339 158.122 82.7578 157.695C82.487 157.263 82.3516 156.815 82.3516 156.352H84.1719C84.1927 156.701 84.2891 156.979 84.4609 157.188C84.638 157.391 84.8568 157.539 85.1172 157.633C85.3828 157.721 85.6562 157.766 85.9375 157.766C86.276 157.766 86.5599 157.721 86.7891 157.633C87.0182 157.539 87.1927 157.414 87.3125 157.258C87.4323 157.096 87.4922 156.914 87.4922 156.711Z" fill="white"/>
<defs>
<clipPath id="clip0_508_519">
<rect width="132" height="132" fill="white"/>
</clipPath>
<clipPath id="clip1_508_519">
<rect width="98.0198" height="20.1066" fill="white" transform="translate(17.5933 56.5499)"/>
</clipPath>
</defs>
</svg>
