<svg width="132" height="163" viewBox="0 0 132 163" fill="none" xmlns="http://www.w3.org/2000/svg">
<path d="M47.1797 147.625V159H45.2188L40.1172 150.852V159H38.1562V147.625H40.1172L45.2344 155.789V147.625H47.1797ZM48.9688 154.867V154.688C48.9688 154.078 49.0573 153.513 49.2344 152.992C49.4115 152.466 49.6667 152.01 50 151.625C50.3385 151.234 50.75 150.932 51.2344 150.719C51.724 150.5 52.276 150.391 52.8906 150.391C53.5104 150.391 54.0625 150.5 54.5469 150.719C55.0365 150.932 55.4505 151.234 55.7891 151.625C56.1276 152.01 56.3854 152.466 56.5625 152.992C56.7396 153.513 56.8281 154.078 56.8281 154.688V154.867C56.8281 155.477 56.7396 156.042 56.5625 156.562C56.3854 157.083 56.1276 157.539 55.7891 157.93C55.4505 158.315 55.0391 158.617 54.5547 158.836C54.0703 159.049 53.5208 159.156 52.9062 159.156C52.2865 159.156 51.7318 159.049 51.2422 158.836C50.7578 158.617 50.3464 158.315 50.0078 157.93C49.6693 157.539 49.4115 157.083 49.2344 156.562C49.0573 156.042 48.9688 155.477 48.9688 154.867ZM50.8516 154.688V154.867C50.8516 155.247 50.8906 155.607 50.9688 155.945C51.0469 156.284 51.1693 156.581 51.3359 156.836C51.5026 157.091 51.7161 157.292 51.9766 157.438C52.237 157.583 52.5469 157.656 52.9062 157.656C53.2552 157.656 53.5573 157.583 53.8125 157.438C54.0729 157.292 54.2865 157.091 54.4531 156.836C54.6198 156.581 54.7422 156.284 54.8203 155.945C54.9036 155.607 54.9453 155.247 54.9453 154.867V154.688C54.9453 154.312 54.9036 153.958 54.8203 153.625C54.7422 153.286 54.6172 152.987 54.4453 152.727C54.2786 152.466 54.0651 152.263 53.8047 152.117C53.5495 151.966 53.2448 151.891 52.8906 151.891C52.5365 151.891 52.2292 151.966 51.9688 152.117C51.7135 152.263 51.5026 152.466 51.3359 152.727C51.1693 152.987 51.0469 153.286 50.9688 153.625C50.8906 153.958 50.8516 154.312 50.8516 154.688ZM63.5625 157.25V147H65.4531V159H63.7422L63.5625 157.25ZM58.0625 154.867V154.703C58.0625 154.062 58.138 153.479 58.2891 152.953C58.4401 152.422 58.6589 151.966 58.9453 151.586C59.2318 151.201 59.5807 150.906 59.9922 150.703C60.4036 150.495 60.8672 150.391 61.3828 150.391C61.8932 150.391 62.3411 150.49 62.7266 150.688C63.112 150.885 63.4401 151.169 63.7109 151.539C63.9818 151.904 64.1979 152.341 64.3594 152.852C64.5208 153.357 64.6354 153.919 64.7031 154.539V155.062C64.6354 155.667 64.5208 156.219 64.3594 156.719C64.1979 157.219 63.9818 157.651 63.7109 158.016C63.4401 158.38 63.1094 158.661 62.7188 158.859C62.3333 159.057 61.8828 159.156 61.3672 159.156C60.8568 159.156 60.3958 159.049 59.9844 158.836C59.5781 158.622 59.2318 158.323 58.9453 157.938C58.6589 157.552 58.4401 157.099 58.2891 156.578C58.138 156.052 58.0625 155.482 58.0625 154.867ZM59.9453 154.703V154.867C59.9453 155.253 59.9792 155.612 60.0469 155.945C60.1198 156.279 60.2318 156.573 60.3828 156.828C60.5339 157.078 60.7292 157.276 60.9688 157.422C61.2135 157.562 61.5052 157.633 61.8438 157.633C62.2708 157.633 62.6224 157.539 62.8984 157.352C63.1745 157.164 63.3906 156.911 63.5469 156.594C63.7083 156.271 63.8177 155.911 63.875 155.516V154.102C63.8438 153.794 63.7786 153.508 63.6797 153.242C63.5859 152.977 63.4583 152.745 63.2969 152.547C63.1354 152.344 62.9349 152.188 62.6953 152.078C62.4609 151.964 62.1823 151.906 61.8594 151.906C61.5156 151.906 61.224 151.979 60.9844 152.125C60.7448 152.271 60.5469 152.471 60.3906 152.727C60.2396 152.982 60.1276 153.279 60.0547 153.617C59.9818 153.956 59.9453 154.318 59.9453 154.703ZM71.1484 159.156C70.5234 159.156 69.9583 159.055 69.4531 158.852C68.9531 158.643 68.526 158.354 68.1719 157.984C67.8229 157.615 67.5547 157.18 67.3672 156.68C67.1797 156.18 67.0859 155.641 67.0859 155.062V154.75C67.0859 154.089 67.1823 153.49 67.375 152.953C67.5677 152.417 67.8359 151.958 68.1797 151.578C68.5234 151.193 68.9297 150.898 69.3984 150.695C69.8672 150.492 70.375 150.391 70.9219 150.391C71.526 150.391 72.0547 150.492 72.5078 150.695C72.9609 150.898 73.3359 151.185 73.6328 151.555C73.9349 151.919 74.1589 152.354 74.3047 152.859C74.4557 153.365 74.5312 153.922 74.5312 154.531V155.336H68V153.984H72.6719V153.836C72.6615 153.497 72.5938 153.18 72.4688 152.883C72.349 152.586 72.1641 152.346 71.9141 152.164C71.6641 151.982 71.3307 151.891 70.9141 151.891C70.6016 151.891 70.3229 151.958 70.0781 152.094C69.8385 152.224 69.638 152.414 69.4766 152.664C69.3151 152.914 69.1901 153.216 69.1016 153.57C69.0182 153.919 68.9766 154.312 68.9766 154.75V155.062C68.9766 155.432 69.026 155.776 69.125 156.094C69.2292 156.406 69.3802 156.68 69.5781 156.914C69.776 157.148 70.0156 157.333 70.2969 157.469C70.5781 157.599 70.8984 157.664 71.2578 157.664C71.7109 157.664 72.1146 157.573 72.4688 157.391C72.8229 157.208 73.1302 156.951 73.3906 156.617L74.3828 157.578C74.2005 157.844 73.9635 158.099 73.6719 158.344C73.3802 158.583 73.0234 158.779 72.6016 158.93C72.1849 159.081 71.7005 159.156 71.1484 159.156ZM76.0781 158.062C76.0781 157.771 76.1771 157.526 76.375 157.328C76.5729 157.125 76.8411 157.023 77.1797 157.023C77.5234 157.023 77.7917 157.125 77.9844 157.328C78.1823 157.526 78.2812 157.771 78.2812 158.062C78.2812 158.354 78.1823 158.599 77.9844 158.797C77.7917 158.995 77.5234 159.094 77.1797 159.094C76.8411 159.094 76.5729 158.995 76.375 158.797C76.1771 158.599 76.0781 158.354 76.0781 158.062ZM80.5469 150.547H82.4375V159.734C82.4375 160.312 82.3385 160.799 82.1406 161.195C81.9427 161.596 81.651 161.898 81.2656 162.102C80.8802 162.31 80.4089 162.414 79.8516 162.414C79.6849 162.414 79.513 162.401 79.3359 162.375C79.1536 162.354 78.9818 162.323 78.8203 162.281L78.8281 160.812C78.9375 160.833 79.0547 160.849 79.1797 160.859C79.2995 160.875 79.4141 160.883 79.5234 160.883C79.7474 160.883 79.9349 160.844 80.0859 160.766C80.237 160.688 80.3516 160.565 80.4297 160.398C80.5078 160.232 80.5469 160.01 80.5469 159.734V150.547ZM80.3828 148.328C80.3828 148.042 80.4792 147.805 80.6719 147.617C80.8646 147.424 81.1276 147.328 81.4609 147.328C81.7995 147.328 82.0625 147.424 82.25 147.617C82.4427 147.805 82.5391 148.042 82.5391 148.328C82.5391 148.609 82.4427 148.844 82.25 149.031C82.0625 149.219 81.7995 149.312 81.4609 149.312C81.1276 149.312 80.8646 149.219 80.6719 149.031C80.4792 148.844 80.3828 148.609 80.3828 148.328ZM89.2109 156.711C89.2109 156.523 89.1641 156.354 89.0703 156.203C88.9766 156.047 88.7969 155.906 88.5312 155.781C88.2708 155.656 87.8854 155.542 87.375 155.438C86.9271 155.339 86.5156 155.221 86.1406 155.086C85.7708 154.945 85.4531 154.776 85.1875 154.578C84.9219 154.38 84.7161 154.146 84.5703 153.875C84.4245 153.604 84.3516 153.292 84.3516 152.938C84.3516 152.594 84.4271 152.268 84.5781 151.961C84.7292 151.654 84.9453 151.383 85.2266 151.148C85.5078 150.914 85.849 150.729 86.25 150.594C86.6562 150.458 87.1094 150.391 87.6094 150.391C88.3177 150.391 88.9245 150.51 89.4297 150.75C89.9401 150.984 90.3307 151.305 90.6016 151.711C90.8724 152.112 91.0078 152.565 91.0078 153.07H89.125C89.125 152.846 89.0677 152.638 88.9531 152.445C88.8438 152.247 88.6771 152.089 88.4531 151.969C88.2292 151.844 87.9479 151.781 87.6094 151.781C87.2865 151.781 87.0182 151.833 86.8047 151.938C86.5964 152.036 86.4401 152.167 86.3359 152.328C86.237 152.49 86.1875 152.667 86.1875 152.859C86.1875 153 86.2135 153.128 86.2656 153.242C86.3229 153.352 86.4167 153.453 86.5469 153.547C86.6771 153.635 86.8542 153.719 87.0781 153.797C87.3073 153.875 87.5938 153.951 87.9375 154.023C88.5833 154.159 89.138 154.333 89.6016 154.547C90.0703 154.755 90.4297 155.026 90.6797 155.359C90.9297 155.688 91.0547 156.104 91.0547 156.609C91.0547 156.984 90.974 157.328 90.8125 157.641C90.6562 157.948 90.4271 158.216 90.125 158.445C89.8229 158.669 89.4609 158.844 89.0391 158.969C88.6224 159.094 88.1536 159.156 87.6328 159.156C86.8672 159.156 86.2188 159.021 85.6875 158.75C85.1562 158.474 84.7526 158.122 84.4766 157.695C84.2057 157.263 84.0703 156.815 84.0703 156.352H85.8906C85.9115 156.701 86.0078 156.979 86.1797 157.188C86.3568 157.391 86.5755 157.539 86.8359 157.633C87.1016 157.721 87.375 157.766 87.6562 157.766C87.9948 157.766 88.2786 157.721 88.5078 157.633C88.737 157.539 88.9115 157.414 89.0312 157.258C89.151 157.096 89.2109 156.914 89.2109 156.711Z" fill="white"/>
<g clipPath="url(#clip0_89_1106)">
<path d="M66 132C52.9469 131.998 40.1878 128.125 29.3358 120.871C18.4838 113.617 10.0264 103.309 5.0329 91.2484C0.0394424 79.1883 -1.26577 65.9183 1.28227 53.1164C3.83032 40.3145 10.1172 28.5555 19.348 19.3265C28.5787 10.0975 40.3388 3.81287 53.1412 1.26727C65.9436 -1.27834 79.2134 0.0294668 91.2726 5.02522C103.332 10.021 113.639 18.4804 120.89 29.3337C128.142 40.1871 132.013 52.947 132.013 66C131.993 83.5004 125.031 100.278 112.655 112.651C100.279 125.025 83.5003 131.983 66 132V132ZM66 4.58687C53.8536 4.58687 41.98 8.1887 31.8807 14.9369C21.7813 21.685 13.9098 31.2765 9.26162 42.4983C4.6134 53.72 3.39721 66.0682 5.76685 77.9811C8.13649 89.8941 13.9855 100.837 22.5743 109.426C31.1631 118.015 42.1059 123.864 54.0189 126.233C65.9319 128.603 78.28 127.387 89.5018 122.738C100.724 118.09 110.315 110.219 117.063 100.119C123.811 90.02 127.413 78.1464 127.413 66C127.397 49.7174 120.921 34.1063 109.407 22.5927C97.8937 11.0791 82.2827 4.60351 66 4.58687V4.58687Z" fill="white"/>
<path d="M65.4219 97.0271C65.0872 97.0273 64.7581 96.9407 64.4669 96.7757L61.4132 94.9661C60.9482 94.7148 61.1744 94.6142 61.3252 94.564C61.8107 94.4137 62.2751 94.2026 62.7075 93.9356C62.7414 93.9145 62.7806 93.9033 62.8206 93.9033C62.8606 93.9033 62.8998 93.9145 62.9337 93.9356L65.2837 95.3306C65.3274 95.3493 65.3744 95.3588 65.4219 95.3588C65.4694 95.3588 65.5165 95.3493 65.5602 95.3306L74.7212 90.04C74.7633 90.0129 74.798 89.9757 74.8222 89.9318C74.8463 89.8879 74.8591 89.8387 74.8595 89.7887V79.2327C74.8578 79.1815 74.843 79.1314 74.8166 79.0875C74.7903 79.0435 74.7531 79.007 74.7087 78.9814L65.5476 73.7285C65.5056 73.7043 65.4579 73.6915 65.4094 73.6915C65.3608 73.6915 65.3132 73.7043 65.2711 73.7285L56.1226 79.0065C56.0797 79.0327 56.0443 79.0697 56.0201 79.1138C55.9959 79.1579 55.9836 79.2075 55.9844 79.2578V89.8138C55.9822 89.8644 55.994 89.9145 56.0183 89.9588C56.0427 90.0031 56.0788 90.0399 56.1226 90.0652L58.6359 91.5103C59.9931 92.1889 60.8225 91.3972 60.8225 90.5929V80.1375C60.8225 80.0675 60.8503 80.0004 60.8998 79.9509C60.9493 79.9014 61.0165 79.8736 61.0864 79.8736H62.2551C62.3251 79.8736 62.3923 79.9014 62.4417 79.9509C62.4912 80.0004 62.519 80.0675 62.519 80.1375V90.5678C62.5717 90.9427 62.5389 91.3247 62.4232 91.6852C62.3075 92.0458 62.1119 92.3755 61.8509 92.6498C61.5899 92.924 61.2703 93.1358 60.9159 93.2693C60.5616 93.4027 60.1817 93.4544 59.8046 93.4204C59.0602 93.4328 58.3277 93.2322 57.6934 92.8424L55.2932 91.4601C55.0012 91.29 54.7591 91.0459 54.5914 90.7525C54.4238 90.4591 54.3364 90.1266 54.3381 89.7887V79.2327C54.3364 78.8948 54.4238 78.5623 54.5914 78.2689C54.7591 77.9755 55.0012 77.7314 55.2932 77.5613L64.4543 72.2833C64.7474 72.117 65.0786 72.0295 65.4156 72.0295C65.7526 72.0295 66.0839 72.117 66.377 72.2833L75.6009 77.6242C75.8921 77.7952 76.1334 78.0394 76.301 78.3327C76.4685 78.6259 76.5565 78.9579 76.556 79.2956V89.8515C76.5448 90.1766 76.4513 90.4935 76.2843 90.7727C76.1172 91.0518 75.8821 91.284 75.6009 91.4475L66.4524 96.7381C66.1411 96.9251 65.7851 97.025 65.4219 97.0271Z" fill="white"/>
<path d="M68.2494 89.751C64.2407 89.751 63.4113 87.9162 63.4113 86.3705C63.4113 86.3359 63.4181 86.3015 63.4314 86.2695C63.4446 86.2375 63.4641 86.2084 63.4886 86.1839C63.5131 86.1594 63.5421 86.14 63.5742 86.1267C63.6062 86.1134 63.6405 86.1066 63.6752 86.1066H64.8564C64.9197 86.1084 64.9803 86.1319 65.0284 86.173C65.0764 86.2142 65.1089 86.2706 65.1203 86.3328C65.2963 87.5895 65.8241 88.1424 68.2494 88.1424C70.1721 88.1424 71.0015 87.7152 71.0015 86.6847C71.0015 86.0941 70.7627 85.6542 67.7719 85.3651C65.2586 85.1138 63.7129 84.5609 63.7129 82.5628C63.7129 80.5647 65.2711 79.6097 67.885 79.6097C70.813 79.6097 72.2707 80.6276 72.4467 82.8142C72.4533 82.8503 72.4511 82.8874 72.4401 82.9225C72.4292 82.9575 72.4099 82.9893 72.3839 83.0152C72.3303 83.0687 72.2585 83.1001 72.1828 83.1032H71.0015C70.9417 83.1027 70.8837 83.0829 70.8361 83.0466C70.7885 83.0104 70.7539 82.9597 70.7376 82.9021C70.4612 81.6455 69.7574 81.2182 67.885 81.2182C65.7738 81.2182 65.535 81.9596 65.535 82.4748C65.535 82.9901 65.8241 83.3294 68.6641 83.7315C71.5042 84.1336 72.8111 84.6238 72.8111 86.6093C72.8111 88.5948 71.1523 89.751 68.2494 89.751Z" fill="white"/>
<path d="M81.4444 78.6798C81.4444 79.0307 81.3401 79.3738 81.1449 79.6654C80.9496 79.9571 80.6722 80.1842 80.3477 80.3179C80.0232 80.4517 79.6662 80.486 79.3222 80.4166C78.9781 80.3472 78.6624 80.1772 78.4151 79.9281C78.1679 79.6791 78.0001 79.3622 77.9332 79.0176C77.8662 78.6731 77.9031 78.3164 78.0391 77.9929C78.1752 77.6694 78.4042 77.3935 78.6973 77.2004C78.9903 77.0072 79.3341 76.9053 79.6851 76.9078C79.9172 76.9078 80.147 76.9538 80.3613 77.043C80.5756 77.1322 80.77 77.2628 80.9336 77.4275C81.0971 77.5922 81.2265 77.7877 81.3141 78.0026C81.4018 78.2175 81.4461 78.4477 81.4444 78.6798V78.6798ZM78.2022 78.6798C78.1997 78.9741 78.2849 79.2625 78.4469 79.5083C78.6088 79.7541 78.8403 79.946 79.1118 80.0598C79.3832 80.1736 79.6824 80.204 79.9713 80.1472C80.2601 80.0904 80.5254 79.9489 80.7336 79.7408C80.9417 79.5326 81.0832 79.2672 81.14 78.9784C81.1968 78.6896 81.1664 78.3905 81.0526 78.119C80.9388 77.8475 80.7468 77.6161 80.5011 77.4541C80.2553 77.2921 79.9668 77.2069 79.6725 77.2094C79.2857 77.2126 78.9155 77.3669 78.6408 77.6392C78.3662 77.9116 78.2088 78.2804 78.2022 78.6672V78.6798ZM79.0191 77.6995H79.6977C79.9364 77.6995 80.3888 77.6995 80.3888 78.2273C80.3999 78.3383 80.3685 78.4494 80.3008 78.538C80.2332 78.6267 80.1343 78.6863 80.0244 78.7048C80.2883 78.7048 80.3134 78.9059 80.3511 79.1572C80.3543 79.3376 80.3883 79.5162 80.4516 79.6851H80.0244C80.0244 79.5845 79.949 79.0819 79.949 79.0567C79.949 79.0316 79.949 78.8808 79.7479 78.8808H79.3709V79.6851H78.9814L79.0191 77.6995ZM79.396 78.5666H79.6977C79.7364 78.5723 79.776 78.5692 79.8134 78.5577C79.8508 78.5462 79.8852 78.5265 79.9141 78.5C79.943 78.4736 79.9656 78.441 79.9803 78.4047C79.9951 78.3684 80.0015 78.3293 79.9992 78.2902C79.9992 78.0137 79.8107 78.0137 79.7102 78.0137H79.3709L79.396 78.5666Z" fill="white"/>
<path fillRule="evenodd" clipRule="evenodd" d="M37.0842 55.7079C37.0833 55.5015 37.0283 55.2988 36.9246 55.1202C36.821 54.9416 36.6724 54.7933 36.4935 54.69L26.7921 49.1105C26.6324 49.0132 26.451 48.9571 26.2643 48.9471H26.1638C25.9731 48.9571 25.7877 49.0131 25.6234 49.1105L15.9219 54.69C15.7431 54.7933 15.5945 54.9416 15.4908 55.1202C15.3872 55.2988 15.3322 55.5015 15.3313 55.7079V70.7879C15.3322 70.8895 15.3593 70.9891 15.4099 71.0772C15.4605 71.1652 15.533 71.2387 15.6203 71.2906C15.7109 71.3401 15.8125 71.366 15.9157 71.366C16.0189 71.366 16.1204 71.3401 16.211 71.2906L21.9791 67.9856C22.1555 67.8808 22.3017 67.7317 22.403 67.5532C22.5044 67.3747 22.5575 67.1729 22.5571 66.9677V59.9052C22.5577 59.7004 22.6126 59.4993 22.7164 59.3226C22.8202 59.146 22.9691 59.0001 23.1477 58.8998L25.6611 57.4798C25.8415 57.3774 26.0444 57.3214 26.2517 57.3165C26.4553 57.3202 26.6544 57.3764 26.8298 57.4798L29.3431 58.8998C29.5203 59.0007 29.6674 59.1471 29.769 59.3238C29.8707 59.5006 29.9232 59.7013 29.9212 59.9052V66.9299C29.9221 67.1364 29.9771 67.3391 30.0807 67.5177C30.1843 67.6963 30.333 67.8446 30.5118 67.9478L36.2799 71.2529C36.3682 71.3024 36.4677 71.3284 36.5689 71.3284C36.6702 71.3284 36.7697 71.3024 36.858 71.2529C36.947 71.203 37.0209 71.1299 37.0718 71.0414C37.1227 70.9529 37.1487 70.8523 37.147 70.7503L37.0842 55.7079Z" fill="white"/>
<path fillRule="evenodd" clipRule="evenodd" d="M83.7692 35.0358C83.681 34.9862 83.5814 34.9602 83.4802 34.9602C83.379 34.9602 83.2795 34.9862 83.1912 35.0358C83.1021 35.0857 83.0282 35.1587 82.9773 35.2472C82.9264 35.3357 82.9004 35.4364 82.9021 35.5385V50.4299C82.9002 50.5021 82.8795 50.5725 82.8421 50.6342C82.8046 50.6959 82.7517 50.7468 82.6885 50.7818C82.6278 50.8184 82.5583 50.8377 82.4874 50.8377C82.4166 50.8377 82.3471 50.8184 82.2864 50.7818L79.8484 49.3869C79.6716 49.2818 79.4698 49.2263 79.2641 49.2263C79.0584 49.2263 78.8566 49.2818 78.6798 49.3869L68.9783 55.0042C68.7996 55.1044 68.6507 55.2503 68.5469 55.4269C68.4432 55.6036 68.3882 55.8046 68.3877 56.0095V67.2189C68.3886 67.4254 68.4436 67.6281 68.5472 67.8067C68.6508 67.9853 68.7995 68.1336 68.9783 68.2369L78.6798 73.8415C78.8566 73.9466 79.0584 74.0022 79.2641 74.0022C79.4698 74.0022 79.6716 73.9466 79.8484 73.8415L89.5624 68.2369C89.7389 68.1321 89.8851 67.983 89.9864 67.8045C90.0878 67.626 90.1409 67.4242 90.1405 67.2189V39.2833C90.1409 39.0765 90.0864 38.8734 89.9827 38.6946C89.8789 38.5158 89.7296 38.3677 89.5499 38.2654L83.7692 35.0358ZM82.8644 63.5369C82.8653 63.5872 82.8529 63.6369 82.8287 63.6809C82.8044 63.725 82.7691 63.762 82.7262 63.7882L79.3709 65.711C79.3266 65.7352 79.2769 65.7478 79.2264 65.7478C79.1759 65.7478 79.1262 65.7352 79.0819 65.711L75.7643 63.8008C75.7199 63.7752 75.6827 63.7386 75.6563 63.6947C75.6299 63.6507 75.6152 63.6007 75.6135 63.5495V59.7041C75.6152 59.6528 75.6299 59.6029 75.6563 59.5589C75.6827 59.5149 75.7199 59.4783 75.7643 59.4527L79.0944 57.5301C79.1387 57.4993 79.1913 57.4827 79.2452 57.4827C79.2992 57.4827 79.3518 57.4993 79.396 57.5301L82.7262 59.4527C82.7691 59.479 82.8044 59.516 82.8287 59.56C82.8529 59.6041 82.8653 59.6538 82.8644 59.7041V63.5369Z" fill="white"/>
<path fillRule="evenodd" clipRule="evenodd" d="M116.091 59.5911C116.267 59.4862 116.413 59.3372 116.515 59.1587C116.616 58.9802 116.669 58.7784 116.669 58.5732V55.8587C116.671 55.6548 116.618 55.4541 116.517 55.2773C116.415 55.1006 116.268 54.9542 116.091 54.8534L106.439 49.2487C106.263 49.1436 106.061 49.0881 105.855 49.0881C105.649 49.0881 105.448 49.1436 105.271 49.2487L95.5693 54.8534C95.3906 54.9536 95.2417 55.0995 95.138 55.2762C95.0342 55.4528 94.9792 55.6539 94.9787 55.8587V67.0682C94.9796 67.2746 95.0346 67.4773 95.1382 67.6559C95.2418 67.8345 95.3905 67.9828 95.5693 68.0861L105.221 73.5777C105.398 73.6682 105.593 73.7153 105.792 73.7153C105.991 73.7153 106.187 73.6682 106.364 73.5777L112.195 70.3355C112.286 70.2842 112.363 70.2093 112.416 70.1188C112.469 70.0282 112.497 69.9252 112.497 69.8203C112.495 69.717 112.468 69.6158 112.418 69.5257C112.367 69.4357 112.295 69.3598 112.208 69.3051L102.443 63.7003C102.352 63.6521 102.275 63.5798 102.222 63.4911C102.169 63.4025 102.141 63.301 102.142 63.1977V59.6915C102.14 59.5863 102.168 59.4828 102.221 59.392C102.274 59.3012 102.351 59.2267 102.443 59.1763L105.484 57.4296C105.571 57.3748 105.671 57.3458 105.773 57.3458C105.876 57.3458 105.976 57.3748 106.062 57.4296L109.104 59.1763C109.195 59.2272 109.27 59.3023 109.321 59.3932C109.372 59.4841 109.397 59.5874 109.393 59.6915V62.4436C109.393 62.5467 109.42 62.648 109.471 62.7375C109.522 62.8269 109.596 62.9014 109.685 62.9535C109.774 63.0056 109.875 63.0334 109.978 63.0344C110.081 63.0353 110.182 63.0094 110.272 62.9589L116.091 59.5911Z" fill="white"/>
<path fillRule="evenodd" clipRule="evenodd" d="M105.761 59.0632C105.796 59.0445 105.834 59.0347 105.874 59.0347C105.913 59.0347 105.952 59.0445 105.987 59.0632L107.847 60.144C107.882 60.161 107.911 60.1879 107.932 60.2214C107.952 60.2548 107.962 60.2934 107.96 60.3324V62.5442C107.962 62.585 107.953 62.6256 107.933 62.6613C107.913 62.6969 107.883 62.726 107.847 62.7452L105.987 63.8134C105.954 63.8379 105.915 63.8511 105.874 63.8511C105.833 63.8511 105.793 63.8379 105.761 63.8134L103.901 62.7452C103.867 62.724 103.838 62.6945 103.819 62.6593C103.799 62.6241 103.788 62.5845 103.788 62.5442V60.3952C103.79 60.3571 103.802 60.3201 103.821 60.2873C103.841 60.2544 103.868 60.2269 103.901 60.2068L105.761 59.0632Z" fill="white"/>
<path fillRule="evenodd" clipRule="evenodd" d="M52.0887 49.3618C52.269 49.2671 52.4695 49.2177 52.6731 49.2177C52.8767 49.2177 53.0772 49.2671 53.2574 49.3618L62.8835 54.9162C63.0617 55.0191 63.2092 55.1676 63.3109 55.3466C63.4125 55.5255 63.4645 55.7283 63.4615 55.9341V67.043C63.4645 67.2488 63.4125 67.4516 63.3109 67.6306C63.2092 67.8095 63.0617 67.9581 62.8835 68.0609L53.2574 73.6154C53.0806 73.7205 52.8788 73.776 52.6731 73.776C52.4674 73.776 52.2655 73.7205 52.0887 73.6154L42.4627 68.0609C42.2862 67.9561 42.1401 67.8071 42.0387 67.6286C41.9373 67.4501 41.8842 67.2483 41.8846 67.043V55.9215C41.8864 55.7184 41.9405 55.5192 42.0418 55.343C42.1431 55.1669 42.288 55.0199 42.4627 54.9162L52.0887 49.3618Z" fill="url(#paint0_linear_89_1106)"/>
<path opacity="0.66" d="M62.8332 54.9162L53.2448 49.3617C53.1496 49.3112 53.0482 49.2732 52.9433 49.2486L42.1108 67.7718C42.202 67.8865 42.3126 67.9843 42.4375 68.0609L52.0762 73.6153C52.2156 73.6959 52.3704 73.7465 52.5305 73.7638C52.6906 73.7811 52.8526 73.7648 53.0061 73.7159L63.1222 55.1801C63.0414 55.0765 62.9437 54.9873 62.8332 54.9162Z" fill="#4B4B4B"/>
<path d="M53.2323 73.6154L62.8332 68.0609C63.0062 67.9553 63.1477 67.805 63.2427 67.6259C63.3378 67.4469 63.383 67.2455 63.3736 67.043L52.981 49.2486C52.6758 49.1717 52.353 49.2121 52.0762 49.3618L42.5507 54.8534L52.9181 73.7033C53.0271 73.692 53.1333 73.6622 53.2323 73.6154V73.6154Z" fill="url(#paint1_linear_89_1106)"/>
</g>
<defs>
<linearGradient id="paint0_linear_89_1106" x1="41.8846" y1="61.4886" x2="63.4615" y2="61.4886" gradientUnits="userSpaceOnUse">
<stop offset="0.01" stopColor="white"/>
<stop offset="0.19" stopColor="#E8E8E8"/>
<stop offset="0.54" stopColor="#C3C3C3"/>
<stop offset="0.82" stopColor="#ABABAB"/>
<stop offset="1" stopColor="#A3A3A3"/>
</linearGradient>
<linearGradient id="paint1_linear_89_1106" x1="41.7338" y1="61.476" x2="64.0019" y2="61.476" gradientUnits="userSpaceOnUse">
<stop stopColor="#A3A3A3"/>
<stop offset="0.18" stopColor="#ABABAB"/>
<stop offset="0.46" stopColor="#C3C3C3"/>
<stop offset="0.81" stopColor="#E8E8E8"/>
<stop offset="0.99" stopColor="white"/>
</linearGradient>
<clipPath id="clip0_89_1106">
<rect width="132" height="132" fill="white"/>
</clipPath>
</defs>
</svg>
