<svg width="48" height="48" viewBox="0 0 48 48" fill="none" xmlns="http://www.w3.org/2000/svg">
<g clip-path="url(#clip0_132_460)">
<path d="M3.91561 48C2.88045 48 1.96906 47.6062 1.18143 46.8186C0.393812 46.0309 0 45.1195 0 44.0844V3.91561C0 2.88045 0.393812 1.96906 1.18143 1.18143C1.96906 0.393812 2.88045 0 3.91561 0H44.0844C45.1196 0 46.0309 0.393812 46.8186 1.18143C47.6062 1.96906 48 2.88045 48 3.91561V44.0844C48 45.1195 47.6062 46.0309 46.8186 46.8186C46.0309 47.6062 45.1196 48 44.0844 48H29.8397V44.0844H44.0844V7.76371H3.91561V44.0844H18.1603V48H3.91561ZM22.076 48V28.8945L16.4051 34.5654L13.6371 31.7975L23.9662 21.4008L34.3629 31.7975L31.5949 34.5654L25.9241 28.8945V48H22.076Z" fill="white"/>
</g>
<defs>
<clipPath id="clip0_132_460">
<rect width="48" height="48" fill="white"/>
</clipPath>
</defs>
</svg>
