<svg width="132" height="163" viewBox="0 0 132 163" fill="none" xmlns="http://www.w3.org/2000/svg">
<path d="M38.1562 147.625H42.1797C43.0443 147.625 43.7812 147.755 44.3906 148.016C45 148.276 45.4661 148.661 45.7891 149.172C46.1172 149.677 46.2812 150.302 46.2812 151.047C46.2812 151.615 46.1771 152.115 45.9688 152.547C45.7604 152.979 45.4661 153.344 45.0859 153.641C44.7057 153.932 44.2526 154.159 43.7266 154.32L43.1328 154.609H39.5156L39.5 153.055H42.2109C42.6797 153.055 43.0703 152.971 43.3828 152.805C43.6953 152.638 43.9297 152.411 44.0859 152.125C44.2474 151.833 44.3281 151.505 44.3281 151.141C44.3281 150.745 44.25 150.401 44.0938 150.109C43.9427 149.812 43.7083 149.586 43.3906 149.43C43.0729 149.268 42.6693 149.188 42.1797 149.188H40.1172V159H38.1562V147.625ZM44.6484 159L41.9766 153.891L44.0312 153.883L46.7422 158.898V159H44.6484ZM51.7734 159.156C51.1484 159.156 50.5833 159.055 50.0781 158.852C49.5781 158.643 49.151 158.354 48.7969 157.984C48.4479 157.615 48.1797 157.18 47.9922 156.68C47.8047 156.18 47.7109 155.641 47.7109 155.062V154.75C47.7109 154.089 47.8073 153.49 48 152.953C48.1927 152.417 48.4609 151.958 48.8047 151.578C49.1484 151.193 49.5547 150.898 50.0234 150.695C50.4922 150.492 51 150.391 51.5469 150.391C52.151 150.391 52.6797 150.492 53.1328 150.695C53.5859 150.898 53.9609 151.185 54.2578 151.555C54.5599 151.919 54.7839 152.354 54.9297 152.859C55.0807 153.365 55.1562 153.922 55.1562 154.531V155.336H48.625V153.984H53.2969V153.836C53.2865 153.497 53.2188 153.18 53.0938 152.883C52.974 152.586 52.7891 152.346 52.5391 152.164C52.2891 151.982 51.9557 151.891 51.5391 151.891C51.2266 151.891 50.9479 151.958 50.7031 152.094C50.4635 152.224 50.263 152.414 50.1016 152.664C49.9401 152.914 49.8151 153.216 49.7266 153.57C49.6432 153.919 49.6016 154.312 49.6016 154.75V155.062C49.6016 155.432 49.651 155.776 49.75 156.094C49.8542 156.406 50.0052 156.68 50.2031 156.914C50.401 157.148 50.6406 157.333 50.9219 157.469C51.2031 157.599 51.5234 157.664 51.8828 157.664C52.3359 157.664 52.7396 157.573 53.0938 157.391C53.4479 157.208 53.7552 156.951 54.0156 156.617L55.0078 157.578C54.8255 157.844 54.5885 158.099 54.2969 158.344C54.0052 158.583 53.6484 158.779 53.2266 158.93C52.8099 159.081 52.3255 159.156 51.7734 159.156ZM61.3906 157.305V153.273C61.3906 152.971 61.3359 152.711 61.2266 152.492C61.1172 152.273 60.9505 152.104 60.7266 151.984C60.5078 151.865 60.2318 151.805 59.8984 151.805C59.5911 151.805 59.3255 151.857 59.1016 151.961C58.8776 152.065 58.7031 152.206 58.5781 152.383C58.4531 152.56 58.3906 152.76 58.3906 152.984H56.5156C56.5156 152.651 56.5964 152.328 56.7578 152.016C56.9193 151.703 57.1536 151.424 57.4609 151.18C57.7682 150.935 58.1354 150.742 58.5625 150.602C58.9896 150.461 59.4688 150.391 60 150.391C60.6354 150.391 61.1979 150.497 61.6875 150.711C62.1823 150.924 62.5703 151.247 62.8516 151.68C63.138 152.107 63.2812 152.643 63.2812 153.289V157.047C63.2812 157.432 63.3073 157.779 63.3594 158.086C63.4167 158.388 63.4974 158.651 63.6016 158.875V159H61.6719C61.5833 158.797 61.513 158.539 61.4609 158.227C61.4141 157.909 61.3906 157.602 61.3906 157.305ZM61.6641 153.859L61.6797 155.023H60.3281C59.9792 155.023 59.6719 155.057 59.4062 155.125C59.1406 155.188 58.9193 155.281 58.7422 155.406C58.5651 155.531 58.4323 155.682 58.3438 155.859C58.2552 156.036 58.2109 156.237 58.2109 156.461C58.2109 156.685 58.263 156.891 58.3672 157.078C58.4714 157.26 58.6224 157.404 58.8203 157.508C59.0234 157.612 59.2682 157.664 59.5547 157.664C59.9401 157.664 60.276 157.586 60.5625 157.43C60.8542 157.268 61.0833 157.073 61.25 156.844C61.4167 156.609 61.5052 156.388 61.5156 156.18L62.125 157.016C62.0625 157.229 61.9557 157.458 61.8047 157.703C61.6536 157.948 61.4557 158.182 61.2109 158.406C60.9714 158.625 60.6823 158.805 60.3438 158.945C60.0104 159.086 59.625 159.156 59.1875 159.156C58.6354 159.156 58.1432 159.047 57.7109 158.828C57.2786 158.604 56.9401 158.305 56.6953 157.93C56.4505 157.549 56.3281 157.12 56.3281 156.641C56.3281 156.193 56.4115 155.797 56.5781 155.453C56.75 155.104 57 154.812 57.3281 154.578C57.6615 154.344 58.0677 154.167 58.5469 154.047C59.026 153.922 59.5729 153.859 60.1875 153.859H61.6641ZM68.7031 157.656C69.0104 157.656 69.2865 157.596 69.5312 157.477C69.7812 157.352 69.9818 157.18 70.1328 156.961C70.2891 156.742 70.375 156.49 70.3906 156.203H72.1641C72.1536 156.75 71.9922 157.247 71.6797 157.695C71.3672 158.143 70.9531 158.5 70.4375 158.766C69.9219 159.026 69.3516 159.156 68.7266 159.156C68.0807 159.156 67.5182 159.047 67.0391 158.828C66.5599 158.604 66.1615 158.297 65.8438 157.906C65.526 157.516 65.2865 157.065 65.125 156.555C64.9688 156.044 64.8906 155.497 64.8906 154.914V154.641C64.8906 154.057 64.9688 153.51 65.125 153C65.2865 152.484 65.526 152.031 65.8438 151.641C66.1615 151.25 66.5599 150.945 67.0391 150.727C67.5182 150.503 68.0781 150.391 68.7188 150.391C69.3958 150.391 69.9896 150.526 70.5 150.797C71.0104 151.062 71.4115 151.435 71.7031 151.914C72 152.388 72.1536 152.94 72.1641 153.57H70.3906C70.375 153.258 70.2969 152.977 70.1562 152.727C70.0208 152.471 69.8281 152.268 69.5781 152.117C69.3333 151.966 69.0391 151.891 68.6953 151.891C68.3151 151.891 68 151.969 67.75 152.125C67.5 152.276 67.3047 152.484 67.1641 152.75C67.0234 153.01 66.9219 153.305 66.8594 153.633C66.8021 153.956 66.7734 154.292 66.7734 154.641V154.914C66.7734 155.263 66.8021 155.602 66.8594 155.93C66.9167 156.258 67.0156 156.552 67.1562 156.812C67.3021 157.068 67.5 157.273 67.75 157.43C68 157.581 68.3177 157.656 68.7031 157.656ZM77.4844 150.547V151.922H72.7188V150.547H77.4844ZM74.0938 148.477H75.9766V156.664C75.9766 156.924 76.013 157.125 76.0859 157.266C76.1641 157.401 76.2708 157.492 76.4062 157.539C76.5417 157.586 76.7005 157.609 76.8828 157.609C77.013 157.609 77.138 157.602 77.2578 157.586C77.3776 157.57 77.474 157.555 77.5469 157.539L77.5547 158.977C77.3984 159.023 77.2161 159.065 77.0078 159.102C76.8047 159.138 76.5703 159.156 76.3047 159.156C75.8724 159.156 75.4896 159.081 75.1562 158.93C74.8229 158.773 74.5625 158.521 74.375 158.172C74.1875 157.823 74.0938 157.359 74.0938 156.781V148.477ZM79.0156 158.062C79.0156 157.771 79.1146 157.526 79.3125 157.328C79.5104 157.125 79.7786 157.023 80.1172 157.023C80.4609 157.023 80.7292 157.125 80.9219 157.328C81.1198 157.526 81.2188 157.771 81.2188 158.062C81.2188 158.354 81.1198 158.599 80.9219 158.797C80.7292 158.995 80.4609 159.094 80.1172 159.094C79.7786 159.094 79.5104 158.995 79.3125 158.797C79.1146 158.599 79.0156 158.354 79.0156 158.062ZM83.4844 150.547H85.375V159.734C85.375 160.312 85.276 160.799 85.0781 161.195C84.8802 161.596 84.5885 161.898 84.2031 162.102C83.8177 162.31 83.3464 162.414 82.7891 162.414C82.6224 162.414 82.4505 162.401 82.2734 162.375C82.0911 162.354 81.9193 162.323 81.7578 162.281L81.7656 160.812C81.875 160.833 81.9922 160.849 82.1172 160.859C82.237 160.875 82.3516 160.883 82.4609 160.883C82.6849 160.883 82.8724 160.844 83.0234 160.766C83.1745 160.688 83.2891 160.565 83.3672 160.398C83.4453 160.232 83.4844 160.01 83.4844 159.734V150.547ZM83.3203 148.328C83.3203 148.042 83.4167 147.805 83.6094 147.617C83.8021 147.424 84.0651 147.328 84.3984 147.328C84.737 147.328 85 147.424 85.1875 147.617C85.3802 147.805 85.4766 148.042 85.4766 148.328C85.4766 148.609 85.3802 148.844 85.1875 149.031C85 149.219 84.737 149.312 84.3984 149.312C84.0651 149.312 83.8021 149.219 83.6094 149.031C83.4167 148.844 83.3203 148.609 83.3203 148.328ZM92.1484 156.711C92.1484 156.523 92.1016 156.354 92.0078 156.203C91.9141 156.047 91.7344 155.906 91.4688 155.781C91.2083 155.656 90.8229 155.542 90.3125 155.438C89.8646 155.339 89.4531 155.221 89.0781 155.086C88.7083 154.945 88.3906 154.776 88.125 154.578C87.8594 154.38 87.6536 154.146 87.5078 153.875C87.362 153.604 87.2891 153.292 87.2891 152.938C87.2891 152.594 87.3646 152.268 87.5156 151.961C87.6667 151.654 87.8828 151.383 88.1641 151.148C88.4453 150.914 88.7865 150.729 89.1875 150.594C89.5938 150.458 90.0469 150.391 90.5469 150.391C91.2552 150.391 91.862 150.51 92.3672 150.75C92.8776 150.984 93.2682 151.305 93.5391 151.711C93.8099 152.112 93.9453 152.565 93.9453 153.07H92.0625C92.0625 152.846 92.0052 152.638 91.8906 152.445C91.7812 152.247 91.6146 152.089 91.3906 151.969C91.1667 151.844 90.8854 151.781 90.5469 151.781C90.224 151.781 89.9557 151.833 89.7422 151.938C89.5339 152.036 89.3776 152.167 89.2734 152.328C89.1745 152.49 89.125 152.667 89.125 152.859C89.125 153 89.151 153.128 89.2031 153.242C89.2604 153.352 89.3542 153.453 89.4844 153.547C89.6146 153.635 89.7917 153.719 90.0156 153.797C90.2448 153.875 90.5312 153.951 90.875 154.023C91.5208 154.159 92.0755 154.333 92.5391 154.547C93.0078 154.755 93.3672 155.026 93.6172 155.359C93.8672 155.688 93.9922 156.104 93.9922 156.609C93.9922 156.984 93.9115 157.328 93.75 157.641C93.5938 157.948 93.3646 158.216 93.0625 158.445C92.7604 158.669 92.3984 158.844 91.9766 158.969C91.5599 159.094 91.0911 159.156 90.5703 159.156C89.8047 159.156 89.1562 159.021 88.625 158.75C88.0938 158.474 87.6901 158.122 87.4141 157.695C87.1432 157.263 87.0078 156.815 87.0078 156.352H88.8281C88.849 156.701 88.9453 156.979 89.1172 157.188C89.2943 157.391 89.513 157.539 89.7734 157.633C90.0391 157.721 90.3125 157.766 90.5938 157.766C90.9323 157.766 91.2161 157.721 91.4453 157.633C91.6745 157.539 91.849 157.414 91.9688 157.258C92.0885 157.096 92.1484 156.914 92.1484 156.711Z" fill="white"/>
<g clipPath="url(#clip0_89_1103)">
<path d="M66 132C52.9465 132 40.186 128.129 29.3324 120.877C18.4787 113.625 10.0194 103.317 5.02398 91.2571C0.0285998 79.1972 -1.27842 65.9268 1.2682 53.1241C3.81482 40.3213 10.1007 28.5612 19.331 19.331C28.5612 10.1007 40.3213 3.81482 53.1241 1.2682C65.9268 -1.27843 79.1972 0.0286139 91.2571 5.024C103.317 10.0194 113.625 18.4788 120.877 29.3324C128.129 40.1861 132 52.9465 132 66.0001C131.98 83.4982 125.02 100.274 112.647 112.647C100.274 125.02 83.4982 131.98 66 132ZM66 4.58688C53.8537 4.58688 41.98 8.18871 31.8807 14.9369C21.7813 21.685 13.9099 31.2765 9.26165 42.4983C4.61343 53.7201 3.39725 66.0682 5.76689 77.9812C8.13653 89.8941 13.9856 100.837 22.5744 109.426C31.1631 118.015 42.1059 123.864 54.0189 126.233C65.9319 128.603 78.28 127.387 89.5018 122.738C100.724 118.09 110.315 110.219 117.063 100.119C123.811 90.02 127.413 78.1464 127.413 66.0001C127.397 49.7174 120.921 34.1064 109.407 22.5928C97.8937 11.0792 82.2827 4.60351 66 4.58688V4.58688Z" fill="white"/>
<path d="M113.917 66.0126C113.917 59.6539 105.962 53.647 93.8099 49.9147C96.6249 37.4863 95.3808 27.6089 89.864 24.4421C88.5302 23.6934 87.0201 23.3159 85.4908 23.3488V27.7095C86.2629 27.6855 87.0284 27.8584 87.7151 28.2121C90.3793 29.7327 91.4851 35.5385 90.6306 43.0031C90.417 44.8378 90.0651 46.7731 89.6378 48.746C85.5563 47.7553 81.4124 47.0416 77.2345 46.6097C74.7432 43.1788 72.027 39.9168 69.1039 36.8454C75.4752 30.9265 81.457 27.6843 85.516 27.6843V23.3237C80.1375 23.3237 73.1127 27.1565 66 33.8043C58.8873 27.1942 51.8625 23.4116 46.484 23.4116V27.7597C50.5305 27.7597 56.5373 30.9894 62.896 36.8705C59.9866 39.9281 57.291 43.1822 54.8282 46.6097C50.6408 47.0384 46.4881 47.7565 42.3998 48.7586C41.96 46.8108 41.6207 44.9132 41.3945 43.091C40.4771 35.639 41.6081 29.8332 44.2346 28.2875C44.9261 27.9224 45.7028 27.7489 46.484 27.7849V23.4242C44.9433 23.396 43.4222 23.773 42.0731 24.5175C36.5815 27.6843 35.3499 37.5492 38.19 49.9273C26.0381 53.6973 18.0834 59.679 18.0834 66.0126C18.0834 72.3462 26.0381 78.3782 38.19 82.0979C35.3751 94.5263 36.6317 104.416 42.1359 107.57C43.4778 108.322 44.9967 108.699 46.5342 108.664C51.9002 108.664 58.9375 104.894 66.0377 98.1957C73.1504 104.806 80.1877 108.588 85.5537 108.588C87.095 108.623 88.6176 108.245 89.9646 107.495C95.4562 104.328 96.6877 94.4634 93.8602 82.0853C105.962 78.3153 113.879 72.3336 113.879 66.0126H113.917ZM88.4817 52.981C87.7654 55.4943 86.8606 58.0956 85.8427 60.6969C85.051 59.1387 84.209 57.5678 83.3294 56.0095C82.4497 54.4513 81.4695 52.9181 80.5144 51.4352C83.2917 51.8499 85.9684 52.3527 88.5194 52.981H88.4817ZM79.5342 73.7788C78.0137 76.4178 76.4554 78.9185 74.8343 81.2434C71.9189 81.4947 68.9657 81.6329 66.0377 81.6329C63.1097 81.6329 60.1439 81.4947 57.241 81.2685C55.6199 78.9437 54.0365 76.4554 52.516 73.8416C50.9954 71.2277 49.6759 68.6893 48.4444 66.0628C49.701 63.449 50.9577 60.8351 52.4908 58.2715C54.024 55.7079 55.5822 53.1317 57.2033 50.8069C60.1062 50.5556 63.0594 50.4173 66 50.4173C68.9406 50.4173 71.9063 50.5556 74.7966 50.7944C76.4177 53.1192 78.0011 55.5948 79.5217 58.2087C81.0422 60.8225 82.3492 63.3736 83.5807 65.9874C82.324 68.6013 81.0045 71.2277 79.5342 73.7788V73.7788ZM85.8176 71.2654C86.8732 73.8793 87.778 76.5057 88.5194 79.0442C86.0061 79.6725 83.2665 80.2003 80.4642 80.6024C81.4318 79.107 82.3869 77.5613 83.2791 75.9779C84.1713 74.3945 85.0259 72.8363 85.7924 71.2654H85.8176ZM66.0125 92.1135C64.2029 90.2285 62.3808 88.1425 60.5837 85.8302C62.3431 85.9182 64.1401 85.9684 65.9623 85.9684C67.7844 85.9684 69.6066 85.9684 71.3911 85.8302C69.7179 88.009 67.931 90.0979 66.0377 92.0884L66.0125 92.1135ZM51.4855 80.6024C48.7083 80.2003 46.0316 79.6851 43.4805 79.0568C44.1968 76.5434 45.1017 73.9421 46.107 71.3408C46.9113 72.9117 47.7532 74.4699 48.6203 76.0282C49.4874 77.5864 50.5556 79.0944 51.5106 80.5773L51.4855 80.6024ZM65.9371 39.9242C67.8606 41.9211 69.6769 44.0185 71.3785 46.2076C69.6192 46.1322 67.8221 46.0693 66 46.0693C64.1778 46.0693 62.3431 46.0693 60.5712 46.2076C62.244 44.0169 64.0353 41.9193 65.9371 39.9242V39.9242ZM51.4855 51.4227C50.5304 52.9307 49.5754 54.4764 48.6706 56.0473C47.7658 57.6181 46.9364 59.1763 46.1572 60.7472C45.1016 58.1207 44.2094 55.5069 43.468 52.9684C45.9813 52.3652 48.7209 51.8374 51.5106 51.4227H51.4855ZM33.8294 75.89C26.9052 72.9368 22.4314 69.0789 22.4314 66.0126C22.4314 62.9463 26.9052 59.0507 33.8294 56.1226C35.5007 55.4064 37.3355 54.7529 39.233 54.1497C40.4285 58.2114 41.898 62.1873 43.6314 66.0503C41.918 69.8927 40.4694 73.8479 39.2959 77.8881C37.4406 77.3165 35.616 76.6495 33.8294 75.89V75.89ZM44.3351 103.8C41.671 102.28 40.5651 96.4741 41.4196 89.0221C41.6333 87.1874 41.9851 85.2521 42.4124 83.2791C46.4998 84.2595 50.6474 84.969 54.8282 85.4029C57.3084 88.839 60.0207 92.1014 62.9463 95.1672C56.575 101.086 50.6058 104.328 46.5342 104.328C45.7681 104.344 45.0108 104.162 44.3351 103.8V103.8ZM90.6557 88.9341C91.5731 96.3987 90.4421 102.192 87.8031 103.738C87.1134 104.109 86.3362 104.287 85.5537 104.253C81.5072 104.253 75.5004 101.023 69.1416 95.1421C72.0548 92.0878 74.7506 88.8335 77.2094 85.4029C81.3961 84.9691 85.5485 84.2511 89.6378 83.254C90.0795 85.1276 90.4193 87.0238 90.6557 88.9341ZM98.1957 75.9025C96.5244 76.6314 94.6771 77.2723 92.7921 77.8755C91.5929 73.8191 90.1235 69.8475 88.3937 65.9874C90.105 62.1441 91.5535 58.1891 92.7292 54.1497C94.6645 54.7529 96.4992 55.4064 98.2209 56.1352C105.133 59.0884 109.606 62.9589 109.606 66.0252C109.606 69.0914 105.107 72.9745 98.1957 75.9025V75.9025Z" fill="white"/>
<path d="M65.9874 74.9349C70.9151 74.9349 74.9098 70.9402 74.9098 66.0126C74.9098 61.0849 70.9151 57.0903 65.9874 57.0903C61.0598 57.0903 57.0651 61.0849 57.0651 66.0126C57.0651 70.9402 61.0598 74.9349 65.9874 74.9349Z" fill="white"/>
</g>
<defs>
<clipPath id="clip0_89_1103">
<rect width="132" height="132" fill="white"/>
</clipPath>
</defs>
</svg>
