<svg width="132" height="163" viewBox="0 0 132 163" fill="none" xmlns="http://www.w3.org/2000/svg">
<path d="M56.1406 156.07C56.1406 155.836 56.1042 155.628 56.0312 155.445C55.9635 155.263 55.8411 155.096 55.6641 154.945C55.487 154.794 55.237 154.648 54.9141 154.508C54.5964 154.362 54.1901 154.214 53.6953 154.062C53.1536 153.896 52.6536 153.711 52.1953 153.508C51.7422 153.299 51.3464 153.06 51.0078 152.789C50.6693 152.513 50.4062 152.198 50.2188 151.844C50.0312 151.484 49.9375 151.07 49.9375 150.602C49.9375 150.138 50.0339 149.716 50.2266 149.336C50.4245 148.956 50.7031 148.628 51.0625 148.352C51.4271 148.07 51.8568 147.854 52.3516 147.703C52.8464 147.547 53.3932 147.469 53.9922 147.469C54.8359 147.469 55.5625 147.625 56.1719 147.938C56.7865 148.25 57.2578 148.669 57.5859 149.195C57.9193 149.721 58.0859 150.302 58.0859 150.938H56.1406C56.1406 150.562 56.0599 150.232 55.8984 149.945C55.7422 149.654 55.5026 149.424 55.1797 149.258C54.862 149.091 54.4583 149.008 53.9688 149.008C53.5052 149.008 53.1198 149.078 52.8125 149.219C52.5052 149.359 52.276 149.549 52.125 149.789C51.974 150.029 51.8984 150.299 51.8984 150.602C51.8984 150.815 51.9479 151.01 52.0469 151.188C52.1458 151.359 52.2969 151.521 52.5 151.672C52.7031 151.818 52.9583 151.956 53.2656 152.086C53.5729 152.216 53.9349 152.341 54.3516 152.461C54.9818 152.648 55.5312 152.857 56 153.086C56.4688 153.31 56.8594 153.565 57.1719 153.852C57.4844 154.138 57.7188 154.464 57.875 154.828C58.0312 155.188 58.1094 155.596 58.1094 156.055C58.1094 156.534 58.013 156.966 57.8203 157.352C57.6276 157.732 57.3516 158.057 56.9922 158.328C56.638 158.594 56.2109 158.799 55.7109 158.945C55.2161 159.086 54.6641 159.156 54.0547 159.156C53.5078 159.156 52.9688 159.083 52.4375 158.938C51.9115 158.792 51.4323 158.57 51 158.273C50.5677 157.971 50.224 157.596 49.9688 157.148C49.7135 156.695 49.5859 156.167 49.5859 155.562H51.5469C51.5469 155.932 51.6094 156.247 51.7344 156.508C51.8646 156.768 52.0443 156.982 52.2734 157.148C52.5026 157.31 52.7682 157.43 53.0703 157.508C53.3776 157.586 53.7057 157.625 54.0547 157.625C54.513 157.625 54.8958 157.56 55.2031 157.43C55.5156 157.299 55.75 157.117 55.9062 156.883C56.0625 156.648 56.1406 156.378 56.1406 156.07ZM64.4219 157.305V153.273C64.4219 152.971 64.3672 152.711 64.2578 152.492C64.1484 152.273 63.9818 152.104 63.7578 151.984C63.5391 151.865 63.263 151.805 62.9297 151.805C62.6224 151.805 62.3568 151.857 62.1328 151.961C61.9089 152.065 61.7344 152.206 61.6094 152.383C61.4844 152.56 61.4219 152.76 61.4219 152.984H59.5469C59.5469 152.651 59.6276 152.328 59.7891 152.016C59.9505 151.703 60.1849 151.424 60.4922 151.18C60.7995 150.935 61.1667 150.742 61.5938 150.602C62.0208 150.461 62.5 150.391 63.0312 150.391C63.6667 150.391 64.2292 150.497 64.7188 150.711C65.2135 150.924 65.6016 151.247 65.8828 151.68C66.1693 152.107 66.3125 152.643 66.3125 153.289V157.047C66.3125 157.432 66.3385 157.779 66.3906 158.086C66.4479 158.388 66.5286 158.651 66.6328 158.875V159H64.7031C64.6146 158.797 64.5443 158.539 64.4922 158.227C64.4453 157.909 64.4219 157.602 64.4219 157.305ZM64.6953 153.859L64.7109 155.023H63.3594C63.0104 155.023 62.7031 155.057 62.4375 155.125C62.1719 155.188 61.9505 155.281 61.7734 155.406C61.5964 155.531 61.4635 155.682 61.375 155.859C61.2865 156.036 61.2422 156.237 61.2422 156.461C61.2422 156.685 61.2943 156.891 61.3984 157.078C61.5026 157.26 61.6536 157.404 61.8516 157.508C62.0547 157.612 62.2995 157.664 62.5859 157.664C62.9714 157.664 63.3073 157.586 63.5938 157.43C63.8854 157.268 64.1146 157.073 64.2812 156.844C64.4479 156.609 64.5365 156.388 64.5469 156.18L65.1562 157.016C65.0938 157.229 64.987 157.458 64.8359 157.703C64.6849 157.948 64.487 158.182 64.2422 158.406C64.0026 158.625 63.7135 158.805 63.375 158.945C63.0417 159.086 62.6562 159.156 62.2188 159.156C61.6667 159.156 61.1745 159.047 60.7422 158.828C60.3099 158.604 59.9714 158.305 59.7266 157.93C59.4818 157.549 59.3594 157.12 59.3594 156.641C59.3594 156.193 59.4427 155.797 59.6094 155.453C59.7812 155.104 60.0312 154.812 60.3594 154.578C60.6927 154.344 61.099 154.167 61.5781 154.047C62.0573 153.922 62.6042 153.859 63.2188 153.859H64.6953ZM73.0234 156.711C73.0234 156.523 72.9766 156.354 72.8828 156.203C72.7891 156.047 72.6094 155.906 72.3438 155.781C72.0833 155.656 71.6979 155.542 71.1875 155.438C70.7396 155.339 70.3281 155.221 69.9531 155.086C69.5833 154.945 69.2656 154.776 69 154.578C68.7344 154.38 68.5286 154.146 68.3828 153.875C68.237 153.604 68.1641 153.292 68.1641 152.938C68.1641 152.594 68.2396 152.268 68.3906 151.961C68.5417 151.654 68.7578 151.383 69.0391 151.148C69.3203 150.914 69.6615 150.729 70.0625 150.594C70.4688 150.458 70.9219 150.391 71.4219 150.391C72.1302 150.391 72.737 150.51 73.2422 150.75C73.7526 150.984 74.1432 151.305 74.4141 151.711C74.6849 152.112 74.8203 152.565 74.8203 153.07H72.9375C72.9375 152.846 72.8802 152.638 72.7656 152.445C72.6562 152.247 72.4896 152.089 72.2656 151.969C72.0417 151.844 71.7604 151.781 71.4219 151.781C71.099 151.781 70.8307 151.833 70.6172 151.938C70.4089 152.036 70.2526 152.167 70.1484 152.328C70.0495 152.49 70 152.667 70 152.859C70 153 70.026 153.128 70.0781 153.242C70.1354 153.352 70.2292 153.453 70.3594 153.547C70.4896 153.635 70.6667 153.719 70.8906 153.797C71.1198 153.875 71.4062 153.951 71.75 154.023C72.3958 154.159 72.9505 154.333 73.4141 154.547C73.8828 154.755 74.2422 155.026 74.4922 155.359C74.7422 155.688 74.8672 156.104 74.8672 156.609C74.8672 156.984 74.7865 157.328 74.625 157.641C74.4688 157.948 74.2396 158.216 73.9375 158.445C73.6354 158.669 73.2734 158.844 72.8516 158.969C72.4349 159.094 71.9661 159.156 71.4453 159.156C70.6797 159.156 70.0312 159.021 69.5 158.75C68.9688 158.474 68.5651 158.122 68.2891 157.695C68.0182 157.263 67.8828 156.815 67.8828 156.352H69.7031C69.724 156.701 69.8203 156.979 69.9922 157.188C70.1693 157.391 70.388 157.539 70.6484 157.633C70.9141 157.721 71.1875 157.766 71.4688 157.766C71.8073 157.766 72.0911 157.721 72.3203 157.633C72.5495 157.539 72.724 157.414 72.8438 157.258C72.9635 157.096 73.0234 156.914 73.0234 156.711ZM81.2578 156.711C81.2578 156.523 81.2109 156.354 81.1172 156.203C81.0234 156.047 80.8438 155.906 80.5781 155.781C80.3177 155.656 79.9323 155.542 79.4219 155.438C78.974 155.339 78.5625 155.221 78.1875 155.086C77.8177 154.945 77.5 154.776 77.2344 154.578C76.9688 154.38 76.763 154.146 76.6172 153.875C76.4714 153.604 76.3984 153.292 76.3984 152.938C76.3984 152.594 76.474 152.268 76.625 151.961C76.776 151.654 76.9922 151.383 77.2734 151.148C77.5547 150.914 77.8958 150.729 78.2969 150.594C78.7031 150.458 79.1562 150.391 79.6562 150.391C80.3646 150.391 80.9714 150.51 81.4766 150.75C81.987 150.984 82.3776 151.305 82.6484 151.711C82.9193 152.112 83.0547 152.565 83.0547 153.07H81.1719C81.1719 152.846 81.1146 152.638 81 152.445C80.8906 152.247 80.724 152.089 80.5 151.969C80.276 151.844 79.9948 151.781 79.6562 151.781C79.3333 151.781 79.0651 151.833 78.8516 151.938C78.6432 152.036 78.487 152.167 78.3828 152.328C78.2839 152.49 78.2344 152.667 78.2344 152.859C78.2344 153 78.2604 153.128 78.3125 153.242C78.3698 153.352 78.4635 153.453 78.5938 153.547C78.724 153.635 78.901 153.719 79.125 153.797C79.3542 153.875 79.6406 153.951 79.9844 154.023C80.6302 154.159 81.1849 154.333 81.6484 154.547C82.1172 154.755 82.4766 155.026 82.7266 155.359C82.9766 155.688 83.1016 156.104 83.1016 156.609C83.1016 156.984 83.0208 157.328 82.8594 157.641C82.7031 157.948 82.474 158.216 82.1719 158.445C81.8698 158.669 81.5078 158.844 81.0859 158.969C80.6693 159.094 80.2005 159.156 79.6797 159.156C78.9141 159.156 78.2656 159.021 77.7344 158.75C77.2031 158.474 76.7995 158.122 76.5234 157.695C76.2526 157.263 76.1172 156.815 76.1172 156.352H77.9375C77.9583 156.701 78.0547 156.979 78.2266 157.188C78.4036 157.391 78.6224 157.539 78.8828 157.633C79.1484 157.721 79.4219 157.766 79.7031 157.766C80.0417 157.766 80.3255 157.721 80.5547 157.633C80.7839 157.539 80.9583 157.414 81.0781 157.258C81.1979 157.096 81.2578 156.914 81.2578 156.711Z" fill="white"/>
<g clip-path="url(#clip0_90_1131)">
<path d="M66 132C52.9465 132 40.186 128.129 29.3324 120.877C18.4788 113.625 10.0194 103.317 5.02398 91.2571C0.0285962 79.1972 -1.27842 65.9268 1.2682 53.124C3.81483 40.3213 10.1007 28.5612 19.331 19.3309C28.5612 10.1007 40.3213 3.81478 53.1241 1.26815C65.9268 -1.27847 79.1972 0.0285719 91.2571 5.02396C103.317 10.0193 113.625 18.4787 120.877 29.3324C128.129 40.186 132 52.9464 132 66C131.98 83.4982 125.02 100.274 112.647 112.647C100.274 125.02 83.4982 131.98 66 132V132ZM66 4.58684C53.8537 4.58684 41.98 8.18863 31.8807 14.9368C21.7814 21.685 13.9099 31.2764 9.26166 42.4982C4.61344 53.72 3.39725 66.0681 5.76689 77.9811C8.13653 89.8941 13.9856 100.837 22.5744 109.426C31.1631 118.014 42.1059 123.864 54.0189 126.233C65.9319 128.603 78.28 127.387 89.5018 122.738C100.724 118.09 110.315 110.219 117.063 100.119C123.811 90.02 127.413 78.1464 127.413 66C127.397 49.7173 120.921 34.1063 109.407 22.5927C97.8937 11.0791 82.2827 4.60347 66 4.58684Z" fill="white"/>
<path d="M98.7864 71.0895C95.931 71.0865 93.1138 71.7446 90.5552 73.0122C89.7529 71.6761 89.1317 70.2393 88.7079 68.7395C88.4641 67.5617 88.4132 66.3521 88.5571 65.158C88.831 63.8466 89.1878 62.5538 89.6253 61.2875C89.6253 61.1241 89.4242 60.345 87.5895 60.3324C85.7548 60.3199 84.1965 60.6843 84.008 61.1744C83.682 62.0525 83.4298 62.9562 83.254 63.8762C82.9273 65.5476 79.5971 71.4162 77.6995 74.5704C77.1278 73.5999 76.7042 72.5495 76.4429 71.4539C76.201 70.2718 76.1459 69.059 76.2795 67.8598C76.5549 66.5516 76.9159 65.2628 77.3602 64.0019C77.3602 63.8385 77.1592 63.0594 75.3244 63.0468C73.4897 63.0343 71.9314 63.3987 71.7429 63.8762C71.5544 64.3538 71.3534 65.4973 70.9889 66.5906C70.6245 67.6839 66.1759 77.5739 65.0072 80.1375C64.4166 81.3941 63.9014 82.4874 63.5369 83.2037V83.3294C63.2228 83.9326 63.0343 84.2719 63.0343 84.2719C62.7829 84.7243 62.519 85.139 62.3934 85.139C62.1517 84.212 62.1517 83.2385 62.3934 82.3115C63.0468 78.8808 64.6428 73.5149 64.6177 73.3515C64.5925 73.1881 64.9193 72.321 63.5872 71.8309C63.28 71.6832 62.9343 71.6354 62.5986 71.6939C62.2628 71.7525 61.9538 71.9147 61.7148 72.1576C61.6017 72.1576 61.5137 72.4341 61.5137 72.4341C61.5137 72.4341 62.9589 66.4147 58.7616 66.4147C56.1477 66.4147 52.4783 69.2799 50.7315 71.8812L44.6241 75.2239L41.6835 76.8324L41.495 76.6188C36.4056 71.2026 27.0183 67.3697 27.4204 60.0811C27.5586 57.4295 28.476 50.4551 45.4661 41.9977C59.3774 35.0609 70.5114 36.971 72.4341 41.206C75.1736 47.238 66.4775 58.46 52.0385 60.056C46.5343 60.6717 43.6314 58.548 42.9151 57.7437C42.1988 56.9394 42.0354 56.8766 41.7589 57.0274C41.294 57.2913 41.583 58.0202 41.7589 58.46C42.298 59.4598 43.0315 60.3417 43.9163 61.0538C44.8011 61.766 45.8194 62.2941 46.9113 62.607C49.5628 63.4741 56.0346 63.9516 63.8385 60.9356C72.6352 57.5426 79.4337 48.1302 77.4231 40.2635C75.4124 32.3968 62.1043 29.6196 49.5377 34.0807C42.0605 36.7449 33.9676 40.9044 28.1744 46.3583C21.2502 52.8301 20.1569 58.46 20.6344 60.81C22.2429 69.1793 33.7791 74.6332 38.3911 78.6546L37.7502 79.0065C35.4379 80.15 26.6538 84.7494 24.4547 89.6127C21.9413 95.1294 24.8568 99.0754 26.7669 99.666C32.6984 101.312 38.7806 98.3465 42.048 93.4707C45.3153 88.5948 44.9132 82.2487 43.4177 79.3458C43.4239 79.3125 43.4239 79.2784 43.4177 79.2452L45.2273 78.1771C46.4086 77.4859 47.5647 76.8324 48.5701 76.2921C47.8978 78.2424 47.5002 80.2767 47.3888 82.3366C47.1375 85.4657 48.4193 89.5122 50.0906 91.1333C50.3909 91.3933 50.7402 91.5906 51.1178 91.7136C51.4955 91.8366 51.894 91.8828 52.2898 91.8495C54.2376 91.8495 55.1298 90.2285 56.0598 88.3058C57.3164 85.9558 58.3343 83.2037 58.3343 83.2037C58.3343 83.2037 56.9897 90.618 60.634 90.618C61.9661 90.618 63.3107 88.8964 63.9014 88.0167L64.0019 87.8408L64.2281 87.5015C64.7685 86.5716 65.9497 84.4478 67.7342 80.9669C70.0213 76.4554 72.233 70.8004 72.233 70.8004C72.4465 72.0413 72.7404 73.2671 73.1127 74.4699C73.644 75.9269 74.2737 77.346 74.9977 78.7174C74.4699 79.4589 74.1432 79.8861 74.1432 79.8861C73.7159 80.4516 73.2384 81.0548 72.7357 81.658C71.1987 83.3417 69.7755 85.126 68.4756 86.9988C68.2805 87.3133 68.2135 87.6906 68.2883 88.0529C68.3631 88.4153 68.5741 88.7352 68.8778 88.9467C69.5606 89.3044 70.3421 89.4281 71.102 89.2985C72.2518 89.2449 73.3833 88.9897 74.4448 88.5446C75.4701 88.1795 76.4389 87.6719 77.3225 87.0365C78.229 86.4111 78.9578 85.5614 79.4379 84.5703C79.9181 83.5792 80.1331 82.4805 80.0621 81.3816C79.9641 79.9925 79.6105 78.6334 79.019 77.3728L79.5091 76.6816C81.3693 73.9241 83.0484 71.0487 84.5358 68.0735C84.7565 69.3088 85.0502 70.5299 85.4154 71.7304C85.854 72.99 86.3919 74.2128 87.024 75.3873C84.8976 77.0307 83.2312 79.1948 82.1858 81.6706C81.1428 84.6866 81.9596 86.0563 83.4425 86.3705C84.2925 86.3807 85.1297 86.1638 85.8678 85.7422C86.9649 85.3743 87.999 84.8403 88.9341 84.1588C90.7186 82.9021 92.4276 81.0171 92.3271 78.5415C92.2532 77.4014 91.9943 76.2809 91.5605 75.2239C94.3529 74.1197 97.3853 73.7645 100.357 74.1934C108.262 75.1234 109.82 80.0621 109.518 82.123C109.382 82.8608 109.086 83.56 108.652 84.172C108.218 84.784 107.656 85.2941 107.005 85.6668C106.452 86.0186 106.289 86.1317 106.326 86.3956C106.364 86.6595 106.653 86.7475 107.131 86.6721C108.319 86.2962 109.366 85.5691 110.133 84.5865C110.9 83.604 111.352 82.4121 111.428 81.1679C111.642 76.3674 107.005 71.0518 98.7864 71.0895ZM37.8381 91.6359C35.2243 94.5011 31.5548 95.5819 29.9966 94.6645C28.4383 93.7471 28.9661 89.4745 32.1832 86.4459C34.0914 84.723 36.1572 83.1831 38.3534 81.8465L39.9745 80.8663L40.1504 80.7658L40.5525 80.527C41.128 82.4529 41.1799 84.4973 40.7028 86.4498C40.2257 88.4024 39.2369 90.1925 37.8381 91.6359ZM56.9646 78.6672C56.0598 80.8914 54.1496 86.5842 52.9809 86.27C51.8123 85.9558 51.385 81.6832 52.7924 77.4733C53.5007 75.4114 54.5499 73.4828 55.8964 71.7681C57.329 70.1721 58.8998 69.6569 59.2768 70.2978C59.6538 70.9387 57.4924 77.2723 56.9646 78.6672ZM72.7357 86.2071C72.3461 86.4082 71.9943 86.5339 71.8309 86.4333C71.6675 86.3328 71.9943 86.094 71.9943 86.094C71.9943 86.094 73.9547 83.9703 74.7338 83.0027C75.1862 82.4497 75.714 81.746 76.2795 81.0297C76.2857 81.105 76.2857 81.1806 76.2795 81.2559C76.2292 83.7818 73.7787 85.5034 72.6854 86.1946L72.7357 86.2071ZM84.8751 83.4299C84.586 83.2289 84.6363 82.5628 85.5914 80.5019C86.2434 79.1648 87.163 77.9757 88.2932 77.0083C88.455 77.5039 88.5439 78.0203 88.5571 78.5415C88.5612 79.6524 88.1972 80.7334 87.522 81.6155C86.8467 82.4977 85.8983 83.1313 84.8248 83.4173L84.8751 83.4299Z" fill="white"/>
</g>
<defs>
<clipPath id="clip0_90_1131">
<rect width="132" height="132" fill="white"/>
</clipPath>
</defs>
</svg>
