<svg width="132" height="163" viewBox="0 0 132 163" fill="none" xmlns="http://www.w3.org/2000/svg">
<path d="M58.1406 156.07C58.1406 155.836 58.1042 155.628 58.0312 155.445C57.9635 155.263 57.8411 155.096 57.6641 154.945C57.487 154.794 57.237 154.648 56.9141 154.508C56.5964 154.362 56.1901 154.214 55.6953 154.062C55.1536 153.896 54.6536 153.711 54.1953 153.508C53.7422 153.299 53.3464 153.06 53.0078 152.789C52.6693 152.513 52.4062 152.198 52.2188 151.844C52.0312 151.484 51.9375 151.07 51.9375 150.602C51.9375 150.138 52.0339 149.716 52.2266 149.336C52.4245 148.956 52.7031 148.628 53.0625 148.352C53.4271 148.07 53.8568 147.854 54.3516 147.703C54.8464 147.547 55.3932 147.469 55.9922 147.469C56.8359 147.469 57.5625 147.625 58.1719 147.938C58.7865 148.25 59.2578 148.669 59.5859 149.195C59.9193 149.721 60.0859 150.302 60.0859 150.938H58.1406C58.1406 150.562 58.0599 150.232 57.8984 149.945C57.7422 149.654 57.5026 149.424 57.1797 149.258C56.862 149.091 56.4583 149.008 55.9688 149.008C55.5052 149.008 55.1198 149.078 54.8125 149.219C54.5052 149.359 54.276 149.549 54.125 149.789C53.974 150.029 53.8984 150.299 53.8984 150.602C53.8984 150.815 53.9479 151.01 54.0469 151.188C54.1458 151.359 54.2969 151.521 54.5 151.672C54.7031 151.818 54.9583 151.956 55.2656 152.086C55.5729 152.216 55.9349 152.341 56.3516 152.461C56.9818 152.648 57.5312 152.857 58 153.086C58.4688 153.31 58.8594 153.565 59.1719 153.852C59.4844 154.138 59.7188 154.464 59.875 154.828C60.0312 155.188 60.1094 155.596 60.1094 156.055C60.1094 156.534 60.013 156.966 59.8203 157.352C59.6276 157.732 59.3516 158.057 58.9922 158.328C58.638 158.594 58.2109 158.799 57.7109 158.945C57.2161 159.086 56.6641 159.156 56.0547 159.156C55.5078 159.156 54.9688 159.083 54.4375 158.938C53.9115 158.792 53.4323 158.57 53 158.273C52.5677 157.971 52.224 157.596 51.9688 157.148C51.7135 156.695 51.5859 156.167 51.5859 155.562H53.5469C53.5469 155.932 53.6094 156.247 53.7344 156.508C53.8646 156.768 54.0443 156.982 54.2734 157.148C54.5026 157.31 54.7682 157.43 55.0703 157.508C55.3776 157.586 55.7057 157.625 56.0547 157.625C56.513 157.625 56.8958 157.56 57.2031 157.43C57.5156 157.299 57.75 157.117 57.9062 156.883C58.0625 156.648 58.1406 156.378 58.1406 156.07ZM67.8672 157.484L70.8594 159.859L69.5859 160.977L66.6484 158.625L67.8672 157.484ZM70.8828 153V153.625C70.8828 154.484 70.7708 155.255 70.5469 155.938C70.3229 156.62 70.0026 157.201 69.5859 157.68C69.1693 158.159 68.6719 158.526 68.0938 158.781C67.5156 159.031 66.875 159.156 66.1719 159.156C65.474 159.156 64.8359 159.031 64.2578 158.781C63.6849 158.526 63.1875 158.159 62.7656 157.68C62.3438 157.201 62.0156 156.62 61.7812 155.938C61.5521 155.255 61.4375 154.484 61.4375 153.625V153C61.4375 152.141 61.5521 151.372 61.7812 150.695C62.0104 150.013 62.3333 149.432 62.75 148.953C63.1719 148.469 63.6693 148.102 64.2422 147.852C64.8203 147.596 65.4583 147.469 66.1562 147.469C66.8594 147.469 67.5 147.596 68.0781 147.852C68.6615 148.102 69.1615 148.469 69.5781 148.953C69.9948 149.432 70.3151 150.013 70.5391 150.695C70.7682 151.372 70.8828 152.141 70.8828 153ZM68.9141 153.625V152.984C68.9141 152.349 68.8516 151.789 68.7266 151.305C68.6068 150.815 68.4271 150.406 68.1875 150.078C67.9531 149.745 67.6641 149.495 67.3203 149.328C66.9818 149.156 66.5938 149.07 66.1562 149.07C65.7292 149.07 65.3464 149.156 65.0078 149.328C64.6693 149.495 64.3802 149.745 64.1406 150.078C63.901 150.406 63.7188 150.815 63.5938 151.305C63.4688 151.789 63.4062 152.349 63.4062 152.984V153.625C63.4062 154.26 63.4688 154.823 63.5938 155.312C63.7188 155.802 63.901 156.216 64.1406 156.555C64.3854 156.888 64.6771 157.141 65.0156 157.312C65.3594 157.479 65.7448 157.562 66.1719 157.562C66.6094 157.562 66.9974 157.479 67.3359 157.312C67.6745 157.141 67.9609 156.888 68.1953 156.555C68.4297 156.216 68.6068 155.802 68.7266 155.312C68.8516 154.823 68.9141 154.26 68.9141 153.625ZM80 157.445V159H74.2891V157.445H80ZM74.8359 147.625V159H72.875V147.625H74.8359Z" fill="white"/>
<g clipPath="url(#clip0_511_572)">
<path d="M66 132.013C52.9429 132.015 40.1783 128.145 29.3207 120.893C18.463 113.64 10.0001 103.33 5.0022 91.2677C0.00431078 79.205 -1.30403 65.9311 1.24268 53.1247C3.78939 40.3183 10.0767 28.5549 19.3095 19.3221C28.5423 10.0893 40.3058 3.80195 53.1121 1.25524C65.9185 -1.29147 79.1924 0.0169128 91.2552 5.01481C103.318 10.0127 113.628 18.4756 120.88 29.3332C128.133 40.1909 132.002 52.9554 132 66.0126C131.98 83.5107 125.02 100.286 112.647 112.66C100.274 125.033 83.4982 131.993 66 132.013V132.013ZM66 4.59939C53.8536 4.59939 41.98 8.20122 31.8807 14.9494C21.7813 21.6976 13.9099 31.289 9.26164 42.5108C4.61342 53.7326 3.39725 66.0808 5.76689 77.9938C8.13653 89.9067 13.9856 100.849 22.5744 109.438C31.1631 118.027 42.1059 123.876 54.0189 126.246C65.9319 128.615 78.28 127.399 89.5018 122.751C100.724 118.103 110.315 110.231 117.063 100.132C123.811 90.0325 127.413 78.1589 127.413 66.0126C127.41 49.7212 120.94 34.0973 109.425 22.5728C97.91 11.0484 82.2914 4.56581 66 4.54916V4.59939Z" fill="white"/>
<path d="M45.5511 72.3502C45.5511 71.8679 45.4805 71.4378 45.3394 71.0598C45.1982 70.6688 44.9416 70.3103 44.5695 69.9845C44.1974 69.6586 43.6714 69.3328 42.9913 69.0069C42.3113 68.668 41.4195 68.3226 40.3161 67.9707C39.0586 67.5536 37.859 67.0843 36.717 66.563C35.5879 66.0286 34.5806 65.4094 33.6953 64.7056C32.81 64.0017 32.1107 63.1806 31.5975 62.2421C31.097 61.3036 30.8468 60.2087 30.8468 58.9574C30.8468 57.7453 31.1099 56.6504 31.6359 55.6728C32.162 54.6952 32.8998 53.861 33.8493 53.1702C34.7988 52.4664 35.9151 51.932 37.1982 51.567C38.4813 51.189 39.8927 51 41.4324 51C43.4853 51 45.2881 51.3715 46.8406 52.1144C48.406 52.8444 49.6249 53.8741 50.4974 55.2036C51.3699 56.52 51.8062 58.0516 51.8062 59.7982H45.5703C45.5703 59.0291 45.41 58.3514 45.0892 57.7648C44.7812 57.1652 44.3065 56.696 43.665 56.3571C43.0362 56.0182 42.2471 55.8488 41.2976 55.8488C40.3738 55.8488 39.5975 55.9921 38.9688 56.2789C38.3529 56.5526 37.8846 56.9306 37.5638 57.4129C37.2559 57.8952 37.1019 58.423 37.1019 58.9966C37.1019 59.4528 37.2174 59.8698 37.4484 60.2478C37.6921 60.6128 38.0386 60.9582 38.4877 61.2841C38.9496 61.5969 39.5141 61.8967 40.1814 62.1834C40.8486 62.4702 41.612 62.7439 42.4717 63.0046C43.9729 63.4869 45.3009 64.0213 46.4557 64.6078C47.6233 65.1944 48.6049 65.8591 49.4004 66.6021C50.1959 67.345 50.7925 68.1857 51.1903 69.1242C51.6009 70.0627 51.8062 71.125 51.8062 72.3111C51.8062 73.5754 51.5624 74.6964 51.0748 75.674C50.6001 76.6515 49.9072 77.4857 48.9962 78.1765C48.098 78.8543 47.0202 79.3692 45.7628 79.7211C44.5054 80.073 43.1004 80.249 41.5478 80.249C40.1364 80.249 38.7443 80.0665 37.3714 79.7016C35.9985 79.3236 34.7539 78.75 33.6376 77.981C32.5341 77.212 31.6488 76.2344 30.9816 75.0483C30.3272 73.8491 30 72.4284 30 70.7861H36.2743C36.2743 71.6463 36.3962 72.3763 36.64 72.9758C36.8838 73.5624 37.2302 74.0381 37.6793 74.4031C38.1412 74.7681 38.6994 75.0288 39.3538 75.1852C40.0081 75.3416 40.7395 75.4198 41.5478 75.4198C42.4845 75.4198 43.2415 75.2894 43.8189 75.0288C44.4091 74.755 44.8454 74.3836 45.1277 73.9143C45.41 73.4451 45.5511 72.9237 45.5511 72.3502Z" fill="white"/>
<path d="M70.9371 75.4002L78.6357 81.598L74.7094 85L67.1456 78.8022L70.9371 75.4002ZM78.9051 64.9989V66.2697C78.9051 68.4334 78.61 70.3755 78.0198 72.096C77.4296 73.8166 76.5956 75.2829 75.5178 76.4951C74.44 77.7073 73.1633 78.6393 71.6877 79.291C70.225 79.9297 68.6019 80.249 66.8184 80.249C65.0349 80.249 63.4054 79.9297 61.9298 79.291C60.4542 78.6393 59.1711 77.7073 58.0805 76.4951C57.0027 75.2829 56.1687 73.8166 55.5785 72.096C54.9883 70.3755 54.6931 68.4334 54.6931 66.2697V64.9989C54.6931 62.8352 54.9883 60.893 55.5785 59.1725C56.1687 57.4389 56.9963 55.9661 58.0613 54.7539C59.1391 53.5417 60.4157 52.6163 61.8913 51.9776C63.3669 51.3259 64.9964 51 66.7799 51C68.5634 51 70.1929 51.3259 71.6685 51.9776C73.144 52.6163 74.4207 53.5417 75.4985 54.7539C76.5763 55.9661 77.4103 57.4389 78.0005 59.1725C78.6036 60.893 78.9051 62.8352 78.9051 64.9989ZM72.5346 66.2697V64.9597C72.5346 63.5129 72.4063 62.2356 72.1496 61.1277C71.9058 60.0067 71.5338 59.0682 71.0333 58.3122C70.5458 57.5563 69.9427 56.9893 69.2242 56.6113C68.5056 56.2202 67.6909 56.0247 66.7799 56.0247C65.8432 56.0247 65.0156 56.2202 64.2971 56.6113C63.5914 56.9893 62.9948 57.5563 62.5072 58.3122C62.0324 59.0682 61.6668 60.0067 61.4101 61.1277C61.1664 62.2356 61.0445 63.5129 61.0445 64.9597V66.2697C61.0445 67.7035 61.1664 68.9808 61.4101 70.1018C61.6668 71.2097 62.0389 72.1482 62.5264 72.9172C63.014 73.6862 63.6171 74.2662 64.3356 74.6573C65.0541 75.0483 65.8817 75.2438 66.8184 75.2438C67.7294 75.2438 68.5377 75.0483 69.2434 74.6573C69.962 74.2662 70.565 73.6862 71.0526 72.9172C71.5402 72.1482 71.9058 71.2097 72.1496 70.1018C72.4063 68.9808 72.5346 67.7035 72.5346 66.2697Z" fill="white"/>
<path d="M101 74.931V79.858H86.8539V74.931H101ZM88.9902 51.391V79.858H82.7159V51.391H88.9902Z" fill="white"/>
</g>
<defs>
<clipPath id="clip0_511_572">
<rect width="132" height="132" fill="white"/>
</clipPath>
</defs>
</svg>
