<svg width="132" height="163" viewBox="0 0 132 163" fill="none" xmlns="http://www.w3.org/2000/svg">
<path d="M32.8359 147.625V159H30.8906V147.625H32.8359ZM36.4062 147.625V149.188H27.3516V147.625H36.4062ZM39.5781 158.078L41.875 150.547H43.8906L40.5 160.289C40.4219 160.497 40.3203 160.724 40.1953 160.969C40.0703 161.214 39.9062 161.445 39.7031 161.664C39.5052 161.888 39.2578 162.068 38.9609 162.203C38.6641 162.344 38.3047 162.414 37.8828 162.414C37.7161 162.414 37.5547 162.398 37.3984 162.367C37.2474 162.341 37.1042 162.312 36.9688 162.281L36.9609 160.844C37.013 160.849 37.0755 160.854 37.1484 160.859C37.2266 160.865 37.2891 160.867 37.3359 160.867C37.6484 160.867 37.9089 160.828 38.1172 160.75C38.3255 160.677 38.4948 160.557 38.625 160.391C38.7604 160.224 38.875 160 38.9688 159.719L39.5781 158.078ZM38.2812 150.547L40.2891 156.875L40.625 158.859L39.3203 159.195L36.25 150.547H38.2812ZM46.8594 152.172V162.25H44.9766V150.547H46.7109L46.8594 152.172ZM52.3672 154.695V154.859C52.3672 155.474 52.2943 156.044 52.1484 156.57C52.0078 157.091 51.7969 157.547 51.5156 157.938C51.2396 158.323 50.8984 158.622 50.4922 158.836C50.0859 159.049 49.6172 159.156 49.0859 159.156C48.5599 159.156 48.099 159.06 47.7031 158.867C47.3125 158.669 46.9818 158.391 46.7109 158.031C46.4401 157.672 46.2214 157.25 46.0547 156.766C45.8932 156.276 45.7786 155.74 45.7109 155.156V154.523C45.7786 153.904 45.8932 153.341 46.0547 152.836C46.2214 152.331 46.4401 151.896 46.7109 151.531C46.9818 151.167 47.3125 150.885 47.7031 150.688C48.0938 150.49 48.5495 150.391 49.0703 150.391C49.6016 150.391 50.0729 150.495 50.4844 150.703C50.8958 150.906 51.2422 151.198 51.5234 151.578C51.8047 151.953 52.0156 152.406 52.1562 152.938C52.2969 153.464 52.3672 154.049 52.3672 154.695ZM50.4844 154.859V154.695C50.4844 154.305 50.4479 153.943 50.375 153.609C50.3021 153.271 50.1875 152.974 50.0312 152.719C49.875 152.464 49.6745 152.266 49.4297 152.125C49.1901 151.979 48.901 151.906 48.5625 151.906C48.2292 151.906 47.9427 151.964 47.7031 152.078C47.4635 152.188 47.263 152.341 47.1016 152.539C46.9401 152.737 46.8151 152.969 46.7266 153.234C46.638 153.495 46.5755 153.779 46.5391 154.086V155.602C46.6016 155.977 46.7083 156.32 46.8594 156.633C47.0104 156.945 47.224 157.195 47.5 157.383C47.7812 157.565 48.1406 157.656 48.5781 157.656C48.9167 157.656 49.2057 157.583 49.4453 157.438C49.6849 157.292 49.8802 157.091 50.0312 156.836C50.1875 156.576 50.3021 156.276 50.375 155.938C50.4479 155.599 50.4844 155.24 50.4844 154.859ZM57.6953 159.156C57.0703 159.156 56.5052 159.055 56 158.852C55.5 158.643 55.0729 158.354 54.7188 157.984C54.3698 157.615 54.1016 157.18 53.9141 156.68C53.7266 156.18 53.6328 155.641 53.6328 155.062V154.75C53.6328 154.089 53.7292 153.49 53.9219 152.953C54.1146 152.417 54.3828 151.958 54.7266 151.578C55.0703 151.193 55.4766 150.898 55.9453 150.695C56.4141 150.492 56.9219 150.391 57.4688 150.391C58.0729 150.391 58.6016 150.492 59.0547 150.695C59.5078 150.898 59.8828 151.185 60.1797 151.555C60.4818 151.919 60.7057 152.354 60.8516 152.859C61.0026 153.365 61.0781 153.922 61.0781 154.531V155.336H54.5469V153.984H59.2188V153.836C59.2083 153.497 59.1406 153.18 59.0156 152.883C58.8958 152.586 58.7109 152.346 58.4609 152.164C58.2109 151.982 57.8776 151.891 57.4609 151.891C57.1484 151.891 56.8698 151.958 56.625 152.094C56.3854 152.224 56.1849 152.414 56.0234 152.664C55.862 152.914 55.737 153.216 55.6484 153.57C55.5651 153.919 55.5234 154.312 55.5234 154.75V155.062C55.5234 155.432 55.5729 155.776 55.6719 156.094C55.776 156.406 55.9271 156.68 56.125 156.914C56.3229 157.148 56.5625 157.333 56.8438 157.469C57.125 157.599 57.4453 157.664 57.8047 157.664C58.2578 157.664 58.6615 157.573 59.0156 157.391C59.3698 157.208 59.6771 156.951 59.9375 156.617L60.9297 157.578C60.7474 157.844 60.5104 158.099 60.2188 158.344C59.9271 158.583 59.5703 158.779 59.1484 158.93C58.7318 159.081 58.2474 159.156 57.6953 159.156ZM68.7188 156.07C68.7188 155.836 68.6823 155.628 68.6094 155.445C68.5417 155.263 68.4193 155.096 68.2422 154.945C68.0651 154.794 67.8151 154.648 67.4922 154.508C67.1745 154.362 66.7682 154.214 66.2734 154.062C65.7318 153.896 65.2318 153.711 64.7734 153.508C64.3203 153.299 63.9245 153.06 63.5859 152.789C63.2474 152.513 62.9844 152.198 62.7969 151.844C62.6094 151.484 62.5156 151.07 62.5156 150.602C62.5156 150.138 62.612 149.716 62.8047 149.336C63.0026 148.956 63.2812 148.628 63.6406 148.352C64.0052 148.07 64.4349 147.854 64.9297 147.703C65.4245 147.547 65.9714 147.469 66.5703 147.469C67.4141 147.469 68.1406 147.625 68.75 147.938C69.3646 148.25 69.8359 148.669 70.1641 149.195C70.4974 149.721 70.6641 150.302 70.6641 150.938H68.7188C68.7188 150.562 68.638 150.232 68.4766 149.945C68.3203 149.654 68.0807 149.424 67.7578 149.258C67.4401 149.091 67.0365 149.008 66.5469 149.008C66.0833 149.008 65.6979 149.078 65.3906 149.219C65.0833 149.359 64.8542 149.549 64.7031 149.789C64.5521 150.029 64.4766 150.299 64.4766 150.602C64.4766 150.815 64.526 151.01 64.625 151.188C64.724 151.359 64.875 151.521 65.0781 151.672C65.2812 151.818 65.5365 151.956 65.8438 152.086C66.151 152.216 66.513 152.341 66.9297 152.461C67.5599 152.648 68.1094 152.857 68.5781 153.086C69.0469 153.31 69.4375 153.565 69.75 153.852C70.0625 154.138 70.2969 154.464 70.4531 154.828C70.6094 155.188 70.6875 155.596 70.6875 156.055C70.6875 156.534 70.5911 156.966 70.3984 157.352C70.2057 157.732 69.9297 158.057 69.5703 158.328C69.2161 158.594 68.7891 158.799 68.2891 158.945C67.7943 159.086 67.2422 159.156 66.6328 159.156C66.0859 159.156 65.5469 159.083 65.0156 158.938C64.4896 158.792 64.0104 158.57 63.5781 158.273C63.1458 157.971 62.8021 157.596 62.5469 157.148C62.2917 156.695 62.1641 156.167 62.1641 155.562H64.125C64.125 155.932 64.1875 156.247 64.3125 156.508C64.4427 156.768 64.6224 156.982 64.8516 157.148C65.0807 157.31 65.3464 157.43 65.6484 157.508C65.9557 157.586 66.2839 157.625 66.6328 157.625C67.0911 157.625 67.474 157.56 67.7812 157.43C68.0938 157.299 68.3281 157.117 68.4844 156.883C68.6406 156.648 68.7188 156.378 68.7188 156.07ZM75.6875 157.656C75.9948 157.656 76.2708 157.596 76.5156 157.477C76.7656 157.352 76.9661 157.18 77.1172 156.961C77.2734 156.742 77.3594 156.49 77.375 156.203H79.1484C79.138 156.75 78.9766 157.247 78.6641 157.695C78.3516 158.143 77.9375 158.5 77.4219 158.766C76.9062 159.026 76.3359 159.156 75.7109 159.156C75.0651 159.156 74.5026 159.047 74.0234 158.828C73.5443 158.604 73.1458 158.297 72.8281 157.906C72.5104 157.516 72.2708 157.065 72.1094 156.555C71.9531 156.044 71.875 155.497 71.875 154.914V154.641C71.875 154.057 71.9531 153.51 72.1094 153C72.2708 152.484 72.5104 152.031 72.8281 151.641C73.1458 151.25 73.5443 150.945 74.0234 150.727C74.5026 150.503 75.0625 150.391 75.7031 150.391C76.3802 150.391 76.974 150.526 77.4844 150.797C77.9948 151.062 78.3958 151.435 78.6875 151.914C78.9844 152.388 79.138 152.94 79.1484 153.57H77.375C77.3594 153.258 77.2812 152.977 77.1406 152.727C77.0052 152.471 76.8125 152.268 76.5625 152.117C76.3177 151.966 76.0234 151.891 75.6797 151.891C75.2995 151.891 74.9844 151.969 74.7344 152.125C74.4844 152.276 74.2891 152.484 74.1484 152.75C74.0078 153.01 73.9062 153.305 73.8438 153.633C73.7865 153.956 73.7578 154.292 73.7578 154.641V154.914C73.7578 155.263 73.7865 155.602 73.8438 155.93C73.901 156.258 74 156.552 74.1406 156.812C74.2865 157.068 74.4844 157.273 74.7344 157.43C74.9844 157.581 75.3021 157.656 75.6875 157.656ZM82.4844 152.156V159H80.6016V150.547H82.3984L82.4844 152.156ZM85.0703 150.492L85.0547 152.242C84.9401 152.221 84.8151 152.206 84.6797 152.195C84.5495 152.185 84.4193 152.18 84.2891 152.18C83.9661 152.18 83.6823 152.227 83.4375 152.32C83.1927 152.409 82.987 152.539 82.8203 152.711C82.6589 152.878 82.5339 153.081 82.4453 153.32C82.3568 153.56 82.3047 153.828 82.2891 154.125L81.8594 154.156C81.8594 153.625 81.9115 153.133 82.0156 152.68C82.1198 152.227 82.276 151.828 82.4844 151.484C82.6979 151.141 82.9635 150.872 83.2812 150.68C83.6042 150.487 83.9766 150.391 84.3984 150.391C84.513 150.391 84.6354 150.401 84.7656 150.422C84.901 150.443 85.0026 150.466 85.0703 150.492ZM88.2656 150.547V159H86.375V150.547H88.2656ZM86.25 148.328C86.25 148.042 86.3438 147.805 86.5312 147.617C86.724 147.424 86.9896 147.328 87.3281 147.328C87.6615 147.328 87.9245 147.424 88.1172 147.617C88.3099 147.805 88.4062 148.042 88.4062 148.328C88.4062 148.609 88.3099 148.844 88.1172 149.031C87.9245 149.219 87.6615 149.312 87.3281 149.312C86.9896 149.312 86.724 149.219 86.5312 149.031C86.3438 148.844 86.25 148.609 86.25 148.328ZM92.2188 152.172V162.25H90.3359V150.547H92.0703L92.2188 152.172ZM97.7266 154.695V154.859C97.7266 155.474 97.6536 156.044 97.5078 156.57C97.3672 157.091 97.1562 157.547 96.875 157.938C96.599 158.323 96.2578 158.622 95.8516 158.836C95.4453 159.049 94.9766 159.156 94.4453 159.156C93.9193 159.156 93.4583 159.06 93.0625 158.867C92.6719 158.669 92.3411 158.391 92.0703 158.031C91.7995 157.672 91.5807 157.25 91.4141 156.766C91.2526 156.276 91.138 155.74 91.0703 155.156V154.523C91.138 153.904 91.2526 153.341 91.4141 152.836C91.5807 152.331 91.7995 151.896 92.0703 151.531C92.3411 151.167 92.6719 150.885 93.0625 150.688C93.4531 150.49 93.9089 150.391 94.4297 150.391C94.9609 150.391 95.4323 150.495 95.8438 150.703C96.2552 150.906 96.6016 151.198 96.8828 151.578C97.1641 151.953 97.375 152.406 97.5156 152.938C97.6562 153.464 97.7266 154.049 97.7266 154.695ZM95.8438 154.859V154.695C95.8438 154.305 95.8073 153.943 95.7344 153.609C95.6615 153.271 95.5469 152.974 95.3906 152.719C95.2344 152.464 95.0339 152.266 94.7891 152.125C94.5495 151.979 94.2604 151.906 93.9219 151.906C93.5885 151.906 93.3021 151.964 93.0625 152.078C92.8229 152.188 92.6224 152.341 92.4609 152.539C92.2995 152.737 92.1745 152.969 92.0859 153.234C91.9974 153.495 91.9349 153.779 91.8984 154.086V155.602C91.9609 155.977 92.0677 156.32 92.2188 156.633C92.3698 156.945 92.5833 157.195 92.8594 157.383C93.1406 157.565 93.5 157.656 93.9375 157.656C94.276 157.656 94.5651 157.583 94.8047 157.438C95.0443 157.292 95.2396 157.091 95.3906 156.836C95.5469 156.576 95.6615 156.276 95.7344 155.938C95.8073 155.599 95.8438 155.24 95.8438 154.859ZM103.203 150.547V151.922H98.4375V150.547H103.203ZM99.8125 148.477H101.695V156.664C101.695 156.924 101.732 157.125 101.805 157.266C101.883 157.401 101.99 157.492 102.125 157.539C102.26 157.586 102.419 157.609 102.602 157.609C102.732 157.609 102.857 157.602 102.977 157.586C103.096 157.57 103.193 157.555 103.266 157.539L103.273 158.977C103.117 159.023 102.935 159.065 102.727 159.102C102.523 159.138 102.289 159.156 102.023 159.156C101.591 159.156 101.208 159.081 100.875 158.93C100.542 158.773 100.281 158.521 100.094 158.172C99.9062 157.823 99.8125 157.359 99.8125 156.781V148.477Z" fill="white"/>
<g clip-path="url(#clip0_90_1129)">
<path d="M102.959 102.958H29.0289V29.0415H102.946L102.959 102.958ZM31.0145 100.986H100.998V31.0019H31.0145V100.986Z" fill="white"/>
<path d="M94.5137 70.0842C93.2132 69.2142 91.7589 68.6001 90.2285 68.2746C88.2267 67.7287 86.1222 67.6769 84.096 68.1238C83.3826 68.2873 82.7136 68.6047 82.1356 69.0537C81.8213 69.2789 81.56 69.5702 81.3701 69.9071C81.1803 70.2439 81.0663 70.6183 81.0364 71.0038C81.0065 71.3893 81.0613 71.7768 81.1969 72.1389C81.3325 72.501 81.5456 72.8291 81.8214 73.1002C82.6923 73.9864 83.7302 74.6911 84.8751 75.1736C86.7853 76.0533 88.733 76.8199 90.5678 77.8378C91.8318 78.5367 92.9771 79.4317 93.9608 80.4894C95.3556 82.0896 96.0881 84.1613 96.0092 86.2826C96.0094 87.6229 95.7799 88.9533 95.3306 90.216C94.9001 91.4053 94.1992 92.4783 93.2833 93.3506C92.3674 94.2228 91.2614 94.8706 90.0526 95.2426C87.8208 96.0234 85.4672 96.3979 83.1033 96.3485C80.2393 96.4486 77.3813 96.0227 74.671 95.0918C73.4144 94.6143 73.4144 94.6142 73.4144 93.2319V87.401C74.1546 87.9742 74.9454 88.4788 75.7769 88.909C78.5203 90.3588 81.6697 90.8499 84.7243 90.3039C85.4414 90.1794 86.1255 89.9101 86.735 89.5122C87.0693 89.3036 87.3569 89.0278 87.5794 88.7025C87.8019 88.3772 87.9545 88.0093 88.0278 87.622C88.101 87.2347 88.0931 86.8364 88.0047 86.4523C87.9163 86.0682 87.7492 85.7066 87.5141 85.3903C86.8083 84.4868 85.9058 83.7562 84.8751 83.254C83.3797 82.4246 81.746 81.8591 80.2003 81.1051C78.8719 80.4727 77.6092 79.7108 76.4303 78.8306C75.2325 77.8266 74.3086 76.5355 73.7449 75.0777C73.1813 73.6199 72.9963 72.043 73.2071 70.4944C73.4179 68.9457 74.0177 67.4758 74.9506 66.2218C75.8834 64.9677 77.1189 63.9705 78.5416 63.3233C80.736 62.3892 83.0934 61.898 85.4783 61.8781C88.4069 61.7121 91.3413 62.0827 94.1367 62.9715C94.2794 62.9961 94.4067 63.0757 94.4912 63.1932C94.5758 63.3107 94.611 63.4567 94.5891 63.5998C94.5891 65.5979 94.5891 67.596 94.5891 69.5941C94.6128 69.6763 94.6184 69.7628 94.6054 69.8474C94.5924 69.932 94.5611 70.0128 94.5137 70.0842Z" fill="#FEFFFF"/>
<path d="M60.8729 82.3869V95.3808C60.8729 96.0091 60.8728 96.0091 60.2194 96.0091C58.083 96.0091 55.9467 96.0091 53.8103 96.0091C53.3831 96.0091 53.27 95.896 53.27 95.4562C53.27 86.7601 53.27 78.0682 53.27 69.3804C53.27 68.9029 53.182 68.7395 52.6542 68.7521C49.8644 68.7521 47.0747 68.7521 44.2849 68.7521C43.8073 68.7521 43.7194 68.6013 43.7194 68.174C43.7194 66.5026 43.7194 64.8313 43.7194 63.1473C43.7194 62.6698 43.8953 62.6196 44.2849 62.6196H58.8119C62.4688 62.6196 66.1257 62.6196 69.7826 62.6196C70.2601 62.6196 70.3858 62.7578 70.3732 63.2353C70.3732 64.8941 70.3732 66.5655 70.3732 68.262C70.3732 68.6515 70.2601 68.7647 69.8705 68.7521C67.043 68.7521 64.2281 68.7521 61.4006 68.7521C60.9231 68.7521 60.8351 68.8904 60.8351 69.3302C60.8686 73.6866 60.8812 78.0388 60.8729 82.3869Z" fill="#FEFFFF"/>
<path d="M66 132C52.9464 132 40.186 128.129 29.3324 120.877C18.4787 113.625 10.0193 103.317 5.02391 91.2571C0.0285267 79.1972 -1.27844 65.9268 1.26818 53.124C3.81481 40.3213 10.1007 28.5612 19.331 19.3309C28.5612 10.1007 40.3212 3.81479 53.124 1.26816C65.9267 -1.27846 79.1972 0.0285833 91.2571 5.02397C103.317 10.0194 113.625 18.4788 120.877 29.3324C128.129 40.1861 132 52.9465 132 66C131.98 83.4982 125.02 100.274 112.647 112.647C100.274 125.02 83.4981 131.98 66 132V132ZM66 4.58685C53.853 4.58436 41.9782 8.18405 31.8772 14.9307C21.7762 21.6774 13.9028 31.2679 9.25265 42.4895C4.6025 53.7111 3.3845 66.0596 5.75272 77.9735C8.12094 89.8873 13.969 100.831 22.5573 109.421C31.1456 118.011 42.0883 123.862 54.0017 126.232C65.915 128.603 78.2638 127.387 89.4863 122.74C100.709 118.092 110.301 110.22 117.05 100.121C123.798 90.021 127.401 78.1469 127.401 66C127.384 49.7195 120.91 34.1104 109.399 22.5972C97.8882 11.0839 82.2805 4.60681 66 4.58685V4.58685Z" fill="white"/>
</g>
<defs>
<clipPath id="clip0_90_1129">
<rect width="132" height="132" fill="white"/>
</clipPath>
</defs>
</svg>
