<svg width="133" height="164" viewBox="0 0 133 164" fill="none" xmlns="http://www.w3.org/2000/svg">
<path d="M48.5547 157.158L51.5469 147.862H53.7109L49.6328 159.237H48.1719L48.5547 157.158ZM45.7891 147.862L48.7578 157.158L49.1641 159.237H47.6953L43.6328 147.862H45.7891ZM58.1797 159.393C57.5547 159.393 56.9896 159.291 56.4844 159.088C55.9844 158.88 55.5573 158.591 55.2031 158.221C54.8542 157.851 54.5859 157.416 54.3984 156.916C54.2109 156.416 54.1172 155.877 54.1172 155.299V154.987C54.1172 154.325 54.2135 153.726 54.4062 153.19C54.599 152.653 54.8672 152.195 55.2109 151.815C55.5547 151.429 55.9609 151.135 56.4297 150.932C56.8984 150.729 57.4062 150.627 57.9531 150.627C58.5573 150.627 59.0859 150.729 59.5391 150.932C59.9922 151.135 60.3672 151.421 60.6641 151.791C60.9661 152.156 61.1901 152.591 61.3359 153.096C61.487 153.601 61.5625 154.158 61.5625 154.768V155.573H55.0312V154.221H59.7031V154.073C59.6927 153.734 59.625 153.416 59.5 153.119C59.3802 152.823 59.1953 152.583 58.9453 152.401C58.6953 152.218 58.362 152.127 57.9453 152.127C57.6328 152.127 57.3542 152.195 57.1094 152.33C56.8698 152.461 56.6693 152.651 56.5078 152.901C56.3464 153.151 56.2214 153.453 56.1328 153.807C56.0495 154.156 56.0078 154.549 56.0078 154.987V155.299C56.0078 155.669 56.0573 156.013 56.1562 156.33C56.2604 156.643 56.4115 156.916 56.6094 157.151C56.8073 157.385 57.0469 157.57 57.3281 157.705C57.6094 157.836 57.9297 157.901 58.2891 157.901C58.7422 157.901 59.1458 157.809 59.5 157.627C59.8542 157.445 60.1615 157.187 60.4219 156.854L61.4141 157.815C61.2318 158.08 60.9948 158.336 60.7031 158.58C60.4115 158.82 60.0547 159.015 59.6328 159.166C59.2161 159.317 58.7318 159.393 58.1797 159.393ZM64.9219 152.393V159.237H63.0391V150.783H64.8359L64.9219 152.393ZM67.5078 150.729L67.4922 152.479C67.3776 152.458 67.2526 152.442 67.1172 152.432C66.987 152.421 66.8568 152.416 66.7266 152.416C66.4036 152.416 66.1198 152.463 65.875 152.557C65.6302 152.645 65.4245 152.776 65.2578 152.948C65.0964 153.114 64.9714 153.317 64.8828 153.557C64.7943 153.796 64.7422 154.065 64.7266 154.362L64.2969 154.393C64.2969 153.862 64.349 153.369 64.4531 152.916C64.5573 152.463 64.7135 152.065 64.9219 151.721C65.1354 151.377 65.401 151.109 65.7188 150.916C66.0417 150.724 66.4141 150.627 66.8359 150.627C66.9505 150.627 67.0729 150.638 67.2031 150.658C67.3385 150.679 67.4401 150.703 67.5078 150.729ZM73.4297 156.948C73.4297 156.76 73.3828 156.591 73.2891 156.44C73.1953 156.283 73.0156 156.143 72.75 156.018C72.4896 155.893 72.1042 155.778 71.5938 155.674C71.1458 155.575 70.7344 155.458 70.3594 155.323C69.9896 155.182 69.6719 155.013 69.4062 154.815C69.1406 154.617 68.9349 154.382 68.7891 154.112C68.6432 153.841 68.5703 153.528 68.5703 153.174C68.5703 152.83 68.6458 152.505 68.7969 152.198C68.9479 151.89 69.1641 151.619 69.4453 151.385C69.7266 151.151 70.0677 150.966 70.4688 150.83C70.875 150.695 71.3281 150.627 71.8281 150.627C72.5365 150.627 73.1432 150.747 73.6484 150.987C74.1589 151.221 74.5495 151.541 74.8203 151.948C75.0911 152.349 75.2266 152.802 75.2266 153.307H73.3438C73.3438 153.083 73.2865 152.875 73.1719 152.682C73.0625 152.484 72.8958 152.325 72.6719 152.205C72.4479 152.08 72.1667 152.018 71.8281 152.018C71.5052 152.018 71.237 152.07 71.0234 152.174C70.8151 152.273 70.6589 152.403 70.5547 152.565C70.4557 152.726 70.4062 152.903 70.4062 153.096C70.4062 153.237 70.4323 153.364 70.4844 153.479C70.5417 153.588 70.6354 153.69 70.7656 153.783C70.8958 153.872 71.0729 153.955 71.2969 154.033C71.526 154.112 71.8125 154.187 72.1562 154.26C72.8021 154.395 73.3568 154.57 73.8203 154.783C74.2891 154.992 74.6484 155.263 74.8984 155.596C75.1484 155.924 75.2734 156.341 75.2734 156.846C75.2734 157.221 75.1927 157.565 75.0312 157.877C74.875 158.184 74.6458 158.453 74.3438 158.682C74.0417 158.906 73.6797 159.08 73.2578 159.205C72.8411 159.33 72.3724 159.393 71.8516 159.393C71.0859 159.393 70.4375 159.257 69.9062 158.987C69.375 158.711 68.9714 158.359 68.6953 157.932C68.4245 157.5 68.2891 157.052 68.2891 156.588H70.1094C70.1302 156.937 70.2266 157.216 70.3984 157.424C70.5755 157.627 70.7943 157.776 71.0547 157.869C71.3203 157.958 71.5938 158.002 71.875 158.002C72.2135 158.002 72.4974 157.958 72.7266 157.869C72.9557 157.776 73.1302 157.651 73.25 157.494C73.3698 157.333 73.4297 157.151 73.4297 156.948ZM80.6484 159.393C80.0234 159.393 79.4583 159.291 78.9531 159.088C78.4531 158.88 78.026 158.591 77.6719 158.221C77.3229 157.851 77.0547 157.416 76.8672 156.916C76.6797 156.416 76.5859 155.877 76.5859 155.299V154.987C76.5859 154.325 76.6823 153.726 76.875 153.19C77.0677 152.653 77.3359 152.195 77.6797 151.815C78.0234 151.429 78.4297 151.135 78.8984 150.932C79.3672 150.729 79.875 150.627 80.4219 150.627C81.026 150.627 81.5547 150.729 82.0078 150.932C82.4609 151.135 82.8359 151.421 83.1328 151.791C83.4349 152.156 83.6589 152.591 83.8047 153.096C83.9557 153.601 84.0312 154.158 84.0312 154.768V155.573H77.5V154.221H82.1719V154.073C82.1615 153.734 82.0938 153.416 81.9688 153.119C81.849 152.823 81.6641 152.583 81.4141 152.401C81.1641 152.218 80.8307 152.127 80.4141 152.127C80.1016 152.127 79.8229 152.195 79.5781 152.33C79.3385 152.461 79.138 152.651 78.9766 152.901C78.8151 153.151 78.6901 153.453 78.6016 153.807C78.5182 154.156 78.4766 154.549 78.4766 154.987V155.299C78.4766 155.669 78.526 156.013 78.625 156.33C78.7292 156.643 78.8802 156.916 79.0781 157.151C79.276 157.385 79.5156 157.57 79.7969 157.705C80.0781 157.836 80.3984 157.901 80.7578 157.901C81.2109 157.901 81.6146 157.809 81.9688 157.627C82.3229 157.445 82.6302 157.187 82.8906 156.854L83.8828 157.815C83.7005 158.08 83.4635 158.336 83.1719 158.58C82.8802 158.82 82.5234 159.015 82.1016 159.166C81.6849 159.317 81.2005 159.393 80.6484 159.393ZM87.5156 147.237V159.237H85.625V147.237H87.5156Z" fill="white"/>
<path d="M66.5252 132.249C53.468 132.252 40.7035 128.382 29.8458 121.129C18.9882 113.877 10.5252 103.567 5.52735 91.5043C0.529457 79.4416 -0.778882 66.1676 1.76783 53.3613C4.31454 40.5549 10.6019 28.7914 19.8347 19.5587C29.0674 10.3259 40.8309 4.03853 53.6373 1.49182C66.4436 -1.05489 79.7176 0.253485 91.7803 5.25138C103.843 10.2493 114.153 18.7122 121.405 29.5698C128.658 40.4274 132.528 53.192 132.525 66.2491C132.505 83.7473 125.545 100.523 113.172 112.896C100.799 125.269 84.0233 132.229 66.5252 132.249V132.249ZM66.5252 4.83597C54.3788 4.83597 42.5052 8.43779 32.4058 15.186C22.3065 21.9341 14.435 31.5256 9.78679 42.7474C5.13857 53.9691 3.9224 66.3173 6.29204 78.2303C8.66168 90.1433 14.5107 101.086 23.0995 109.675C31.6883 118.264 42.6311 124.113 54.5441 126.482C66.4571 128.852 78.8052 127.636 90.027 122.987C101.249 118.339 110.84 110.468 117.588 100.368C124.337 90.2691 127.938 78.3955 127.938 66.2491C127.935 49.9577 121.465 34.3339 109.95 22.8094C98.4352 11.2849 82.8166 4.80238 66.5252 4.78573V4.83597Z" fill="white"/>
<path d="M66.5 25.9141L103 90.0007H30L66.5 25.9141Z" fill="white"/>
</svg>
