<svg width="106" height="106" viewBox="0 0 106 106" fill="none" xmlns="http://www.w3.org/2000/svg">
<g clip-path="url(#clip0_221_424)">
<path d="M52.52 105.04C42.1326 105.04 31.9783 101.96 23.3415 96.1888C14.7046 90.4178 7.97299 82.2153 3.99787 72.6186C0.0227585 63.0218 -1.01732 52.4618 1.00918 42.2739C3.03568 32.086 8.03772 22.7278 15.3828 15.3828C22.7278 8.03772 32.086 3.03567 42.2739 1.00918C52.4618 -1.01732 63.0218 0.0227697 72.6186 3.99788C82.2153 7.973 90.4178 14.7046 96.1888 23.3415C101.96 31.9784 105.04 42.1326 105.04 52.52C105.024 66.4443 99.4857 79.7938 89.6397 89.6397C79.7938 99.4857 66.4443 105.024 52.52 105.04ZM52.52 3.65004C42.8545 3.65004 33.4059 6.51622 25.3693 11.8861C17.3327 17.256 11.0689 24.8885 7.37003 33.8183C3.67117 42.7481 2.70338 52.5742 4.58904 62.0541C6.4747 71.5339 11.1291 80.2418 17.9637 87.0764C24.7983 93.911 33.5061 98.5654 42.986 100.451C52.4658 102.337 62.2919 101.369 71.2218 97.67C80.1516 93.9712 87.784 87.7074 93.1539 79.6707C98.5238 71.6341 101.39 62.1856 101.39 52.52C101.377 39.563 96.2237 27.1404 87.0617 17.9784C77.8997 8.81632 65.4771 3.66328 52.52 3.65004V3.65004Z" fill="white"/>
<path d="M83 52H79V48C79 46.8 78.2 46 77 46H73V42C73 40.8 72.2 40 71 40H67V36H71C72.2 36 73 35.2 73 34V28C73 26.8 72.2 26 71 26H65C63.8 26 63 26.8 63 28V32H59C57.8 32 57 32.8 57 34V40H49V34C49 32.8 48.2 32 47 32H43V28C43 26.8 42.2 26 41 26H35C33.8 26 33 26.8 33 28V34C33 35.2 33.8 36 35 36H39V40H35C33.8 40 33 40.8 33 42V46H29C27.8 46 27 46.8 27 48V52H23C21.8 52 21 52.8 21 54V72C21 73.2 21.8 74 23 74H29C30.2 74 31 73.2 31 72V62H33V72C33 73.2 33.8 74 35 74H39V78C39 79.2 39.8 80 41 80H49C50.2 80 51 79.2 51 78V72C51 70.8 50.2 70 49 70H43V68H63V70H57C55.8 70 55 70.8 55 72V78C55 79.2 55.8 80 57 80H65C66.2 80 67 79.2 67 78V74H71C72.2 74 73 73.2 73 72V62H75V72C75 73.2 75.8 74 77 74H83C84.2 74 85 73.2 85 72V54C85 52.8 84.2 52 83 52ZM49 58C49 59.2 48.2 60 47 60H41C39.8 60 39 59.2 39 58V52C39 50.8 39.8 50 41 50H47C48.2 50 49 50.8 49 52V58ZM67 58C67 59.2 66.2 60 65 60H59C57.8 60 57 59.2 57 58V52C57 50.8 57.8 50 59 50H65C66.2 50 67 50.8 67 52V58Z" fill="white"/>
</g>
<defs>
<clipPath id="clip0_221_424">
<rect width="105.04" height="105.04" fill="white"/>
</clipPath>
</defs>
</svg>
