<svg width="42" height="37" viewBox="0 0 42 37" fill="none" xmlns="http://www.w3.org/2000/svg">
<path d="M19.8847 4.82622C20.4427 7.08922 19.474 9.47622 17.9085 11.7392C17.334 12.6252 16.8163 13.5467 16.3585 14.4982C16.0872 15.0252 15.8005 15.2345 15.289 14.8237C14.7775 14.413 14.514 14.6532 14.2815 15.1182C12.9485 17.4484 11.6077 19.7734 10.2592 22.0932C10.0035 22.5272 9.84849 22.8682 10.4762 23.1162C11.104 23.3642 11.0807 23.6665 10.763 24.1857C9.77099 25.821 8.81774 27.4872 7.86449 29.1535C7.67871 29.4754 7.41141 29.7427 7.08949 29.9285C5.06674 31.0677 3.16024 32.207 1.19174 33.323C0.904988 33.4857 0.594987 33.9585 0.191987 33.571C-0.211013 33.1835 0.11449 32.796 0.31599 32.4627L7.74049 19.59L18.5905 0.741975C18.6757 0.586975 18.761 0.431975 18.854 0.284725C18.9278 0.171663 19.0374 0.0865763 19.1652 0.0430331C19.293 -0.000510022 19.4317 -2.58493e-06 19.5592 0.0444745C19.9622 0.106475 19.8305 0.439725 19.8305 0.679975C19.8925 1.86572 19.8847 3.09797 19.8847 4.82622Z" fill="#E453BC"/>
<path d="M21.8145 4.15186C21.8145 3.02811 21.8145 1.91211 21.8145 0.788364C21.8145 0.517114 21.5975 0.0986142 22.1245 0.0133642C22.5352 -0.0563858 22.7522 0.152864 22.946 0.501614C24.496 3.21411 26.046 5.92661 27.596 8.62361C32.0755 16.3736 36.5472 24.1417 41.0112 31.9279C41.2902 32.4084 42.042 32.9819 41.3987 33.5399C40.9415 33.9429 40.4222 33.2686 39.9727 33.0206C38.2755 32.0751 36.6015 31.0754 34.9042 30.1221C34.4119 29.8315 34.0096 29.4104 33.7417 28.9054C32.804 27.2004 31.8197 25.5186 30.8277 23.8446C30.5332 23.3486 30.448 22.9921 31.0912 22.7519C31.7345 22.5116 31.595 22.1861 31.3237 21.7289C29.9752 19.4349 28.65 17.1357 27.348 14.8314C27.0457 14.2966 26.7667 14.0564 26.2165 14.5059C25.829 14.8314 25.5655 14.7306 25.3175 14.2889C24.2402 12.3901 23.1397 10.5069 22.0392 8.62361C21.8123 8.07762 21.7399 7.47974 21.83 6.89536C21.799 5.98086 21.8145 5.06636 21.8145 4.15186Z" fill="#E453BC"/>
<path d="M35.1057 36.2524C34.5894 36.2266 34.072 36.2266 33.5557 36.2524C32.5757 36.4119 31.5737 36.3719 30.6095 36.1348C29.6454 35.8978 28.739 35.4686 27.9447 34.8729C27.5714 34.6283 27.1256 34.5189 26.6815 34.5629C23.287 34.5629 19.8925 34.5629 16.498 34.5629C15.5826 34.4966 14.6727 34.7514 13.925 35.2837C12.8474 36.0658 11.5235 36.4318 10.1972 36.3144C7.68621 36.2292 5.17521 36.3144 2.66421 36.3144C2.42938 36.3299 2.19378 36.3299 1.95895 36.3144C1.69545 36.3144 1.57921 36.0587 1.47846 35.8417C1.37771 35.6247 1.57145 35.4697 1.74195 35.3689L8.33721 31.5714C8.60835 31.4563 8.90547 31.4161 9.19746 31.4552H32.494C32.9068 31.4328 33.3176 31.5268 33.6797 31.7264C35.7102 32.9199 37.764 34.0514 39.7945 35.2837C39.996 35.3999 40.3835 35.4464 40.2595 35.8107C40.2083 35.974 40.1045 36.1158 39.9643 36.2139C39.8241 36.312 39.6554 36.361 39.4845 36.3532C38.0042 36.2369 36.555 36.2524 35.1057 36.2524Z" fill="#E453BC"/>
</svg>
