<svg width="155" height="37" viewBox="0 0 155 37" fill="none" xmlns="http://www.w3.org/2000/svg">
<g clipPath="url(#clip0_77_4019)">
<path d="M0 16.3292V36.3242H8.556V24.1025H27.1018V16.3292H8.556H0Z" fill="#5CEDC2"/>
<path d="M8.556 8.0523H29.605V0.279053H0V8.0523H8.556Z" fill="#5CEDC2"/>
<path d="M60.5352 22.4751C65.4797 20.6461 68.8665 19.5301 68.8665 13.2603V13.1441C68.8665 9.4783 67.6962 6.4248 65.534 4.26255C62.9765 1.6663 59.148 0.279053 54.2035 0.279053H36.425V8.02905H53.475C57.6367 8.02905 59.4192 8.3623 59.954 11.3383V12.5628C59.954 15.8333 57.7762 16.3603 53.6067 16.3603H36.425V36.3553H44.95V23.8778H51.6692L60.0315 36.3243H70.029L60.5352 22.4751Z" fill="#5CEDC2"/>
<path d="M146.56 0V9.0985L155 20.1267V0H146.56Z" fill="#5CEDC2"/>
<path d="M128.898 36.3243V27.9853L120.458 16.957V36.3243H128.898Z" fill="#5CEDC2"/>
<path d="M128.898 12.8882L135.013 20.9095L146.808 36.3242H155V33.6272L146.56 22.599V22.661L139.035 12.772L129.255 0H120.458V1.89875L128.898 12.927V12.8882Z" fill="#5CEDC2"/>
<path d="M93.868 4.8283C94.426 7.0913 93.4573 9.4783 91.8918 11.7413C91.3172 12.6272 90.7995 13.5488 90.3418 14.5003C90.0705 15.0273 89.7838 15.2365 89.2723 14.8258C88.7608 14.415 88.4973 14.6553 88.2648 15.1203C86.9318 17.4505 85.591 19.7755 84.2425 22.0953C83.9868 22.5293 83.8318 22.8703 84.4595 23.1183C85.0873 23.3663 85.064 23.6685 84.7463 24.1878C83.7543 25.823 82.801 27.4893 81.8478 29.1555C81.662 29.4775 81.3947 29.7448 81.0728 29.9305C79.05 31.0698 77.1435 32.209 75.175 33.325C74.8883 33.4878 74.5783 33.9605 74.1753 33.573C73.7723 33.1855 74.0978 32.798 74.2993 32.4648L81.7238 19.5921L92.5738 0.74405C92.659 0.58905 92.7443 0.43405 92.8373 0.2868C92.9111 0.173738 93.0207 0.0886515 93.1485 0.0451083C93.2763 0.00156517 93.415 0.00207261 93.5425 0.0465497C93.9455 0.10855 93.8138 0.4418 93.8138 0.68205C93.8758 1.8678 93.868 3.10005 93.868 4.8283Z" fill="#E453BC"/>
<path d="M95.7977 4.15394C95.7977 3.03019 95.7977 1.91419 95.7977 0.790439C95.7977 0.519189 95.5807 0.100689 96.1077 0.0154394C96.5185 -0.0543106 96.7355 0.154939 96.9292 0.503689C98.4792 3.21619 100.029 5.92869 101.579 8.62569C106.059 16.3757 110.53 24.1438 114.994 31.9299C115.273 32.4104 116.025 32.9839 115.382 33.5419C114.925 33.9449 114.405 33.2707 113.956 33.0227C112.259 32.0772 110.585 31.0774 108.887 30.1242C108.395 29.8336 107.993 29.4125 107.725 28.9074C106.787 27.2024 105.803 25.5207 104.811 23.8467C104.516 23.3507 104.431 22.9942 105.074 22.7539C105.718 22.5137 105.578 22.1882 105.307 21.7309C103.958 19.4369 102.633 17.1378 101.331 14.8334C101.029 14.2987 100.75 14.0584 100.2 14.5079C99.8122 14.8334 99.5487 14.7327 99.3007 14.2909C98.2235 12.3922 97.123 10.5089 96.0225 8.62569C95.7956 8.07969 95.7232 7.48181 95.8132 6.89744C95.7822 5.98294 95.7977 5.06844 95.7977 4.15394Z" fill="#E453BC"/>
<path d="M109.089 36.2545C108.573 36.2287 108.055 36.2287 107.539 36.2545C106.559 36.4139 105.557 36.3739 104.593 36.1369C103.629 35.8999 102.722 35.4707 101.928 34.875C101.555 34.6304 101.109 34.521 100.665 34.565C97.2702 34.565 93.8757 34.565 90.4812 34.565C89.5658 34.4986 88.6559 34.7535 87.9082 35.2858C86.8307 36.0678 85.5067 36.4339 84.1805 36.3165C81.6695 36.2313 79.1585 36.3165 76.6475 36.3165C76.4127 36.332 76.1771 36.332 75.9422 36.3165C75.6787 36.3165 75.5625 36.0608 75.4617 35.8438C75.361 35.6268 75.5547 35.4718 75.7252 35.371L82.3205 31.5735C82.5916 31.4583 82.8887 31.4182 83.1807 31.4573H106.477C106.89 31.4349 107.301 31.5289 107.663 31.7285C109.693 32.922 111.747 34.0535 113.778 35.2858C113.979 35.402 114.367 35.4485 114.243 35.8128C114.192 35.9761 114.088 36.1178 113.948 36.216C113.807 36.3141 113.639 36.3631 113.468 36.3553C111.987 36.239 110.538 36.2545 109.089 36.2545Z" fill="#E453BC"/>
</g>
<defs>
<clipPath id="clip0_77_4019">
<rect width="155" height="36.3242" fill="white"/>
</clipPath>
</defs>
</svg>
